<svg width="12" height="12" viewBox="0 0 12 12" fill="none" xmlns="http://www.w3.org/2000/svg">
<path d="M0.74984 12.0001C0.601527 12 0.456554 11.956 0.333246 11.8736C0.209939 11.7912 0.113834 11.6741 0.0570817 11.5371C0.00032918 11.4 -0.014523 11.2493 0.0144026 11.1038C0.0433283 10.9583 0.114733 10.8247 0.21959 10.7198L3.96959 6.96981C4.11104 6.83319 4.30049 6.7576 4.49714 6.75931C4.69379 6.76101 4.8819 6.83989 5.02095 6.97895C5.16001 7.118 5.23889 7.30611 5.2406 7.50276C5.2423 7.69941 5.16671 7.88886 5.03009 8.03031L1.28009 11.7803C1.13947 11.921 0.948736 12 0.74984 12.0001Z" fill="#223944"/>
<path d="M0.724323 8.09411L1.86582 6.95186L1.82457 6.85586C1.82007 6.84386 1.39257 5.66786 2.03082 5.02961L5.05332 2.00711C5.68482 1.37561 6.85332 1.79186 6.85332 1.79111L6.97557 1.84361L8.11707 0.70136L7.41732 0.40136C7.33257 0.36836 5.32482 -0.38314 3.99207 0.94736L0.969573 3.96986C-0.360177 5.29811 0.392073 7.30961 0.435573 7.42061L0.724323 8.09411Z" fill="#223944"/>
<path d="M3.90582 11.2756L5.04807 10.1341L5.14407 10.1753C5.15607 10.1798 6.33207 10.6073 6.97032 9.96908L9.99282 6.94658C10.6243 6.31508 10.2081 5.14658 10.2088 5.14658L10.1563 5.02433L11.2986 3.88208L11.5986 4.58183C11.6316 4.66658 12.3831 6.67733 11.0526 8.00708L8.03007 11.0296C6.70182 12.3593 4.69032 11.6071 4.58007 11.5636L3.90582 11.2756Z" fill="#223944"/>
<path d="M7.49984 5.25006C7.35153 5.25003 7.20655 5.20603 7.08325 5.12361C6.95994 5.0412 6.86383 4.92408 6.80708 4.78705C6.75033 4.65003 6.73548 4.49925 6.7644 4.35379C6.79333 4.20832 6.86473 4.0747 6.96959 3.96981L10.7196 0.219811C10.861 0.0831927 11.0505 0.00759688 11.2471 0.0093057C11.4438 0.0110145 11.6319 0.0898912 11.771 0.228947C11.91 0.368003 11.9889 0.556113 11.9906 0.75276C11.9923 0.949408 11.9167 1.13886 11.7801 1.28031L8.03009 5.03031C7.88947 5.17097 7.69874 5.25002 7.49984 5.25006Z" fill="#223944"/>
</svg>
