<svg width="783" height="391" viewBox="0 0 783 391" fill="none" xmlns="http://www.w3.org/2000/svg">
<path d="M138.312 367.955V263.784H173.797V323.355H190.672V163.679H227.134V367.955H260.916V266.557H293.026V204.213H347.877V293.002H367.591V368.648H406.672V179.029H443.008V105.148H494.99V272.515H529.087V120.592H652.29V368.711L138.312 367.955Z" fill="#C9F0D3"/>
<path d="M138.312 367.955V390.113H282.365V368.175L138.312 367.955Z" fill="#C9F0D3"/>
<path d="M220.889 136.415H203.572V246.448H220.889V136.415Z" fill="#2F92CC"/>
<path d="M215.842 246.448H199.598V389.545H215.842V246.448Z" fill="#2AB5FF"/>
<path d="M251.295 227.442H243.473V389.577H251.295V227.442Z" fill="#3996D8"/>
<path d="M241.517 126.36H235.682V141.3H241.517V126.36Z" fill="#2F92CC"/>
<path d="M228.459 62.4395H211.142V136.446H228.459V62.4395Z" fill="#2F92CC"/>
<path d="M231.171 51.2817H214.707V62.4395H231.171V51.2817Z" fill="#2F92CC"/>
<path d="M225.368 0H216.536V51.2817H225.368V0Z" fill="#278BD2"/>
<path d="M235.682 55.6313H218.366V198.224H235.682V55.6313Z" fill="#229DE1"/>
<path d="M223.381 198.192H211.142V389.545H223.381V198.192Z" fill="#2AB5FF"/>
<path d="M243.473 141.3H223.381V389.577H243.473V141.3Z" fill="#60D6FF"/>
<path d="M228.08 231.886H215.842V389.577H228.08V231.886Z" fill="#60D6FF"/>
<path d="M251.327 373.943H199.598V374.857H251.327V373.943Z" fill="#437199"/>
<path d="M251.327 366H199.598V366.915H251.327V366Z" fill="#437199"/>
<path d="M251.327 358.058H199.598V358.972H251.327V358.058Z" fill="#437199"/>
<path d="M251.327 350.146H199.598V351.06H251.327V350.146Z" fill="#437199"/>
<path d="M251.327 342.203H199.598V343.117H251.327V342.203Z" fill="#437199"/>
<path d="M251.327 334.261H199.598V335.175H251.327V334.261Z" fill="#437199"/>
<path d="M251.327 302.552H199.598V303.466H251.327V302.552Z" fill="#437199"/>
<path d="M251.327 294.609H199.598V295.524H251.327V294.609Z" fill="#437199"/>
<path d="M251.327 286.667H199.598V287.581H251.327V286.667Z" fill="#437199"/>
<path d="M251.327 278.755H199.598V279.669H251.327V278.755Z" fill="#437199"/>
<path d="M251.327 270.813H199.598V271.727H251.327V270.813Z" fill="#437199"/>
<path d="M251.327 262.87H199.598V263.784H251.327V262.87Z" fill="#437199"/>
<path d="M251.327 254.958H199.598V255.872H251.327V254.958Z" fill="#437199"/>
<path d="M251.327 247.016H199.598V247.93H251.327V247.016Z" fill="#437199"/>
<path d="M251.295 239.073H203.572V239.987H251.295V239.073Z" fill="#437199"/>
<path d="M251.295 231.161H203.572V232.075H251.295V231.161Z" fill="#437199"/>
<path d="M243.441 191.479H203.572V192.393H243.441V191.479Z" fill="#437199"/>
<path d="M243.441 183.536H203.572V184.45H243.441V183.536Z" fill="#437199"/>
<path d="M243.441 175.625H203.572V176.539H243.441V175.625Z" fill="#437199"/>
<path d="M243.441 163.773H203.572V166.169H243.441V163.773Z" fill="#255985"/>
<path d="M243.441 210.579H203.572V212.975H243.441V210.579Z" fill="#255985"/>
<path d="M251.327 317.65H199.598V320.046H251.327V317.65Z" fill="#255985"/>
<path d="M243.441 143.885H203.572V144.799H243.441V143.885Z" fill="#437199"/>
<path d="M241.517 134.051H203.572V136.446H241.517V134.051Z" fill="#255985"/>
<path d="M235.714 120.088H211.142V121.002H235.714V120.088Z" fill="#437199"/>
<path d="M235.714 112.145H211.142V113.059H235.714V112.145Z" fill="#437199"/>
<path d="M235.714 104.234H211.142V105.148H235.714V104.234Z" fill="#437199"/>
<path d="M235.714 96.291H211.142V97.2051H235.714V96.291Z" fill="#437199"/>
<path d="M235.714 88.3482H211.142V89.2623H235.714V88.3482Z" fill="#437199"/>
<path d="M235.714 72.4941H211.142V74.8895H235.714V72.4941Z" fill="#255985"/>
<path d="M235.714 64.5512H211.142V65.4653H235.714V64.5512Z" fill="#437199"/>
<path d="M235.682 56.6399H214.707V57.554H235.682V56.6399Z" fill="#437199"/>
<path d="M225.431 48.6971H216.536V49.6111H225.431V48.6971Z" fill="#437199"/>
<path d="M225.431 40.7543H216.536V41.6683H225.431V40.7543Z" fill="#437199"/>
<path d="M225.431 32.8114H216.536V33.7255H225.431V32.8114Z" fill="#437199"/>
<path d="M225.431 24.9001H216.536V25.8142H225.431V24.9001Z" fill="#437199"/>
<path d="M225.431 16.9573H216.536V17.8714H225.431V16.9573Z" fill="#437199"/>
<path d="M225.431 9.01446H216.536V9.92851H225.431V9.01446Z" fill="#437199"/>
<path d="M225.431 1.10316H216.536V2.01722H225.431V1.10316Z" fill="#437199"/>
<path d="M639.768 243.107C638.537 243.107 637.339 243.296 636.235 243.612C634.5 240.743 631.409 238.758 627.845 238.568C624.88 233.462 619.36 230.027 613.02 230.027C604.945 230.027 598.164 235.606 596.366 243.107C596.208 243.107 596.082 243.107 595.924 243.107C589.016 243.107 583.402 248.718 583.402 255.62C583.402 262.523 589.016 268.133 595.924 268.133C600.151 268.133 634.216 268.133 639.799 268.133C646.707 268.133 652.321 262.523 652.321 255.62C652.29 248.718 646.675 243.107 639.768 243.107Z" fill="white"/>
<path d="M493.002 289.724H373.3V370.476H493.002V289.724Z" fill="#FFE3D7"/>
<path d="M493.002 285.248H373.3V289.693H493.002V285.248Z" fill="#FFF6F0"/>
<path d="M406.672 303.025H381.596V370.476H406.672V303.025Z" fill="#9D617F"/>
<path d="M389.67 304.948H384.434V310.18H389.67V304.948Z" fill="#FFEBDF"/>
<path d="M396.736 304.948H391.5V310.18H396.736V304.948Z" fill="#FFEBDF"/>
<path d="M403.833 304.948H398.597V310.18H403.833V304.948Z" fill="#FFEBDF"/>
<path d="M389.67 311.535H384.434V316.768H389.67V311.535Z" fill="#FFEBDF"/>
<path d="M396.736 311.535H391.5V316.768H396.736V311.535Z" fill="#FFEBDF"/>
<path d="M403.833 311.535H398.597V316.768H403.833V311.535Z" fill="#FFEBDF"/>
<path d="M389.67 318.154H384.434V323.387H389.67V318.154Z" fill="#FFEBDF"/>
<path d="M396.736 318.154H391.5V323.387H396.736V318.154Z" fill="#FFEBDF"/>
<path d="M403.833 318.154H398.597V323.387H403.833V318.154Z" fill="#FFEBDF"/>
<path d="M389.67 324.742H384.434V329.974H389.67V324.742Z" fill="#FFEBDF"/>
<path d="M396.736 324.742H391.5V329.974H396.736V324.742Z" fill="#FFEBDF"/>
<path d="M403.833 324.742H398.597V329.974H403.833V324.742Z" fill="#FFEBDF"/>
<path d="M389.67 331.329H384.434V336.562H389.67V331.329Z" fill="#FFEBDF"/>
<path d="M396.736 331.329H391.5V336.562H396.736V331.329Z" fill="#FFEBDF"/>
<path d="M403.833 331.329H398.597V336.562H403.833V331.329Z" fill="#FFEBDF"/>
<path d="M389.67 337.917H384.434V343.149H389.67V337.917Z" fill="#FFEBDF"/>
<path d="M396.736 337.917H391.5V343.149H396.736V337.917Z" fill="#FFEBDF"/>
<path d="M403.833 337.917H398.597V343.149H403.833V337.917Z" fill="#FFEBDF"/>
<path d="M389.67 344.536H384.434V349.768H389.67V344.536Z" fill="#FFEBDF"/>
<path d="M396.736 344.536H391.5V349.768H396.736V344.536Z" fill="#FFEBDF"/>
<path d="M403.833 344.536H398.597V349.768H403.833V344.536Z" fill="#FFEBDF"/>
<path d="M389.67 351.123H384.434V356.356H389.67V351.123Z" fill="#FFEBDF"/>
<path d="M396.736 351.123H391.5V356.356H396.736V351.123Z" fill="#FFEBDF"/>
<path d="M403.833 351.123H398.597V356.356H403.833V351.123Z" fill="#FFEBDF"/>
<path d="M389.67 357.711H384.434V362.943H389.67V357.711Z" fill="#FFEBDF"/>
<path d="M396.736 357.711H391.5V362.943H396.736V357.711Z" fill="#FFEBDF"/>
<path d="M403.833 357.711H398.597V362.943H403.833V357.711Z" fill="#FFEBDF"/>
<path d="M389.67 364.298H384.434V369.531H389.67V364.298Z" fill="#FFEBDF"/>
<path d="M396.736 364.298H391.5V369.531H396.736V364.298Z" fill="#FFEBDF"/>
<path d="M403.833 364.298H398.597V369.531H403.833V364.298Z" fill="#FFEBDF"/>
<path d="M429.319 303.025H411.497V370.476H429.319V303.025Z" fill="#9D617F"/>
<path d="M419.478 304.948H414.242V310.18H419.478V304.948Z" fill="#FFEBDF"/>
<path d="M426.575 304.948H421.339V310.18H426.575V304.948Z" fill="#FFEBDF"/>
<path d="M419.478 311.535H414.242V316.768H419.478V311.535Z" fill="#FFEBDF"/>
<path d="M426.575 311.535H421.339V316.768H426.575V311.535Z" fill="#FFEBDF"/>
<path d="M419.478 318.154H414.242V323.387H419.478V318.154Z" fill="#FFEBDF"/>
<path d="M426.575 318.154H421.339V323.387H426.575V318.154Z" fill="#FFEBDF"/>
<path d="M419.478 324.742H414.242V329.974H419.478V324.742Z" fill="#FFEBDF"/>
<path d="M426.575 324.742H421.339V329.974H426.575V324.742Z" fill="#FFEBDF"/>
<path d="M419.478 331.329H414.242V336.562H419.478V331.329Z" fill="#FFEBDF"/>
<path d="M426.575 331.329H421.339V336.562H426.575V331.329Z" fill="#FFEBDF"/>
<path d="M419.478 337.917H414.242V343.149H419.478V337.917Z" fill="#FFEBDF"/>
<path d="M426.575 337.917H421.339V343.149H426.575V337.917Z" fill="#FFEBDF"/>
<path d="M419.478 344.536H414.242V349.768H419.478V344.536Z" fill="#FFEBDF"/>
<path d="M426.575 344.536H421.339V349.768H426.575V344.536Z" fill="#FFEBDF"/>
<path d="M419.478 351.123H414.242V356.356H419.478V351.123Z" fill="#FFEBDF"/>
<path d="M426.575 351.123H421.339V356.356H426.575V351.123Z" fill="#FFEBDF"/>
<path d="M419.478 357.711H414.242V362.943H419.478V357.711Z" fill="#FFEBDF"/>
<path d="M426.575 357.711H421.339V362.943H426.575V357.711Z" fill="#FFEBDF"/>
<path d="M419.478 364.298H414.242V369.531H419.478V364.298Z" fill="#FFEBDF"/>
<path d="M426.575 364.298H421.339V369.531H426.575V364.298Z" fill="#FFEBDF"/>
<path d="M451.02 303.025H433.198V370.476H451.02V303.025Z" fill="#9D617F"/>
<path d="M441.179 304.948H435.943V310.18H441.179V304.948Z" fill="#FFEBDF"/>
<path d="M448.244 304.948H443.008V310.18H448.244V304.948Z" fill="#FFEBDF"/>
<path d="M441.179 311.535H435.943V316.768H441.179V311.535Z" fill="#FFEBDF"/>
<path d="M448.244 311.535H443.008V316.768H448.244V311.535Z" fill="#FFEBDF"/>
<path d="M441.179 318.154H435.943V323.387H441.179V318.154Z" fill="#FFEBDF"/>
<path d="M448.244 318.154H443.008V323.387H448.244V318.154Z" fill="#FFEBDF"/>
<path d="M441.179 324.742H435.943V329.974H441.179V324.742Z" fill="#FFEBDF"/>
<path d="M448.244 324.742H443.008V329.974H448.244V324.742Z" fill="#FFEBDF"/>
<path d="M441.179 331.329H435.943V336.562H441.179V331.329Z" fill="#FFEBDF"/>
<path d="M448.244 331.329H443.008V336.562H448.244V331.329Z" fill="#FFEBDF"/>
<path d="M441.179 337.917H435.943V343.149H441.179V337.917Z" fill="#FFEBDF"/>
<path d="M448.244 337.917H443.008V343.149H448.244V337.917Z" fill="#FFEBDF"/>
<path d="M441.179 344.536H435.943V349.768H441.179V344.536Z" fill="#FFEBDF"/>
<path d="M448.244 344.536H443.008V349.768H448.244V344.536Z" fill="#FFEBDF"/>
<path d="M441.179 351.123H435.943V356.356H441.179V351.123Z" fill="#FFEBDF"/>
<path d="M448.244 351.123H443.008V356.356H448.244V351.123Z" fill="#FFEBDF"/>
<path d="M441.179 357.711H435.943V362.943H441.179V357.711Z" fill="#FFEBDF"/>
<path d="M448.244 357.711H443.008V362.943H448.244V357.711Z" fill="#FFEBDF"/>
<path d="M441.179 364.298H435.943V369.531H441.179V364.298Z" fill="#FFEBDF"/>
<path d="M448.244 364.298H443.008V369.531H448.244V364.298Z" fill="#FFEBDF"/>
<path d="M486.189 303.025H468.368V370.476H486.189V303.025Z" fill="#9D617F"/>
<path d="M476.348 304.948H471.112V310.18H476.348V304.948Z" fill="#FFEBDF"/>
<path d="M483.414 304.948H478.178V310.18H483.414V304.948Z" fill="#FFEBDF"/>
<path d="M476.348 311.535H471.112V316.768H476.348V311.535Z" fill="#FFEBDF"/>
<path d="M483.414 311.535H478.178V316.768H483.414V311.535Z" fill="#FFEBDF"/>
<path d="M476.348 318.154H471.112V323.387H476.348V318.154Z" fill="#FFEBDF"/>
<path d="M483.414 318.154H478.178V323.387H483.414V318.154Z" fill="#FFEBDF"/>
<path d="M476.348 324.742H471.112V329.974H476.348V324.742Z" fill="#FFEBDF"/>
<path d="M483.414 324.742H478.178V329.974H483.414V324.742Z" fill="#FFEBDF"/>
<path d="M476.348 331.329H471.112V336.562H476.348V331.329Z" fill="#FFEBDF"/>
<path d="M483.414 331.329H478.178V336.562H483.414V331.329Z" fill="#FFEBDF"/>
<path d="M476.348 337.917H471.112V343.149H476.348V337.917Z" fill="#FFEBDF"/>
<path d="M483.414 337.917H478.178V343.149H483.414V337.917Z" fill="#FFEBDF"/>
<path d="M476.348 344.536H471.112V349.768H476.348V344.536Z" fill="#FFEBDF"/>
<path d="M483.414 344.536H478.178V349.768H483.414V344.536Z" fill="#FFEBDF"/>
<path d="M476.348 351.123H471.112V356.356H476.348V351.123Z" fill="#FFEBDF"/>
<path d="M483.414 351.123H478.178V356.356H483.414V351.123Z" fill="#FFEBDF"/>
<path d="M476.348 357.711H471.112V362.943H476.348V357.711Z" fill="#FFEBDF"/>
<path d="M483.414 357.711H478.178V362.943H483.414V357.711Z" fill="#FFEBDF"/>
<path d="M476.348 364.298H471.112V369.531H476.348V364.298Z" fill="#FFEBDF"/>
<path d="M483.414 364.298H478.178V369.531H483.414V364.298Z" fill="#FFEBDF"/>
<path d="M465.782 303.025H453.354V304.16H465.782V303.025Z" fill="#9D617F"/>
<path d="M403.833 294.767H384.434V297.415H403.833V294.767Z" fill="#FFF6F0"/>
<path d="M427.079 294.767H413.769V297.415H427.079V294.767Z" fill="#FFF6F0"/>
<path d="M448.749 294.767H435.438V297.415H448.749V294.767Z" fill="#FFF6F0"/>
<path d="M472.184 204.496H394.086V285.248H472.184V204.496Z" fill="#FFE3D7"/>
<path d="M419.383 217.797H401.562V285.248H419.383V217.797Z" fill="#9D617F"/>
<path d="M409.542 219.752H404.306V224.984H409.542V219.752Z" fill="#FFEBDF"/>
<path d="M416.639 219.752H411.403V224.984H416.639V219.752Z" fill="#FFEBDF"/>
<path d="M409.542 226.339H404.306V231.571H409.542V226.339Z" fill="#FFEBDF"/>
<path d="M416.639 226.339H411.403V231.571H416.639V226.339Z" fill="#FFEBDF"/>
<path d="M409.542 232.927H404.306V238.159H409.542V232.927Z" fill="#FFEBDF"/>
<path d="M416.639 232.927H411.403V238.159H416.639V232.927Z" fill="#FFEBDF"/>
<path d="M409.542 239.514H404.306V244.746H409.542V239.514Z" fill="#FFEBDF"/>
<path d="M416.639 239.514H411.403V244.746H416.639V239.514Z" fill="#FFEBDF"/>
<path d="M409.542 246.133H404.306V251.365H409.542V246.133Z" fill="#FFEBDF"/>
<path d="M416.639 246.133H411.403V251.365H416.639V246.133Z" fill="#FFEBDF"/>
<path d="M409.542 252.721H404.306V257.953H409.542V252.721Z" fill="#FFEBDF"/>
<path d="M416.639 252.721H411.403V257.953H416.639V252.721Z" fill="#FFEBDF"/>
<path d="M409.542 259.308H404.306V264.54H409.542V259.308Z" fill="#FFEBDF"/>
<path d="M416.639 259.308H411.403V264.54H416.639V259.308Z" fill="#FFEBDF"/>
<path d="M409.542 265.896H404.306V271.128H409.542V265.896Z" fill="#FFEBDF"/>
<path d="M416.639 265.896H411.403V271.128H416.639V265.896Z" fill="#FFEBDF"/>
<path d="M409.542 272.515H404.306V277.747H409.542V272.515Z" fill="#FFEBDF"/>
<path d="M416.639 272.515H411.403V277.747H416.639V272.515Z" fill="#FFEBDF"/>
<path d="M409.542 279.102H404.306V284.334H409.542V279.102Z" fill="#FFEBDF"/>
<path d="M416.639 279.102H411.403V284.334H416.639V279.102Z" fill="#FFEBDF"/>
<path d="M464.709 217.797H446.888V285.248H464.709V217.797Z" fill="#9D617F"/>
<path d="M454.868 219.752H449.632V224.984H454.868V219.752Z" fill="#FFEBDF"/>
<path d="M461.965 219.752H456.729V224.984H461.965V219.752Z" fill="#FFEBDF"/>
<path d="M454.868 226.339H449.632V231.571H454.868V226.339Z" fill="#FFEBDF"/>
<path d="M461.965 226.339H456.729V231.571H461.965V226.339Z" fill="#FFEBDF"/>
<path d="M454.868 232.927H449.632V238.159H454.868V232.927Z" fill="#FFEBDF"/>
<path d="M461.965 232.927H456.729V238.159H461.965V232.927Z" fill="#FFEBDF"/>
<path d="M454.868 239.514H449.632V244.746H454.868V239.514Z" fill="#FFEBDF"/>
<path d="M461.965 239.514H456.729V244.746H461.965V239.514Z" fill="#FFEBDF"/>
<path d="M454.868 246.133H449.632V251.365H454.868V246.133Z" fill="#FFEBDF"/>
<path d="M461.965 246.133H456.729V251.365H461.965V246.133Z" fill="#FFEBDF"/>
<path d="M454.868 252.721H449.632V257.953H454.868V252.721Z" fill="#FFEBDF"/>
<path d="M461.965 252.721H456.729V257.953H461.965V252.721Z" fill="#FFEBDF"/>
<path d="M454.868 259.308H449.632V264.54H454.868V259.308Z" fill="#FFEBDF"/>
<path d="M461.965 259.308H456.729V264.54H461.965V259.308Z" fill="#FFEBDF"/>
<path d="M454.868 265.896H449.632V271.128H454.868V265.896Z" fill="#FFEBDF"/>
<path d="M461.965 265.896H456.729V271.128H461.965V265.896Z" fill="#FFEBDF"/>
<path d="M454.868 272.515H449.632V277.747H454.868V272.515Z" fill="#FFEBDF"/>
<path d="M461.965 272.515H456.729V277.747H461.965V272.515Z" fill="#FFEBDF"/>
<path d="M454.868 279.102H449.632V284.334H454.868V279.102Z" fill="#FFEBDF"/>
<path d="M461.965 279.102H456.729V284.334H461.965V279.102Z" fill="#FFEBDF"/>
<path d="M442.061 217.797H424.24V285.248H442.061V217.797Z" fill="#9D617F"/>
<path d="M432.22 219.752H426.984V224.984H432.22V219.752Z" fill="#FFEBDF"/>
<path d="M439.286 219.752H434.05V224.984H439.286V219.752Z" fill="#FFEBDF"/>
<path d="M432.22 226.339H426.984V231.571H432.22V226.339Z" fill="#FFEBDF"/>
<path d="M439.286 226.339H434.05V231.571H439.286V226.339Z" fill="#FFEBDF"/>
<path d="M432.22 232.927H426.984V238.159H432.22V232.927Z" fill="#FFEBDF"/>
<path d="M439.286 232.927H434.05V238.159H439.286V232.927Z" fill="#FFEBDF"/>
<path d="M432.22 239.514H426.984V244.746H432.22V239.514Z" fill="#FFEBDF"/>
<path d="M439.286 239.514H434.05V244.746H439.286V239.514Z" fill="#FFEBDF"/>
<path d="M432.22 246.133H426.984V251.365H432.22V246.133Z" fill="#FFEBDF"/>
<path d="M439.286 246.133H434.05V251.365H439.286V246.133Z" fill="#FFEBDF"/>
<path d="M432.22 252.721H426.984V257.953H432.22V252.721Z" fill="#FFEBDF"/>
<path d="M439.286 252.721H434.05V257.953H439.286V252.721Z" fill="#FFEBDF"/>
<path d="M432.22 259.308H426.984V264.54H432.22V259.308Z" fill="#FFEBDF"/>
<path d="M439.286 259.308H434.05V264.54H439.286V259.308Z" fill="#FFEBDF"/>
<path d="M432.22 265.896H426.984V271.128H432.22V265.896Z" fill="#FFEBDF"/>
<path d="M439.286 265.896H434.05V271.128H439.286V265.896Z" fill="#FFEBDF"/>
<path d="M432.22 272.515H426.984V277.747H432.22V272.515Z" fill="#FFEBDF"/>
<path d="M439.286 272.515H434.05V277.747H439.286V272.515Z" fill="#FFEBDF"/>
<path d="M432.22 279.102H426.984V284.334H432.22V279.102Z" fill="#FFEBDF"/>
<path d="M439.286 279.102H434.05V284.334H439.286V279.102Z" fill="#FFEBDF"/>
<path d="M417.144 211.304H403.833V213.952H417.144V211.304Z" fill="#FFF6F0"/>
<path d="M439.791 211.304H426.48V213.952H439.791V211.304Z" fill="#FFF6F0"/>
<path d="M462.469 211.304H449.159V213.952H462.469V211.304Z" fill="#FFF6F0"/>
<path d="M483.918 294.767H470.607V297.415H483.918V294.767Z" fill="#FFF6F0"/>
<path d="M465.782 316.799H453.354V317.934H465.782V316.799Z" fill="#9D617F"/>
<path d="M465.782 330.541H453.354V331.676H465.782V330.541Z" fill="#9D617F"/>
<path d="M465.782 344.315H453.354V345.45H465.782V344.315Z" fill="#9D617F"/>
<path d="M465.782 358.089H453.354V359.224H465.782V358.089Z" fill="#9D617F"/>
<path d="M564.13 142.214H518.425V373.439H564.13V142.214Z" fill="#3B77B8"/>
<path d="M523.283 142.214H522.052V373.439H523.283V142.214Z" fill="#8CBCFF"/>
<path d="M530.569 142.214H529.339V373.439H530.569V142.214Z" fill="#8CBCFF"/>
<path d="M537.855 142.214H536.625V373.439H537.855V142.214Z" fill="#8CBCFF"/>
<path d="M545.173 142.214H543.943V373.439H545.173V142.214Z" fill="#8CBCFF"/>
<path d="M552.459 142.214H551.229V373.439H552.459V142.214Z" fill="#8CBCFF"/>
<path d="M559.745 142.214H558.515V373.439H559.745V142.214Z" fill="#8CBCFF"/>
<path d="M599.141 133.956H564.13V373.439H599.141V133.956Z" fill="#3B77B8"/>
<path d="M567.032 133.956H565.801V373.439H567.032V133.956Z" fill="#8CBCFF"/>
<path d="M574.35 133.956H573.119V373.439H574.35V133.956Z" fill="#8CBCFF"/>
<path d="M581.636 133.956H580.406V373.439H581.636V133.956Z" fill="#8CBCFF"/>
<path d="M588.922 133.956H587.692V373.439H588.922V133.956Z" fill="#8CBCFF"/>
<path d="M596.208 133.956H594.978V373.439H596.208V133.956Z" fill="#8CBCFF"/>
<path d="M529.087 151.796H523.535V157.344H529.087V151.796Z" fill="#C6F1FF"/>
<path d="M529.087 161.725H523.535V167.272H529.087V161.725Z" fill="#C6F1FF"/>
<path d="M529.087 171.653H523.535V177.201H529.087V171.653Z" fill="#C6F1FF"/>
<path d="M529.087 181.582H523.535V187.129H529.087V181.582Z" fill="#C6F1FF"/>
<path d="M529.087 191.51H523.535V197.058H529.087V191.51Z" fill="#C6F1FF"/>
<path d="M529.087 201.439H523.535V206.986H529.087V201.439Z" fill="#C6F1FF"/>
<path d="M529.087 211.367H523.535V216.915H529.087V211.367Z" fill="#C6F1FF"/>
<path d="M529.087 221.296H523.535V226.843H529.087V221.296Z" fill="#C6F1FF"/>
<path d="M529.087 231.225H523.535V236.772H529.087V231.225Z" fill="#C6F1FF"/>
<path d="M529.087 241.153H523.535V246.7H529.087V241.153Z" fill="#C6F1FF"/>
<path d="M558.231 241.153H552.68V246.7H558.231V241.153Z" fill="#C6F1FF"/>
<path d="M550.945 241.153H545.394V246.7H550.945V241.153Z" fill="#C6F1FF"/>
<path d="M565.549 241.153H559.998V246.7H565.549V241.153Z" fill="#C6F1FF"/>
<path d="M529.087 251.082H523.535V256.629H529.087V251.082Z" fill="#C6F1FF"/>
<path d="M529.087 261.01H523.535V266.558H529.087V261.01Z" fill="#C6F1FF"/>
<path d="M529.087 270.939H523.535V276.486H529.087V270.939Z" fill="#C6F1FF"/>
<path d="M565.549 270.939H559.998V276.486H565.549V270.939Z" fill="#C6F1FF"/>
<path d="M529.087 280.867H523.535V286.415H529.087V280.867Z" fill="#C6F1FF"/>
<path d="M565.518 280.867H559.966V286.415H565.518V280.867Z" fill="#C6F1FF"/>
<path d="M529.087 290.796H523.535V296.343H529.087V290.796Z" fill="#C6F1FF"/>
<path d="M529.087 300.756H523.535V306.303H529.087V300.756Z" fill="#C6F1FF"/>
<path d="M529.087 310.684H523.535V316.232H529.087V310.684Z" fill="#C6F1FF"/>
<path d="M529.087 320.613H523.535V326.16H529.087V320.613Z" fill="#C6F1FF"/>
<path d="M529.087 330.541H523.535V336.089H529.087V330.541Z" fill="#C6F1FF"/>
<path d="M529.087 340.47H523.535V346.017H529.087V340.47Z" fill="#C6F1FF"/>
<path d="M529.087 350.398H523.535V355.946H529.087V350.398Z" fill="#C6F1FF"/>
<path d="M529.087 360.327H523.535V365.874H529.087V360.327Z" fill="#C6F1FF"/>
<path d="M536.373 151.796H530.821V157.344H536.373V151.796Z" fill="#C6F1FF"/>
<path d="M536.373 171.653H530.821V177.201H536.373V171.653Z" fill="#C6F1FF"/>
<path d="M536.373 191.51H530.821V197.058H536.373V191.51Z" fill="#C6F1FF"/>
<path d="M536.373 211.367H530.821V216.915H536.373V211.367Z" fill="#C6F1FF"/>
<path d="M536.373 231.225H530.821V236.772H536.373V231.225Z" fill="#C6F1FF"/>
<path d="M536.373 251.082H530.821V256.629H536.373V251.082Z" fill="#C6F1FF"/>
<path d="M536.373 300.756H530.821V306.303H536.373V300.756Z" fill="#C6F1FF"/>
<path d="M536.373 310.684H530.821V316.232H536.373V310.684Z" fill="#C6F1FF"/>
<path d="M536.373 330.541H530.821V336.089H536.373V330.541Z" fill="#C6F1FF"/>
<path d="M536.373 340.47H530.821V346.017H536.373V340.47Z" fill="#C6F1FF"/>
<path d="M536.373 350.398H530.821V355.946H536.373V350.398Z" fill="#C6F1FF"/>
<path d="M536.373 360.327H530.821V365.874H536.373V360.327Z" fill="#C6F1FF"/>
<path d="M543.659 151.796H538.108V157.344H543.659V151.796Z" fill="#C6F1FF"/>
<path d="M543.659 171.653H538.108V177.201H543.659V171.653Z" fill="#C6F1FF"/>
<path d="M543.659 191.51H538.108V197.058H543.659V191.51Z" fill="#C6F1FF"/>
<path d="M543.659 211.367H538.108V216.915H543.659V211.367Z" fill="#C6F1FF"/>
<path d="M543.659 231.225H538.108V236.772H543.659V231.225Z" fill="#C6F1FF"/>
<path d="M543.659 251.082H538.108V256.629H543.659V251.082Z" fill="#C6F1FF"/>
<path d="M543.659 300.756H538.108V306.303H543.659V300.756Z" fill="#C6F1FF"/>
<path d="M543.659 310.684H538.108V316.232H543.659V310.684Z" fill="#C6F1FF"/>
<path d="M543.659 330.541H538.108V336.089H543.659V330.541Z" fill="#C6F1FF"/>
<path d="M543.659 350.398H538.108V355.946H543.659V350.398Z" fill="#C6F1FF"/>
<path d="M550.945 151.796H545.394V157.344H550.945V151.796Z" fill="#C6F1FF"/>
<path d="M550.945 171.653H545.394V177.201H550.945V171.653Z" fill="#C6F1FF"/>
<path d="M550.945 191.51H545.394V197.058H550.945V191.51Z" fill="#C6F1FF"/>
<path d="M550.945 231.225H545.394V236.772H550.945V231.225Z" fill="#C6F1FF"/>
<path d="M550.945 251.082H545.394V256.629H550.945V251.082Z" fill="#C6F1FF"/>
<path d="M550.945 300.756H545.394V306.303H550.945V300.756Z" fill="#C6F1FF"/>
<path d="M550.945 310.684H545.394V316.232H550.945V310.684Z" fill="#C6F1FF"/>
<path d="M550.945 330.541H545.394V336.089H550.945V330.541Z" fill="#C6F1FF"/>
<path d="M550.945 340.47H545.394V346.017H550.945V340.47Z" fill="#C6F1FF"/>
<path d="M550.945 350.398H545.394V355.946H550.945V350.398Z" fill="#C6F1FF"/>
<path d="M550.945 360.327H545.394V365.874H550.945V360.327Z" fill="#C6F1FF"/>
<path d="M558.231 151.796H552.68V157.344H558.231V151.796Z" fill="#C6F1FF"/>
<path d="M558.231 171.653H552.68V177.201H558.231V171.653Z" fill="#C6F1FF"/>
<path d="M558.231 191.51H552.68V197.058H558.231V191.51Z" fill="#C6F1FF"/>
<path d="M558.231 231.225H552.68V236.772H558.231V231.225Z" fill="#C6F1FF"/>
<path d="M558.231 251.082H552.68V256.629H558.231V251.082Z" fill="#C6F1FF"/>
<path d="M558.231 300.756H552.68V306.303H558.231V300.756Z" fill="#C6F1FF"/>
<path d="M558.231 310.684H552.68V316.232H558.231V310.684Z" fill="#C6F1FF"/>
<path d="M558.231 330.541H552.68V336.089H558.231V330.541Z" fill="#C6F1FF"/>
<path d="M558.231 340.47H552.68V346.017H558.231V340.47Z" fill="#C6F1FF"/>
<path d="M558.231 350.398H552.68V355.946H558.231V350.398Z" fill="#C6F1FF"/>
<path d="M558.231 360.327H552.68V365.874H558.231V360.327Z" fill="#C6F1FF"/>
<path d="M565.518 151.796H559.966V157.344H565.518V151.796Z" fill="#C6F1FF"/>
<path d="M565.518 171.653H559.966V177.201H565.518V171.653Z" fill="#C6F1FF"/>
<path d="M565.518 191.51H559.966V197.058H565.518V191.51Z" fill="#C6F1FF"/>
<path d="M565.518 231.225H559.966V236.772H565.518V231.225Z" fill="#C6F1FF"/>
<path d="M565.518 251.082H559.966V256.629H565.518V251.082Z" fill="#C6F1FF"/>
<path d="M565.518 300.756H559.966V306.303H565.518V300.756Z" fill="#C6F1FF"/>
<path d="M565.518 310.684H559.966V316.232H565.518V310.684Z" fill="#C6F1FF"/>
<path d="M565.518 350.398H559.966V355.946H565.518V350.398Z" fill="#C6F1FF"/>
<path d="M565.518 360.327H559.966V365.874H565.518V360.327Z" fill="#C6F1FF"/>
<path d="M572.804 151.796H567.252V157.344H572.804V151.796Z" fill="#C6F1FF"/>
<path d="M572.804 171.653H567.252V177.201H572.804V171.653Z" fill="#C6F1FF"/>
<path d="M572.804 191.51H567.252V197.058H572.804V191.51Z" fill="#C6F1FF"/>
<path d="M572.804 211.367H567.252V216.915H572.804V211.367Z" fill="#C6F1FF"/>
<path d="M572.804 231.225H567.252V236.772H572.804V231.225Z" fill="#C6F1FF"/>
<path d="M572.804 251.082H567.252V256.629H572.804V251.082Z" fill="#C6F1FF"/>
<path d="M572.804 300.756H567.252V306.303H572.804V300.756Z" fill="#C6F1FF"/>
<path d="M572.804 310.684H567.252V316.232H572.804V310.684Z" fill="#C6F1FF"/>
<path d="M572.804 330.541H567.252V336.089H572.804V330.541Z" fill="#C6F1FF"/>
<path d="M572.804 340.47H567.252V346.017H572.804V340.47Z" fill="#C6F1FF"/>
<path d="M572.804 350.398H567.252V355.946H572.804V350.398Z" fill="#C6F1FF"/>
<path d="M572.804 360.327H567.252V365.874H572.804V360.327Z" fill="#C6F1FF"/>
<path d="M580.09 151.796H574.539V157.344H580.09V151.796Z" fill="#C6F1FF"/>
<path d="M580.09 171.653H574.539V177.201H580.09V171.653Z" fill="#C6F1FF"/>
<path d="M580.09 191.51H574.539V197.058H580.09V191.51Z" fill="#C6F1FF"/>
<path d="M580.09 211.367H574.539V216.915H580.09V211.367Z" fill="#C6F1FF"/>
<path d="M580.09 231.225H574.539V236.772H580.09V231.225Z" fill="#C6F1FF"/>
<path d="M580.09 251.082H574.539V256.629H580.09V251.082Z" fill="#C6F1FF"/>
<path d="M580.09 300.756H574.539V306.303H580.09V300.756Z" fill="#C6F1FF"/>
<path d="M580.09 310.684H574.539V316.232H580.09V310.684Z" fill="#C6F1FF"/>
<path d="M580.09 330.541H574.539V336.089H580.09V330.541Z" fill="#C6F1FF"/>
<path d="M580.09 350.398H574.539V355.946H580.09V350.398Z" fill="#C6F1FF"/>
<path d="M580.09 360.327H574.539V365.874H580.09V360.327Z" fill="#C6F1FF"/>
<path d="M587.376 151.796H581.825V157.344H587.376V151.796Z" fill="#C6F1FF"/>
<path d="M587.376 171.653H581.825V177.201H587.376V171.653Z" fill="#C6F1FF"/>
<path d="M587.376 191.51H581.825V197.058H587.376V191.51Z" fill="#C6F1FF"/>
<path d="M587.376 211.367H581.825V216.915H587.376V211.367Z" fill="#C6F1FF"/>
<path d="M587.376 231.225H581.825V236.772H587.376V231.225Z" fill="#C6F1FF"/>
<path d="M587.376 251.082H581.825V256.629H587.376V251.082Z" fill="#C6F1FF"/>
<path d="M587.376 300.756H581.825V306.303H587.376V300.756Z" fill="#C6F1FF"/>
<path d="M587.376 310.684H581.825V316.232H587.376V310.684Z" fill="#C6F1FF"/>
<path d="M587.376 330.541H581.825V336.089H587.376V330.541Z" fill="#C6F1FF"/>
<path d="M587.376 340.47H581.825V346.017H587.376V340.47Z" fill="#C6F1FF"/>
<path d="M587.376 350.398H581.825V355.946H587.376V350.398Z" fill="#C6F1FF"/>
<path d="M587.376 360.327H581.825V365.874H587.376V360.327Z" fill="#C6F1FF"/>
<path d="M594.662 151.796H589.111V157.344H594.662V151.796Z" fill="#C6F1FF"/>
<path d="M594.662 171.653H589.111V177.201H594.662V171.653Z" fill="#C6F1FF"/>
<path d="M594.662 191.51H589.111V197.058H594.662V191.51Z" fill="#C6F1FF"/>
<path d="M594.662 211.367H589.111V216.915H594.662V211.367Z" fill="#C6F1FF"/>
<path d="M594.662 231.225H589.111V236.772H594.662V231.225Z" fill="#C6F1FF"/>
<path d="M594.662 251.082H589.111V256.629H594.662V251.082Z" fill="#C6F1FF"/>
<path d="M594.662 300.756H589.111V306.303H594.662V300.756Z" fill="#C6F1FF"/>
<path d="M594.662 310.684H589.111V316.232H594.662V310.684Z" fill="#C6F1FF"/>
<path d="M594.662 330.541H589.111V336.089H594.662V330.541Z" fill="#C6F1FF"/>
<path d="M594.662 340.47H589.111V346.017H594.662V340.47Z" fill="#C6F1FF"/>
<path d="M594.662 350.398H589.111V355.946H594.662V350.398Z" fill="#C6F1FF"/>
<path d="M594.662 360.327H589.111V365.874H594.662V360.327Z" fill="#C6F1FF"/>
<path d="M783 368.711H248.394V390.05H783V368.711Z" fill="#524F5C"/>
<path d="M261.452 378.072H248.394V380.751H261.452V378.072Z" fill="white"/>
<path d="M284.856 378.072H271.798V380.751H284.856V378.072Z" fill="white"/>
<path d="M308.292 378.072H295.234V380.751H308.292V378.072Z" fill="white"/>
<path d="M331.696 378.072H318.638V380.751H331.696V378.072Z" fill="white"/>
<path d="M355.101 378.072H342.042V380.751H355.101V378.072Z" fill="white"/>
<path d="M378.505 378.072H365.446V380.751H378.505V378.072Z" fill="white"/>
<path d="M401.909 378.072H388.851V380.751H401.909V378.072Z" fill="white"/>
<path d="M425.313 378.072H412.255V380.751H425.313V378.072Z" fill="white"/>
<path d="M448.749 378.072H435.691V380.751H448.749V378.072Z" fill="white"/>
<path d="M472.153 378.072H459.095V380.751H472.153V378.072Z" fill="white"/>
<path d="M495.558 378.072H482.499V380.751H495.558V378.072Z" fill="white"/>
<path d="M518.962 378.072H505.903V380.751H518.962V378.072Z" fill="white"/>
<path d="M542.366 378.072H529.308V380.751H542.366V378.072Z" fill="white"/>
<path d="M565.77 378.072H552.712V380.751H565.77V378.072Z" fill="white"/>
<path d="M589.206 378.072H576.147V380.751H589.206V378.072Z" fill="white"/>
<path d="M612.61 378.072H599.552V380.751H612.61V378.072Z" fill="white"/>
<path d="M636.014 378.072H622.956V380.751H636.014V378.072Z" fill="white"/>
<path d="M659.419 378.072H646.36V380.751H659.419V378.072Z" fill="white"/>
<path d="M682.823 378.072H669.764V380.751H682.823V378.072Z" fill="white"/>
<path d="M706.227 378.072H693.168V380.751H706.227V378.072Z" fill="white"/>
<path d="M729.631 378.072H716.573V380.751H729.631V378.072Z" fill="white"/>
<path d="M753.067 378.072H740.008V380.751H753.067V378.072Z" fill="white"/>
<path d="M776.471 378.072H763.413V380.751H776.471V378.072Z" fill="white"/>
<path d="M420.014 72.0528C418.405 72.0528 416.828 72.3049 415.346 72.7147C413.043 68.9009 408.974 66.2848 404.243 66.0326C400.332 59.2875 393.014 54.7488 384.624 54.7488C373.931 54.7488 365.005 62.1242 362.576 72.0528C362.387 72.0528 362.198 72.0528 361.977 72.0528C352.83 72.0528 345.417 79.4598 345.417 88.6003C345.417 97.7409 352.83 105.148 361.977 105.148C367.56 105.148 412.602 105.148 419.983 105.148C429.13 105.148 436.542 97.7409 436.542 88.6003C436.574 79.4598 429.161 72.0528 420.014 72.0528Z" fill="white"/>
<path d="M161.685 196.333C163.293 196.333 164.87 196.585 166.353 196.995C168.655 193.181 172.724 190.565 177.456 190.313C181.367 183.568 188.685 179.029 197.075 179.029C207.768 179.029 216.694 186.404 219.123 196.333C219.312 196.333 219.501 196.333 219.722 196.333C228.869 196.333 236.282 203.74 236.282 212.88C236.282 222.021 228.869 229.428 219.722 229.428C214.139 229.428 169.097 229.428 161.716 229.428C152.569 229.428 145.157 222.021 145.157 212.88C145.125 203.74 152.537 196.333 161.685 196.333Z" fill="white"/>
<path d="M488.429 161.914C489.533 161.914 490.574 162.072 491.583 162.355C493.128 159.771 495.904 158.006 499.09 157.816C501.739 153.246 506.692 150.189 512.369 150.189C519.592 150.189 525.648 155.169 527.288 161.914C527.415 161.914 527.541 161.914 527.699 161.914C533.881 161.914 538.896 166.925 538.896 173.103C538.896 179.281 533.881 184.293 527.699 184.293C523.913 184.293 493.444 184.293 488.46 184.293C482.278 184.293 477.263 179.281 477.263 173.103C477.2 166.957 482.246 161.914 488.429 161.914Z" fill="white"/>
<path d="M328.227 223.597C329.331 223.597 330.372 223.754 331.381 224.038C332.927 221.454 335.702 219.688 338.888 219.499C341.538 214.929 346.49 211.872 352.167 211.872C359.39 211.872 365.446 216.852 367.087 223.597C367.213 223.597 367.339 223.597 367.497 223.597C373.679 223.597 378.694 228.608 378.694 234.786C378.694 240.964 373.679 245.975 367.497 245.975C363.712 245.975 333.242 245.975 328.258 245.975C322.076 245.975 317.061 240.964 317.061 234.786C317.029 228.608 322.045 223.597 328.227 223.597Z" fill="white"/>
<path d="M336.995 296.375C337.122 298.676 337.185 300.472 337.185 301.512V361.052C337.185 365.717 337.185 368.68 337.185 368.68L290.976 368.837L283.311 368.869L283.784 361.052L283.973 357.679L284.415 350.272L284.446 349.673L284.604 346.9L285.046 339.493L285.235 336.12L285.645 329.281L285.677 328.745L285.866 325.372L286.307 317.965L286.497 314.593L286.938 307.186L287.127 303.813L287.569 296.406L287.758 293.034L288.2 285.627L288.389 282.254L288.831 274.847L289.02 271.474L289.462 264.067L289.651 260.695L290.092 253.288L290.282 249.915L290.723 242.508L290.912 239.136L291.354 231.729L291.543 228.356L291.701 225.52L291.985 220.949L292.174 217.577L292.616 210.17L292.805 206.797L292.9 205.19L293.247 199.39L293.436 196.018L293.877 188.611L294.067 185.238L294.508 177.831L294.698 174.459L295.139 167.052L295.328 163.679L295.77 156.272L295.959 152.899L296.401 145.492L296.59 142.12L297.032 134.713L297.221 131.34L297.662 123.933L297.852 120.561L298.293 113.154L298.419 111.231L299.019 111.861L300.217 113.154L303.75 116.905C304.097 118.134 304.444 119.363 304.791 120.529C305.106 121.664 305.422 122.799 305.737 123.902C305.958 124.69 306.179 125.446 306.368 126.203C306.778 127.684 307.188 129.165 307.567 130.584C307.63 130.836 307.693 131.057 307.756 131.309C308.071 132.443 308.387 133.578 308.671 134.681C309.365 137.266 310.027 139.724 310.658 142.088C310.973 143.255 311.257 144.358 311.541 145.461C312.235 148.077 312.866 150.535 313.434 152.868C313.528 153.278 313.623 153.687 313.749 154.066C313.844 154.507 313.97 154.917 314.064 155.358C314.127 155.642 314.222 155.957 314.285 156.24C314.348 156.493 314.411 156.713 314.474 156.965C314.664 157.659 314.821 158.352 314.979 159.046C315.358 160.685 315.736 162.229 316.083 163.679C316.367 164.877 316.619 165.98 316.84 167.052C317.471 169.92 318.007 172.347 318.449 174.459C318.701 175.719 318.922 176.822 319.111 177.831C320.057 182.843 320.247 184.828 320.247 184.828L321.004 185.238L321.161 185.333L322.36 185.995L327.091 188.611L328.542 189.399L329.741 190.061L336.995 194.063C336.995 194.063 336.932 194.757 336.838 195.986C336.775 196.869 336.68 198.003 336.585 199.359C336.428 201.407 336.238 203.929 336.018 206.766C335.923 207.837 335.86 208.972 335.765 210.138C335.576 212.502 335.387 214.992 335.198 217.545C335.103 218.648 335.04 219.783 334.945 220.918C334.756 223.408 334.598 225.898 334.409 228.325C334.314 229.459 334.251 230.594 334.188 231.697C333.999 234.376 333.873 236.898 333.747 239.104C333.684 240.334 333.62 241.468 333.589 242.477C333.494 244.683 333.463 246.322 333.494 247.173C333.526 247.772 333.589 248.686 333.652 249.852C333.715 250.798 333.81 251.933 333.873 253.225C334.03 255.368 334.188 257.89 334.409 260.632C334.472 261.735 334.567 262.838 334.661 264.004C334.819 266.368 335.008 268.89 335.198 271.411C335.292 272.546 335.355 273.649 335.45 274.784C335.639 277.274 335.797 279.764 335.955 282.191C336.018 283.326 336.112 284.46 336.175 285.564C336.365 288.243 336.522 290.733 336.648 292.971C336.901 294.231 336.964 295.366 336.995 296.375Z" fill="#9A9AB2"/>
<path d="M324.381 325.341C324.381 326.507 324.381 327.642 324.381 328.713C324.381 331.518 324.349 334.008 324.286 336.12C324.254 337.381 324.254 338.516 324.223 339.493C324.128 342.865 324.065 344.63 324.065 344.63L322.583 345.923L321.479 346.868L321.384 346.931L317.568 350.241L315.233 352.258L314.035 353.298L308.988 357.648L307.884 358.593L306.686 359.634L305.077 360.989L303.027 362.754L300.503 364.015L299.305 364.614L293.122 367.702L291.924 368.301L291.072 368.743L291.009 368.774H283.376C282.777 367.545 282.335 364.866 281.988 360.957C281.894 359.917 281.83 358.783 281.736 357.585C281.61 355.378 281.515 352.888 281.42 350.178C281.389 349.106 281.357 347.971 281.326 346.805C281.294 344.473 281.231 342.014 281.231 339.398C281.231 338.295 281.2 337.16 281.2 336.026C281.2 333.662 281.2 331.172 281.2 328.619C281.2 327.516 281.231 326.381 281.231 325.246C281.263 322.851 281.294 320.392 281.326 317.839C281.357 316.736 281.357 315.601 281.389 314.467C281.42 312.04 281.483 309.581 281.515 307.06C281.547 305.956 281.578 304.822 281.578 303.687C281.641 301.26 281.704 298.802 281.767 296.28C281.799 295.177 281.83 294.042 281.862 292.907C281.925 290.48 281.988 287.99 282.083 285.5C282.114 284.397 282.146 283.263 282.177 282.128C282.24 279.669 282.335 277.211 282.398 274.721C282.43 273.586 282.461 272.483 282.524 271.348C282.619 268.89 282.682 266.431 282.777 263.941C282.808 262.807 282.871 261.704 282.903 260.569C282.997 258.11 283.092 255.652 283.187 253.162C283.218 252.027 283.281 250.924 283.313 249.789C283.408 247.331 283.502 244.841 283.597 242.382C283.628 241.248 283.691 240.144 283.723 239.01C283.818 236.551 283.912 234.061 284.038 231.603C284.101 230.468 284.133 229.333 284.196 228.23C284.291 225.772 284.417 223.345 284.512 220.918C284.512 220.886 284.512 220.855 284.512 220.823C284.575 219.688 284.606 218.554 284.669 217.451C284.764 214.961 284.89 212.502 284.985 210.044C285.048 208.909 285.079 207.774 285.142 206.671C285.205 205.221 285.269 203.771 285.332 202.353C285.395 201.313 285.426 200.304 285.489 199.264C285.552 198.129 285.584 196.995 285.647 195.892C285.679 195.387 285.71 194.883 285.71 194.379C285.805 192.393 285.899 190.439 285.994 188.485C286.057 187.35 286.089 186.215 286.152 185.112C286.278 182.59 286.404 180.132 286.53 177.705C286.593 176.57 286.656 175.436 286.688 174.332C286.814 171.811 286.94 169.352 287.066 166.925C287.129 165.791 287.193 164.656 287.256 163.553C287.382 161 287.508 158.541 287.634 156.146C287.697 155.011 287.76 153.877 287.823 152.773C287.95 150.189 288.076 147.73 288.202 145.366C288.265 144.2 288.328 143.097 288.391 141.994C288.549 139.346 288.675 136.888 288.801 134.587C288.864 133.421 288.927 132.286 288.99 131.214C289.148 128.409 289.274 125.919 289.401 123.807C289.464 122.546 289.527 121.412 289.59 120.435C289.747 117.409 289.842 115.77 289.842 115.77L291.924 114.698L293.122 114.068L295.047 113.059L298.705 111.137C298.863 111.767 299.021 112.397 299.179 113.059C299.21 113.185 299.242 113.311 299.273 113.437C299.683 115.045 300.093 116.652 300.472 118.26C300.661 118.985 300.819 119.71 301.008 120.435C301.292 121.569 301.544 122.704 301.828 123.807C302.427 126.266 302.995 128.756 303.531 131.214C303.784 132.349 304.036 133.484 304.288 134.587C304.825 137.045 305.361 139.535 305.897 141.994C306.118 143.128 306.37 144.232 306.591 145.366C306.622 145.461 306.622 145.524 306.654 145.618C307.064 147.636 307.474 149.621 307.853 151.607C307.916 151.985 308.01 152.364 308.073 152.742C308.294 153.877 308.515 154.98 308.736 156.114C309.209 158.604 309.682 161.063 310.124 163.521C310.344 164.656 310.534 165.791 310.723 166.894C311.165 169.384 311.606 171.842 311.985 174.301C312.174 175.436 312.363 176.57 312.552 177.673C312.962 180.163 313.341 182.622 313.719 185.08C313.814 185.742 313.94 186.436 314.035 187.098L314.256 188.453C314.603 190.754 314.95 193.086 315.265 195.356C315.297 195.513 315.328 195.671 315.328 195.86C315.486 196.995 315.643 198.129 315.801 199.233C316.148 201.723 316.464 204.181 316.779 206.64C316.937 207.774 317.063 208.909 317.221 210.012C317.536 212.502 317.82 214.961 318.104 217.419C318.23 218.554 318.356 219.688 318.482 220.792C318.766 223.282 319.018 225.74 319.271 228.199C319.397 229.333 319.492 230.468 319.618 231.571C319.87 234.061 320.122 236.52 320.343 238.978C320.438 240.113 320.564 241.248 320.659 242.351C320.879 244.841 321.1 247.331 321.29 249.758C321.321 250.294 321.384 250.861 321.416 251.397C321.479 251.964 321.51 252.563 321.542 253.13C321.731 255.62 321.92 258.11 322.078 260.537C322.173 261.672 322.236 262.807 322.299 263.91C322.393 265.423 322.488 266.904 322.583 268.354C322.646 269.331 322.709 270.308 322.772 271.285C322.835 272.42 322.898 273.555 322.961 274.658C323.119 277.179 323.214 279.638 323.34 282.065C323.403 283.2 323.434 284.334 323.497 285.437C323.624 287.959 323.718 290.449 323.813 292.844C323.844 293.979 323.908 295.114 323.939 296.217C324.034 298.77 324.097 301.229 324.16 303.624C324.191 304.759 324.223 305.893 324.223 306.997C324.286 309.581 324.318 312.04 324.349 314.404C324.349 315.57 324.381 316.673 324.381 317.776C324.349 320.581 324.381 323.04 324.381 325.341Z" fill="white"/>
<path d="M337.185 194.095L329.93 190.092L328.731 189.43L327.281 188.642L322.549 186.026L321.351 185.364L321.193 185.27L320.436 184.86C320.436 184.86 320.783 184.797 321.351 184.702C321.666 184.639 322.076 184.576 322.549 184.513C324.126 184.261 326.366 183.914 328.731 183.599C329.142 183.536 329.52 183.505 329.93 183.441C332.674 183.095 335.418 182.78 337.185 182.78C342.011 182.717 354.47 183.158 355.258 186.972C356.079 190.754 344.408 193.496 337.185 194.095Z" fill="#898AA1"/>
<path d="M285.677 194.505V368.648H284.478V221.044C284.478 221.012 284.478 220.981 284.478 220.949C284.541 219.815 284.573 218.68 284.636 217.577C284.73 215.087 284.857 212.628 284.951 210.17C285.014 209.035 285.046 207.9 285.109 206.797C285.172 205.347 285.235 203.897 285.298 202.479C285.361 201.439 285.393 200.43 285.456 199.39C285.519 198.255 285.55 197.121 285.614 196.018C285.614 195.513 285.645 195.009 285.677 194.505Z" fill="#F5F7FF"/>
<path d="M293.026 114.194V368.648H291.827V114.824L293.026 114.194Z" fill="#F5F7FF"/>
<path d="M300.407 113.185V368.648H299.208V111.893L300.407 113.185Z" fill="#F5F7FF"/>
<path d="M307.787 130.647V368.648H306.589V126.266C306.999 127.747 307.409 129.229 307.787 130.647Z" fill="#F5F7FF"/>
<path d="M315.168 159.046V368.648H313.97V154.129C314.064 154.57 314.19 154.98 314.285 155.421C314.348 155.705 314.443 156.02 314.506 156.303C314.569 156.556 314.632 156.776 314.695 157.028C314.853 157.69 315.01 158.384 315.168 159.046Z" fill="#F5F7FF"/>
<path d="M322.549 185.995V368.648H321.351V185.333L322.549 185.995Z" fill="#F5F7FF"/>
<path d="M329.93 190.092V368.648H328.731V189.399L329.93 190.092Z" fill="#F5F7FF"/>
<path d="M337.185 357.648V361.02H281.923C281.828 359.98 281.765 358.846 281.671 357.648H337.185Z" fill="#9494A1"/>
<path d="M337.185 346.9V350.272H281.355C281.324 349.201 281.292 348.066 281.261 346.9H337.185Z" fill="#9494A1"/>
<path d="M337.185 336.12V339.493H281.198C281.198 338.39 281.166 337.255 281.166 336.12H337.185Z" fill="#9494A1"/>
<path d="M337.185 325.341V328.713H281.166C281.166 327.61 281.198 326.475 281.198 325.341H337.185Z" fill="#9494A1"/>
<path d="M337.185 314.561V317.934H281.292C281.324 316.831 281.324 315.696 281.355 314.561H337.185Z" fill="#9494A1"/>
<path d="M337.185 303.782V307.154H281.481C281.513 306.051 281.544 304.916 281.544 303.782H337.185Z" fill="#9494A1"/>
<path d="M336.995 296.375H281.734C281.765 295.271 281.797 294.137 281.828 293.002H336.838C336.901 294.231 336.964 295.366 336.995 296.375Z" fill="#9494A1"/>
<path d="M336.333 285.595H282.018C282.049 284.492 282.081 283.357 282.112 282.223H336.112C336.175 283.389 336.27 284.492 336.333 285.595Z" fill="#9494A1"/>
<path d="M335.608 274.816H282.365C282.396 273.681 282.428 272.578 282.491 271.443H335.387C335.45 272.578 335.513 273.712 335.608 274.816Z" fill="#9494A1"/>
<path d="M334.819 264.036H282.743C282.775 262.901 282.838 261.798 282.869 260.663H334.598C334.661 261.767 334.725 262.901 334.819 264.036Z" fill="#9494A1"/>
<path d="M334.062 253.288H283.122C283.153 252.153 283.216 251.05 283.248 249.915H333.81C333.904 250.861 333.967 251.996 334.062 253.288Z" fill="#9494A1"/>
<path d="M333.936 239.136C333.873 240.365 333.81 241.5 333.778 242.508H283.563C283.595 241.374 283.658 240.271 283.689 239.136H333.936Z" fill="#9494A1"/>
<path d="M334.598 228.356C334.504 229.491 334.441 230.626 334.378 231.729H283.973C284.036 230.594 284.068 229.459 284.131 228.356H334.598Z" fill="#9494A1"/>
<path d="M335.387 217.577C335.292 218.68 335.229 219.815 335.135 220.949H284.446C284.51 219.815 284.541 218.68 284.604 217.577H335.387Z" fill="#9494A1"/>
<path d="M336.175 206.797C336.081 207.869 336.018 209.003 335.923 210.17H284.92C284.983 209.035 285.014 207.9 285.077 206.797H336.175Z" fill="#9494A1"/>
<path d="M337.027 196.018C336.964 196.9 336.869 198.035 336.775 199.39H285.424C285.487 198.255 285.519 197.121 285.582 196.018H337.027Z" fill="#9494A1"/>
<path d="M327.28 188.611H285.96C286.023 187.476 286.055 186.341 286.118 185.238H321.193L321.351 185.333L322.549 185.995L327.28 188.611Z" fill="#9494A1"/>
<path d="M319.3 177.831H286.497C286.56 176.696 286.623 175.562 286.654 174.458H318.638C318.89 175.719 319.111 176.822 319.3 177.831Z" fill="#9494A1"/>
<path d="M317.029 167.052H287.001C287.064 165.917 287.127 164.782 287.19 163.679H316.272C316.525 164.877 316.808 165.98 317.029 167.052Z" fill="#9494A1"/>
<path d="M314.506 156.272H287.569C287.632 155.137 287.695 154.003 287.758 152.899H313.686C313.78 153.309 313.875 153.719 314.001 154.097C314.096 154.538 314.222 154.948 314.317 155.389C314.348 155.705 314.411 155.988 314.506 156.272Z" fill="#9494A1"/>
<path d="M311.762 145.524H288.105C288.169 144.358 288.232 143.255 288.295 142.151H310.879C311.194 143.286 311.478 144.421 311.762 145.524Z" fill="#9494A1"/>
<path d="M308.923 134.744H288.705C288.768 133.578 288.831 132.443 288.894 131.372H308.008C308.292 132.507 308.608 133.641 308.923 134.744Z" fill="#9494A1"/>
<path d="M305.927 123.965H289.272C289.335 122.704 289.398 121.569 289.462 120.592H304.949C305.327 121.727 305.643 122.862 305.927 123.965Z" fill="#9494A1"/>
<path d="M300.407 113.185H294.981L298.609 111.263L299.208 111.893L300.407 113.185Z" fill="#9494A1"/>
<path d="M643.079 137.203H627.844V152.427H643.079V137.203Z" fill="#E1FCEB"/>
<path d="M643.079 169.573H627.844V184.797H643.079V169.573Z" fill="#E1FCEB"/>
<path d="M643.079 274.091H627.844V289.314H643.079V274.091Z" fill="#E1FCEB"/>
<path d="M466.949 118.638H451.714V133.862H466.949V118.638Z" fill="#E1FCEB"/>
<path d="M491.047 186.467H475.812V201.691H491.047V186.467Z" fill="#E1FCEB"/>
<path d="M513.315 283.2H498.081V298.423H513.315V283.2Z" fill="#E1FCEB"/>
<path d="M513.315 324.08H498.081V339.304H513.315V324.08Z" fill="#E1FCEB"/>
<path d="M362.923 303.939H350.054V316.799H362.923V303.939Z" fill="#E1FCEB"/>
<path d="M362.923 324.111H350.054V336.971H362.923V324.111Z" fill="#E1FCEB"/>
<path d="M362.923 344.315H350.054V357.175H362.923V344.315Z" fill="#E1FCEB"/>
<path d="M280.377 274.437H267.508V287.297H280.377V274.437Z" fill="#E1FCEB"/>
<path d="M154.903 272.609H142.034V285.469H154.903V272.609Z" fill="#E1FCEB"/>
<path d="M154.903 294.326H142.034V307.186H154.903V294.326Z" fill="#E1FCEB"/>
<path d="M154.903 323.67H142.034V336.53H154.903V323.67Z" fill="#E1FCEB"/>
<path d="M280.377 303.025H267.508V315.885H280.377V303.025Z" fill="#E1FCEB"/>
<path d="M280.377 336.751H267.508V349.61H280.377V336.751Z" fill="#E1FCEB"/>
<path d="M763.412 211.304H682.823V367.955H763.412V211.304Z" fill="#C9F0D3"/>
<path d="M255.144 329.249H239.278H228.144H141.277H139.006H52.139H41.0047H25.139H0V334.072C0 334.072 16.7488 334.166 25.139 340.155V389.388H40.1215H41.0047V388.537C53.5584 376.213 66.6484 367.387 79.076 361.052C79.833 360.674 80.59 360.295 81.347 359.917C85.0689 358.089 88.6963 356.482 92.2605 355.095C93.0175 354.78 93.7746 354.496 94.5316 354.212C98.3166 352.794 101.944 351.565 105.445 350.556C106.202 350.335 106.959 350.115 107.716 349.926C111.596 348.854 115.255 348.003 118.63 347.341C119.418 347.184 120.144 347.026 120.901 346.9C125.096 346.143 128.755 345.671 131.814 345.387C132.634 345.324 133.391 345.261 134.085 345.198C136.924 344.977 138.974 344.946 140.173 344.946C141.372 344.946 143.422 344.977 146.261 345.198C146.954 345.261 147.743 345.324 148.532 345.387C151.56 345.671 155.25 346.143 159.445 346.9C160.202 347.026 160.959 347.184 161.716 347.341C165.091 348.003 168.75 348.854 172.63 349.926C173.387 350.115 174.144 350.335 174.901 350.556C178.402 351.565 182.029 352.794 185.814 354.212C186.571 354.496 187.328 354.78 188.085 355.095C191.65 356.513 195.277 358.089 198.999 359.917C199.756 360.295 200.513 360.674 201.27 361.052C213.697 367.387 226.787 376.244 239.341 388.537V389.388H240.224H255.207V340.155C263.565 334.166 280.346 334.072 280.346 334.072V329.249H255.144ZM52.9907 365.969C45.389 370.256 41.0047 373.376 41.0047 373.376V373.407V336.089C41.0047 335.017 41.8879 334.135 42.9603 334.135H50.7196C51.7921 334.135 52.6752 335.017 52.6752 336.089V366L52.9907 365.969ZM65.8598 359.224C61.7909 361.178 58.132 363.101 54.9463 364.866V336.057C54.9463 334.986 55.8294 334.103 56.9019 334.103H63.8727C64.9451 334.103 65.8283 334.986 65.8283 336.057V359.224H65.8598ZM79.0444 353.393C75.1647 354.937 71.5374 356.545 68.1309 358.152V336.057C68.1309 334.986 69.014 334.103 70.0865 334.103H77.0573C78.1297 334.103 79.0129 334.986 79.0129 336.057V353.393H79.0444ZM92.229 348.57C88.4439 349.8 84.7851 351.123 81.3154 352.479V336.057C81.3154 334.986 82.1986 334.103 83.271 334.103H90.2418C91.3143 334.103 92.1974 334.986 92.1974 336.057V348.57H92.229ZM105.414 344.788C101.692 345.702 98.0327 346.742 94.5 347.845V336.057C94.5 334.986 95.3832 334.103 96.4556 334.103H103.458C104.53 334.103 105.414 334.986 105.414 336.057V344.788ZM118.598 342.077C114.908 342.676 111.249 343.401 107.685 344.221V336.057C107.685 334.986 108.568 334.103 109.64 334.103H116.611C117.683 334.103 118.567 334.986 118.567 336.057V342.077H118.598ZM131.783 340.533C128.092 340.785 124.465 341.195 120.869 341.731V336.057C120.869 334.986 121.752 334.103 122.825 334.103H129.796C130.868 334.103 131.751 334.986 131.751 336.057V340.533H131.783ZM146.229 340.407C144.589 340.312 142.917 340.281 141.277 340.249V340.218C140.898 340.218 140.52 340.218 140.141 340.249C139.763 340.249 139.384 340.218 139.006 340.218V340.249C137.334 340.281 135.694 340.344 134.054 340.407V336.057C134.054 334.986 134.937 334.103 136.009 334.103H139.006H141.277H144.273C145.346 334.103 146.229 334.986 146.229 336.057V340.407ZM159.414 341.731C155.849 341.195 152.19 340.785 148.5 340.533V336.057C148.5 334.986 149.383 334.103 150.456 334.103H157.426C158.499 334.103 159.382 334.986 159.382 336.057V341.731H159.414ZM172.598 344.221C169.034 343.401 165.407 342.676 161.685 342.077V336.057C161.685 334.986 162.568 334.103 163.64 334.103H170.611C171.683 334.103 172.567 334.986 172.567 336.057V344.221H172.598ZM185.783 347.845C182.25 346.742 178.623 345.702 174.869 344.788V336.057C174.869 334.986 175.752 334.103 176.825 334.103H183.796C184.868 334.103 185.751 334.986 185.751 336.057V347.845H185.783ZM198.967 352.479C195.498 351.123 191.839 349.8 188.054 348.57V336.057C188.054 334.986 188.937 334.103 190.009 334.103H196.98C198.053 334.103 198.936 334.986 198.936 336.057V352.479H198.967ZM212.12 358.152C208.714 356.576 205.087 354.969 201.207 353.393V336.057C201.207 334.986 202.09 334.103 203.162 334.103H210.133C211.206 334.103 212.089 334.986 212.089 336.057V358.152H212.12ZM225.305 364.866C222.119 363.101 218.46 361.178 214.391 359.224V336.057C214.391 334.986 215.275 334.103 216.347 334.103H223.318C224.39 334.103 225.273 334.986 225.273 336.057V364.866H225.305ZM239.278 373.376C239.278 373.344 234.894 370.256 227.292 365.969H227.608V336.057C227.608 334.986 228.491 334.103 229.563 334.103H237.322C238.395 334.103 239.278 334.986 239.278 336.057V373.376Z" fill="#807D8A"/>
<path d="M706.353 327.957C713.373 327.957 719.064 322.27 719.064 315.255C719.064 308.239 713.373 302.552 706.353 302.552C699.333 302.552 693.642 308.239 693.642 315.255C693.642 322.27 699.333 327.957 706.353 327.957Z" fill="#B7F796"/>
<path d="M693.642 362.47C702.543 362.47 709.759 355.259 709.759 346.364C709.759 337.469 702.543 330.258 693.642 330.258C684.74 330.258 677.523 337.469 677.523 346.364C677.523 355.259 684.74 362.47 693.642 362.47Z" fill="#B7F796"/>
<path d="M719.096 362.47C727.998 362.47 735.214 355.259 735.214 346.364C735.214 337.469 727.998 330.258 719.096 330.258C710.194 330.258 702.978 337.469 702.978 346.364C702.978 355.259 710.194 362.47 719.096 362.47Z" fill="#B7F796"/>
<path d="M695.881 339.776C701.664 339.776 706.353 335.091 706.353 329.312C706.353 323.533 701.664 318.848 695.881 318.848C690.097 318.848 685.409 323.533 685.409 329.312C685.409 335.091 690.097 339.776 695.881 339.776Z" fill="#B4EE72"/>
<path d="M716.825 339.777C722.608 339.777 727.297 335.091 727.297 329.312C727.297 323.533 722.608 318.848 716.825 318.848C711.041 318.848 706.353 323.533 706.353 329.312C706.353 335.091 711.041 339.777 716.825 339.777Z" fill="#B4EE72"/>
<path d="M707.867 316.484H704.839V370.76H707.867V316.484Z" fill="#90672D"/>
<path d="M713.103 330.857H717.393L714.365 333.914L707.141 341.1L704.997 338.957L710.075 333.914L713.103 330.857Z" fill="#90672D"/>
<path d="M699.634 330.857H695.345L698.373 333.914L705.564 341.1L707.709 338.957L702.662 333.914L699.634 330.857Z" fill="#90672D"/>
<path d="M713.103 344.693H717.393L714.365 347.719L707.141 354.906L704.997 352.762L710.075 347.719L713.103 344.693Z" fill="#90672D"/>
<path d="M699.634 344.693H695.345L698.373 347.719L705.564 354.906L707.709 352.762L702.662 347.719L699.634 344.693Z" fill="#90672D"/>
<path d="M595.136 327.957C602.156 327.957 607.847 322.27 607.847 315.255C607.847 308.239 602.156 302.552 595.136 302.552C588.115 302.552 582.424 308.239 582.424 315.255C582.424 322.27 588.115 327.957 595.136 327.957Z" fill="#B7F796"/>
<path d="M582.424 362.47C591.326 362.47 598.542 355.259 598.542 346.364C598.542 337.469 591.326 330.258 582.424 330.258C573.522 330.258 566.306 337.469 566.306 346.364C566.306 355.259 573.522 362.47 582.424 362.47Z" fill="#B7F796"/>
<path d="M607.878 362.47C616.78 362.47 623.996 355.259 623.996 346.364C623.996 337.469 616.78 330.258 607.878 330.258C598.977 330.258 591.761 337.469 591.761 346.364C591.761 355.259 598.977 362.47 607.878 362.47Z" fill="#B7F796"/>
<path d="M584.664 339.776C590.447 339.776 595.136 335.091 595.136 329.312C595.136 323.533 590.447 318.848 584.664 318.848C578.88 318.848 574.192 323.533 574.192 329.312C574.192 335.091 578.88 339.776 584.664 339.776Z" fill="#B4EE72"/>
<path d="M605.639 339.777C611.423 339.777 616.111 335.091 616.111 329.312C616.111 323.533 611.423 318.848 605.639 318.848C599.856 318.848 595.167 323.533 595.167 329.312C595.167 335.091 599.856 339.777 605.639 339.777Z" fill="#B4EE72"/>
<path d="M596.649 316.484H593.621V370.76H596.649V316.484Z" fill="#90672D"/>
<path d="M601.885 330.857H606.175L603.147 333.914L595.924 341.1L593.779 338.957L598.857 333.914L601.885 330.857Z" fill="#90672D"/>
<path d="M588.417 330.857H584.127L587.155 333.914L594.347 341.1L596.492 338.957L591.445 333.914L588.417 330.857Z" fill="#90672D"/>
<path d="M601.885 344.693H606.175L603.147 347.719L595.924 354.906L593.779 352.762L598.857 347.719L601.885 344.693Z" fill="#90672D"/>
<path d="M588.417 344.693H584.127L587.155 347.719L594.347 354.906L596.492 352.762L591.445 347.719L588.417 344.693Z" fill="#90672D"/>
<path d="M483.918 327.957C490.939 327.957 496.63 322.27 496.63 315.255C496.63 308.239 490.939 302.552 483.918 302.552C476.898 302.552 471.207 308.239 471.207 315.255C471.207 322.27 476.898 327.957 483.918 327.957Z" fill="#B7F796"/>
<path d="M471.207 362.47C480.109 362.47 487.325 355.259 487.325 346.364C487.325 337.469 480.109 330.258 471.207 330.258C462.305 330.258 455.089 337.469 455.089 346.364C455.089 355.259 462.305 362.47 471.207 362.47Z" fill="#B7F796"/>
<path d="M496.661 362.47C505.563 362.47 512.779 355.259 512.779 346.364C512.779 337.469 505.563 330.258 496.661 330.258C487.76 330.258 480.543 337.469 480.543 346.364C480.543 355.259 487.76 362.47 496.661 362.47Z" fill="#B7F796"/>
<path d="M473.446 339.776C479.23 339.776 483.918 335.091 483.918 329.312C483.918 323.533 479.23 318.848 473.446 318.848C467.663 318.848 462.974 323.533 462.974 329.312C462.974 335.091 467.663 339.776 473.446 339.776Z" fill="#B4EE72"/>
<path d="M494.422 339.777C500.205 339.777 504.894 335.091 504.894 329.312C504.894 323.533 500.205 318.848 494.422 318.848C488.638 318.848 483.95 323.533 483.95 329.312C483.95 335.091 488.638 339.777 494.422 339.777Z" fill="#B4EE72"/>
<path d="M485.432 316.484H482.404V370.76H485.432V316.484Z" fill="#90672D"/>
<path d="M490.668 330.857H494.958L491.93 333.914L484.707 341.1L482.594 338.957L487.64 333.914L490.668 330.857Z" fill="#90672D"/>
<path d="M477.2 330.857H472.91L475.938 333.914L483.161 341.1L485.274 338.957L480.228 333.914L477.2 330.857Z" fill="#90672D"/>
<path d="M490.668 344.693H494.958L491.93 347.719L484.707 354.906L482.594 352.762L487.64 347.719L490.668 344.693Z" fill="#90672D"/>
<path d="M477.2 344.693H472.91L475.938 347.719L483.161 354.906L485.274 352.762L480.228 347.719L477.2 344.693Z" fill="#90672D"/>
<path d="M372.733 327.957C379.753 327.957 385.444 322.27 385.444 315.255C385.444 308.239 379.753 302.552 372.733 302.552C365.712 302.552 360.021 308.239 360.021 315.255C360.021 322.27 365.712 327.957 372.733 327.957Z" fill="#B7F796"/>
<path d="M359.99 362.47C368.891 362.47 376.108 355.259 376.108 346.364C376.108 337.469 368.891 330.258 359.99 330.258C351.088 330.258 343.872 337.469 343.872 346.364C343.872 355.259 351.088 362.47 359.99 362.47Z" fill="#B7F796"/>
<path d="M385.444 362.47C394.346 362.47 401.562 355.259 401.562 346.364C401.562 337.469 394.346 330.258 385.444 330.258C376.542 330.258 369.326 337.469 369.326 346.364C369.326 355.259 376.542 362.47 385.444 362.47Z" fill="#B7F796"/>
<path d="M362.229 339.776C368.013 339.776 372.701 335.091 372.701 329.312C372.701 323.533 368.013 318.848 362.229 318.848C356.446 318.848 351.757 323.533 351.757 329.312C351.757 335.091 356.446 339.776 362.229 339.776Z" fill="#B4EE72"/>
<path d="M383.204 339.777C388.988 339.777 393.676 335.091 393.676 329.312C393.676 323.533 388.988 318.848 383.204 318.848C377.421 318.848 372.732 323.533 372.732 329.312C372.732 335.091 377.421 339.777 383.204 339.777Z" fill="#B4EE72"/>
<path d="M374.247 316.484H371.219V370.76H374.247V316.484Z" fill="#90672D"/>
<path d="M379.451 330.857H383.741L380.713 333.914L373.521 341.1L371.376 338.957L376.423 333.914L379.451 330.857Z" fill="#90672D"/>
<path d="M365.983 330.857H361.693L364.721 333.914L371.944 341.1L374.057 338.957L369.011 333.914L365.983 330.857Z" fill="#90672D"/>
<path d="M379.451 344.693H383.741L380.713 347.719L373.521 354.906L371.376 352.762L376.423 347.719L379.451 344.693Z" fill="#90672D"/>
<path d="M365.983 344.693H361.693L364.721 347.719L371.944 354.906L374.057 352.762L369.011 347.719L365.983 344.693Z" fill="#90672D"/>
</svg>
