<svg width="68" height="66" viewBox="0 0 68 66" fill="none" xmlns="http://www.w3.org/2000/svg">
<path d="M33.8065 56.3819H9.64459V61.9364C9.64459 63.6284 8.27292 64.9948 6.58549 64.9948H3.97541C2.33732 64.9948 1.00513 63.6678 1.00513 62.0252V48.6718H33.8114" stroke="#2150B2" stroke-width="2" stroke-miterlimit="10" stroke-linecap="round" stroke-linejoin="round"/>
<path d="M1 48.6766V43.3491C1 40.7494 3.10684 38.6431 5.70706 38.6431H21.0863H46.526H61.9053C64.5055 38.6431 66.6124 40.7494 66.6124 43.3491V48.6766" stroke="#2150B2" stroke-width="2" stroke-miterlimit="10" stroke-linecap="round" stroke-linejoin="round"/>
<path d="M9.62451 56.3771V53.2397" stroke="#2150B2" stroke-width="2" stroke-miterlimit="10" stroke-linecap="round" stroke-linejoin="round"/>
<path d="M41.6661 27.8006H24.6635C23.4892 27.8006 22.537 26.8486 22.537 25.6745V16.9186C22.537 15.3796 23.8988 14.1365 25.5714 14.1365H40.7533C42.4309 14.1365 43.7878 15.3796 43.7878 16.9186V25.6745C43.7878 26.8486 42.8404 27.8006 41.6661 27.8006Z" stroke="#2150B2" stroke-width="2" stroke-miterlimit="10" stroke-linecap="round" stroke-linejoin="round"/>
<path d="M33.806 48.6771H66.6123V62.0305C66.6123 63.6683 65.285 65.0001 63.642 65.0001H61.8016C60.1092 65.0001 58.7425 63.6288 58.7425 61.9417V56.3873H33.806" stroke="#2150B2" stroke-width="2" stroke-miterlimit="10" stroke-linecap="round" stroke-linejoin="round"/>
<path d="M58.6934 56.3771V53.2397" stroke="#2150B2" stroke-width="2" stroke-miterlimit="10" stroke-linecap="round" stroke-linejoin="round"/>
<path d="M65.4034 40.207L58.7425 24.0369V2.57874H52.279V6.24389C49.5209 4.5667 42.8797 1.0298 33.7123 1.0002C24.841 0.970602 18.3429 4.23621 15.5502 5.85421C15.5502 4.7591 15.5502 3.66891 15.5502 2.5738H8.87451V24.032L1.92249 40.5573" stroke="#2150B2" stroke-width="2" stroke-miterlimit="10" stroke-linecap="round" stroke-linejoin="round"/>
<path d="M15.5454 5.85425V11.5863" stroke="#2150B2" stroke-width="2" stroke-miterlimit="10" stroke-linecap="round" stroke-linejoin="round"/>
<path d="M52.2792 6.24365V10.8707" stroke="#2150B2" stroke-width="2" stroke-miterlimit="10" stroke-linecap="round" stroke-linejoin="round"/>
<path d="M8.86963 24.037H17.7804" stroke="#2150B2" stroke-width="2" stroke-miterlimit="10" stroke-linecap="round" stroke-linejoin="round"/>
<path d="M58.7429 24.037H48.2778" stroke="#2150B2" stroke-width="2" stroke-miterlimit="10" stroke-linecap="round" stroke-linejoin="round"/>
</svg>
