<svg width="70" height="66" viewBox="0 0 70 66" fill="none" xmlns="http://www.w3.org/2000/svg">
<path d="M9.78072 50.9848C9.70262 50.5749 9.66357 50.1504 9.66357 49.7161V10.5109C9.66357 5.25527 13.9247 1 19.1766 1H50.1903C55.4471 1 59.7034 5.26015 59.7034 10.5109V49.7161C59.7034 50.1504 59.6643 50.5749 59.5862 50.9848" stroke="#2150B2" stroke-width="2" stroke-miterlimit="10" stroke-linecap="round" stroke-linejoin="round"/>
<path d="M52.5287 56.8896H16.8341" stroke="#2150B2" stroke-width="2" stroke-miterlimit="10" stroke-linecap="round" stroke-linejoin="round"/>
<path d="M14.8619 31.7677H55.1203" stroke="#2150B2" stroke-width="2" stroke-miterlimit="10" stroke-linecap="round" stroke-linejoin="round"/>
<path d="M23.755 45.0118H15.0766C14.3201 45.0118 13.71 44.4018 13.71 43.6454V40.7712C13.71 40.0148 14.325 39.4048 15.0766 39.4048H23.755C24.5116 39.4048 25.1217 40.0196 25.1217 40.7712V43.6454C25.1266 44.4018 24.5116 45.0118 23.755 45.0118Z" stroke="#2150B2" stroke-width="2" stroke-miterlimit="10" stroke-linecap="round" stroke-linejoin="round"/>
<path d="M54.5979 45.0118H45.9146C45.1581 45.0118 44.548 44.4018 44.548 43.6454V40.7712C44.548 40.0148 45.163 39.4048 45.9146 39.4048H54.5979C55.3545 39.4048 55.9646 40.0196 55.9646 40.7712V43.6454C55.9646 44.4018 55.3545 45.0118 54.5979 45.0118Z" stroke="#2150B2" stroke-width="2" stroke-miterlimit="10" stroke-linecap="round" stroke-linejoin="round"/>
<path d="M9.65889 50.9849H9.17568C8.30686 50.9849 7.59912 51.6876 7.59912 52.5611V55.3133C7.59912 56.1819 8.30198 56.8895 9.17568 56.8895H60.4894C61.3582 56.8895 62.066 56.1868 62.066 55.3133V52.5562C62.066 51.6876 61.3631 50.98 60.4894 50.98H9.65889V50.9849Z" stroke="#2150B2" stroke-width="2" stroke-miterlimit="10" stroke-linecap="round" stroke-linejoin="round"/>
<path d="M28.8214 39.4048H41.1556" stroke="#2150B2" stroke-width="2" stroke-miterlimit="10" stroke-linecap="round" stroke-linejoin="round"/>
<path d="M28.8214 42.728H41.1556" stroke="#2150B2" stroke-width="2" stroke-miterlimit="10" stroke-linecap="round" stroke-linejoin="round"/>
<path d="M28.8214 45.9634H41.1556" stroke="#2150B2" stroke-width="2" stroke-miterlimit="10" stroke-linecap="round" stroke-linejoin="round"/>
<path d="M55.1203 31.7679V13.9172C55.1203 12.868 54.2417 12.014 53.163 12.014H16.8192C15.7356 12.014 14.8619 12.8631 14.8619 13.9172V31.7679" stroke="#2150B2" stroke-width="2" stroke-miterlimit="10" stroke-linecap="round" stroke-linejoin="round"/>
<path d="M16.131 65H13.383C12.2946 65 11.4111 64.1168 11.4111 63.0286V56.8896H18.103V63.0286C18.103 64.1168 17.2195 65 16.131 65Z" stroke="#2150B2" stroke-width="2" stroke-miterlimit="10" stroke-linecap="round" stroke-linejoin="round"/>
<path d="M54.9787 65H52.2307C51.1422 65 50.2588 64.1168 50.2588 63.0286V56.8896H56.9506V63.0286C56.9506 64.1168 56.0671 65 54.9787 65Z" stroke="#2150B2" stroke-width="2" stroke-miterlimit="10" stroke-linecap="round" stroke-linejoin="round"/>
<path d="M59.7085 31.7677H68.3722V21.7591C68.3722 20.91 67.684 20.217 66.8298 20.217H65.5852C64.7359 20.217 64.0428 20.9051 64.0428 21.7591V27.3661" stroke="#2150B2" stroke-width="2" stroke-miterlimit="10" stroke-linecap="round" stroke-linejoin="round"/>
<path d="M9.66374 31.7677H1V21.7591C1 20.91 1.68822 20.217 2.54239 20.217H3.78704C4.63633 20.217 5.32943 20.9051 5.32943 21.7591V27.3661" stroke="#2150B2" stroke-width="2" stroke-miterlimit="10" stroke-linecap="round" stroke-linejoin="round"/>
<path d="M25.9663 5.02124V7.90524H44.0113V5.02124" stroke="#2150B2" stroke-width="2" stroke-miterlimit="10" stroke-linecap="round" stroke-linejoin="round"/>
</svg>
