<svg width="41" height="66" viewBox="0 0 41 66" fill="none" xmlns="http://www.w3.org/2000/svg">
<path d="M15.6938 25.9625C16.4423 26.609 17.3811 27.0252 18.4838 27.2111V28.0745C18.4838 28.8493 19.1127 29.4736 19.8832 29.4736C20.6582 29.4736 21.2826 28.8449 21.2826 28.0745V27.1978C22.3543 27.0163 23.2356 26.6134 23.9087 25.998C24.7236 25.2542 25.1354 24.2579 25.1354 23.0404C25.1354 21.752 24.6882 20.8886 23.8556 20.1404" stroke="#2150B2" stroke-width="2" stroke-miterlimit="10" stroke-linecap="round" stroke-linejoin="round"/>
<path d="M23.8555 20.1447C23.1027 19.485 21.9911 18.9227 20.4589 18.4224C19.8832 18.232 19.2898 17.7981 19.1082 17.1871C18.9089 16.5141 19.2942 15.7969 20.0337 15.7969" stroke="#2150B2" stroke-width="2" stroke-miterlimit="10" stroke-linecap="round" stroke-linejoin="round"/>
<path d="M24.2233 13.9548C23.4748 13.3084 22.536 12.8923 21.4333 12.7063V11.843C21.4333 11.0681 20.8044 10.4438 20.0338 10.4438C19.2589 10.4438 18.6345 11.0726 18.6345 11.843V12.7196C17.5628 12.9011 16.6815 13.304 16.0083 13.9194C15.1935 14.6633 14.7816 15.6595 14.7816 16.8771C14.7816 17.9707 15.1138 19.0465 15.9242 19.8125C17.1731 20.9902 18.9134 21.2913 20.2686 22.2963C20.5741 22.5221 20.8354 22.8232 20.8266 23.2261C20.8177 23.7308 20.3837 24.1293 19.8833 24.1293" stroke="#2150B2" stroke-width="2" stroke-miterlimit="10" stroke-linecap="round" stroke-linejoin="round"/>
<path d="M37.9825 39.2407H3.25846C2.21776 39.2407 1.37634 40.082 1.37634 41.1224V45.9263C1.37634 46.9667 2.21776 47.808 3.25846 47.808H37.9825C39.0232 47.808 39.8646 46.9667 39.8646 45.9263V41.1224C39.8646 40.082 39.0232 39.2407 37.9825 39.2407Z" stroke="#2150B2" stroke-width="2" stroke-miterlimit="10" stroke-linecap="round" stroke-linejoin="round"/>
<path d="M7.11133 47.8124V42.5613" stroke="#2150B2" stroke-width="2" stroke-miterlimit="10" stroke-linecap="round" stroke-linejoin="round"/>
<path d="M16.1144 47.8124V42.5613" stroke="#2150B2" stroke-width="2" stroke-miterlimit="10" stroke-linecap="round" stroke-linejoin="round"/>
<path d="M25.5029 47.8124V42.5613" stroke="#2150B2" stroke-width="2" stroke-miterlimit="10" stroke-linecap="round" stroke-linejoin="round"/>
<path d="M33.9482 47.8124V42.5613" stroke="#2150B2" stroke-width="2" stroke-miterlimit="10" stroke-linecap="round" stroke-linejoin="round"/>
<path d="M37.9825 47.8123H3.25846C2.21776 47.8123 1.37634 48.6535 1.37634 49.694V54.4978C1.37634 55.5383 2.21776 56.3795 3.25846 56.3795H37.9825C39.0232 56.3795 39.8646 55.5383 39.8646 54.4978V49.694C39.8646 48.6535 39.0232 47.8123 37.9825 47.8123Z" stroke="#2150B2" stroke-width="2" stroke-miterlimit="10" stroke-linecap="round" stroke-linejoin="round"/>
<path d="M7.11133 56.3838V51.1328" stroke="#2150B2" stroke-width="2" stroke-miterlimit="10" stroke-linecap="round" stroke-linejoin="round"/>
<path d="M16.1144 56.3838V51.1328" stroke="#2150B2" stroke-width="2" stroke-miterlimit="10" stroke-linecap="round" stroke-linejoin="round"/>
<path d="M25.5029 56.3838V51.1328" stroke="#2150B2" stroke-width="2" stroke-miterlimit="10" stroke-linecap="round" stroke-linejoin="round"/>
<path d="M33.9482 56.3838V51.1328" stroke="#2150B2" stroke-width="2" stroke-miterlimit="10" stroke-linecap="round" stroke-linejoin="round"/>
<path d="M37.9825 56.4282H3.25846C2.21776 56.4282 1.37634 57.2695 1.37634 58.3099V63.1138C1.37634 64.1543 2.21776 64.9955 3.25846 64.9955H37.9825C39.0232 64.9955 39.8646 64.1543 39.8646 63.1138V58.3099C39.8646 57.2695 39.0232 56.4282 37.9825 56.4282Z" stroke="#2150B2" stroke-width="2" stroke-miterlimit="10" stroke-linecap="round" stroke-linejoin="round"/>
<path d="M7.11133 64.9998V59.7488" stroke="#2150B2" stroke-width="2" stroke-miterlimit="10" stroke-linecap="round" stroke-linejoin="round"/>
<path d="M16.1144 64.9998V59.7488" stroke="#2150B2" stroke-width="2" stroke-miterlimit="10" stroke-linecap="round" stroke-linejoin="round"/>
<path d="M25.5029 64.9998V59.7488" stroke="#2150B2" stroke-width="2" stroke-miterlimit="10" stroke-linecap="round" stroke-linejoin="round"/>
<path d="M33.9482 64.9998V59.7488" stroke="#2150B2" stroke-width="2" stroke-miterlimit="10" stroke-linecap="round" stroke-linejoin="round"/>
<path d="M9.69761 35.9022C4.46311 32.5285 1 26.6487 1 19.9587C1 9.48756 9.4895 1 19.9629 1C30.4364 1 38.9258 9.48756 38.9258 19.9587C38.9258 26.5956 35.5159 32.4355 30.3478 35.8225" stroke="#2150B2" stroke-width="2" stroke-miterlimit="10" stroke-linecap="round" stroke-linejoin="round"/>
<path d="M34.8073 19.9588C34.8073 28.1453 28.1468 34.8043 19.9584 34.8043C11.7701 34.8043 5.11401 28.1453 5.11401 19.9588C5.11401 11.7723 11.7745 5.11768 19.9584 5.11768" stroke="#2150B2" stroke-width="2" stroke-miterlimit="10" stroke-linecap="round" stroke-linejoin="round"/>
</svg>
