<svg width="24" height="24" viewBox="0 0 24 24" fill="none" xmlns="http://www.w3.org/2000/svg">
<path d="M22 24H2.00001C1.65301 24 1.33201 23.82 1.14901 23.526C0.967013 23.231 0.950013 22.863 1.10501 22.553L4.10501 16.553C4.35201 16.059 4.95201 15.859 5.44701 16.106C5.94101 16.353 6.14101 16.954 5.89401 17.448L3.61801 22H20.382L18.106 17.447C17.859 16.953 18.059 16.352 18.553 16.105C19.048 15.858 19.648 16.059 19.895 16.552L22.895 22.552C23.05 22.862 23.033 23.23 22.851 23.525C22.668 23.82 22.347 24 22 24Z" fill="#2150B2"/>
<path d="M12 0C8.067 0 4 2.992 4 8C4 12.6 10.544 19.327 11.29 20.08C11.478 20.269 11.733 20.375 12 20.375C12.267 20.375 12.522 20.269 12.71 20.08C13.456 19.327 20 12.6 20 8C20 2.992 15.933 0 12 0ZM12 10C10.895 10 10 9.105 10 8C10 6.895 10.895 6 12 6C13.105 6 14 6.895 14 8C14 9.105 13.105 10 12 10Z" fill="#2150B2"/>
</svg>
