<svg width="24" height="18" viewBox="0 0 24 18" fill="none" xmlns="http://www.w3.org/2000/svg">
<path d="M22.5981 3.63259V14.3695C22.5981 14.6442 22.5605 14.9064 22.4914 15.1592C22.1964 16.2516 21.2956 17.0944 20.1688 17.316C19.9774 17.3565 19.7796 17.3753 19.5756 17.3753H3.65023C3.43994 17.3753 3.23593 17.3534 3.0382 17.3128C1.91771 17.085 1.0232 16.2391 0.728167 15.1467C0.662256 14.9001 0.627731 14.638 0.627731 14.3695V3.63259C0.627731 3.49214 0.637147 3.35168 0.655979 3.21747C0.81291 2.10008 1.58501 1.1762 2.6239 0.804779C2.94404 0.686173 3.28929 0.623749 3.65023 0.623749H19.5756C19.9303 0.623749 20.2724 0.686173 20.5863 0.798536C21.6283 1.16372 22.4067 2.08447 22.5667 3.20187C22.5887 3.34232 22.5981 3.4859 22.5981 3.63259Z" fill="#1899D6"/>
<path d="M16.6881 7.44983L14.2556 9.20707L16.1137 10.5523H22.5981V12.4125H18.6905L22.4914 15.1592C22.1964 16.2516 21.2956 17.0944 20.1688 17.316L15.0434 13.6142V17.3753H13.1728V12.2596L11.6004 11.1266L10.053 12.244V17.3753H8.18241V13.5955L3.0382 17.3128C1.91771 17.085 1.0232 16.2391 0.728167 15.1467L4.51335 12.4125H0.627731V10.5523H7.09016L8.94823 9.20707L6.51266 7.44983H0.627731V5.58647H3.93584L0.655979 3.21747C0.81291 2.10008 1.58501 1.1762 2.6239 0.804779L8.18241 4.82177V0.623749H10.053V6.17325L11.6004 7.29065L13.1728 6.15453V0.623749H15.0434V4.80305L20.5863 0.798536C21.6283 1.16372 22.4067 2.08447 22.5667 3.20187L19.2649 5.58647H22.5981V7.44983H16.6881Z" fill="#EEEEEE"/>
<path d="M13.1728 7.44983V0.623749H10.053V7.44983H0.627731V10.5523H10.053V17.3753H13.1728V10.5523H22.5981V7.44983H13.1728Z" fill="#FF4B4B"/>
<path d="M19.5756 0.624241C19.9303 0.624241 20.2724 0.686665 20.5862 0.799029C21.6283 1.16421 22.4066 2.08497 22.5667 3.20236C22.5887 3.34281 22.5981 3.48639 22.5981 3.63308V14.37C22.5981 14.6447 22.5604 14.9069 22.4914 15.1597C22.1964 16.2521 21.2956 17.0948 20.1688 17.3165C19.9774 17.357 19.7796 17.3758 19.5756 17.3758H3.65022C3.43993 17.3758 3.23592 17.3539 3.03819 17.3133C1.9177 17.0855 1.02319 16.2396 0.728161 15.1472C0.66225 14.9006 0.627725 14.6385 0.627725 14.37V3.63308C0.627725 3.49263 0.637141 3.35218 0.655973 3.21796C0.812904 2.10057 1.58501 1.17669 2.62389 0.805271C2.94403 0.686665 3.28928 0.624241 3.65022 0.624241H19.5756ZM19.5756 0H3.65022C3.21709 0 2.79965 0.074909 2.40419 0.221606C1.13304 0.677302 0.222842 1.79157 0.0345249 3.13369C0.0125545 3.29287 0 3.46142 0 3.63308V14.37C0 14.6915 0.0408021 15.0068 0.122406 15.3064C0.477071 16.6235 1.57245 17.6504 2.91264 17.9251C3.15432 17.975 3.40227 18 3.65022 18H19.5756C19.8267 18 20.0715 17.975 20.3006 17.9282C21.6408 17.666 22.7425 16.6423 23.0971 15.322C23.1819 15.0099 23.2258 14.6915 23.2258 14.37V3.63308C23.2258 3.44581 23.2133 3.27415 23.1882 3.1056C22.9967 1.77285 22.0802 0.658575 20.7965 0.209121C20.4073 0.0717878 19.9962 0 19.5756 0Z" fill="white"/>
</svg>
