<svg width="74" height="41" viewBox="0 0 74 41" fill="none" xmlns="http://www.w3.org/2000/svg">
<path d="M3.20813 13.9587V26.911" stroke="#2150B2" stroke-width="2" stroke-miterlimit="10" stroke-linecap="round" stroke-linejoin="round"/>
<path d="M59.855 26.9174C65.5005 26.9174 66.6847 26.9174 72.3237 26.9174C72.6694 28.5492 72.9575 30.565 72.9959 32.8687C73.0343 35.6397 72.7142 38.0138 72.3237 39.8696H8.29041C8.54644 37.745 8.71284 35.3389 8.67444 32.6768C8.64243 30.5906 8.49523 28.658 8.29041 26.9174C20.9831 26.9174 27.9472 26.9174 40.6463 26.9174" stroke="#2150B2" stroke-width="2" stroke-miterlimit="10" stroke-linecap="round" stroke-linejoin="round"/>
<path d="M15.7665 26.911V39.8697" stroke="#2150B2" stroke-width="2" stroke-miterlimit="10" stroke-linecap="round" stroke-linejoin="round"/>
<path d="M67.0944 26.911V39.8697" stroke="#2150B2" stroke-width="2" stroke-miterlimit="10" stroke-linecap="round" stroke-linejoin="round"/>
<path d="M8.29041 13.9587H72.3237C72.7142 12.1029 73.0406 9.72231 72.9958 6.95779C72.9574 4.65403 72.6694 2.64463 72.3237 1C50.9771 1 29.6306 1 8.29041 1C8.50163 2.74702 8.64883 4.67323 8.67444 6.76582C8.70644 9.42155 8.54004 11.8341 8.29041 13.9587Z" stroke="#2150B2" stroke-width="2" stroke-miterlimit="10" stroke-linecap="round" stroke-linejoin="round"/>
<path d="M15.7665 1V13.9587" stroke="#2150B2" stroke-width="2" stroke-miterlimit="10" stroke-linecap="round" stroke-linejoin="round"/>
<path d="M63.7914 1V13.9587" stroke="#2150B2" stroke-width="2" stroke-miterlimit="10" stroke-linecap="round" stroke-linejoin="round"/>
<path d="M65.0395 13.9587C43.6929 13.9587 22.3464 13.9587 1.00623 13.9587" stroke="#2150B2" stroke-width="2" stroke-miterlimit="10" stroke-linecap="round" stroke-linejoin="round"/>
<path d="M65.0396 26.9174H62.2554" stroke="#2150B2" stroke-width="2" stroke-miterlimit="10" stroke-linecap="round" stroke-linejoin="round"/>
<path d="M31.0068 26.9174H3.20823H1" stroke="#2150B2" stroke-width="2" stroke-miterlimit="10" stroke-linecap="round" stroke-linejoin="round"/>
<path d="M62.2616 13.9587V26.911" stroke="#2150B2" stroke-width="2" stroke-miterlimit="10" stroke-linecap="round" stroke-linejoin="round"/>
<path d="M62.2618 23.0906H46.3751" stroke="#2150B2" stroke-width="2" stroke-miterlimit="10" stroke-linecap="round" stroke-linejoin="round"/>
<path d="M46.3751 23.0906V33.9375L50.9644 29.4963L55.3874 33.9375V23.0906H46.3751Z" stroke="#2150B2" stroke-width="2" stroke-miterlimit="10" stroke-linecap="round" stroke-linejoin="round"/>
</svg>
