<svg width="63" height="11" viewBox="0 0 63 11" fill="none" xmlns="http://www.w3.org/2000/svg">
<path d="M6.3916 8H5.03906L2.79785 4.76758L2.10938 5.3291V8H0.942383V0.861328H2.10938V4.26953C2.42839 3.87891 2.74577 3.50293 3.06152 3.1416L4.99023 0.861328H6.31836C5.07161 2.32617 4.17806 3.36947 3.6377 3.99121L6.3916 8ZM8.36426 8H7.2168V2.59961H8.36426V8ZM7.14844 1.16895C7.14844 0.963867 7.20378 0.80599 7.31445 0.695312C7.42839 0.584635 7.58952 0.529297 7.79785 0.529297C7.99967 0.529297 8.15592 0.584635 8.2666 0.695312C8.38053 0.80599 8.4375 0.963867 8.4375 1.16895C8.4375 1.36426 8.38053 1.51888 8.2666 1.63281C8.15592 1.74349 7.99967 1.79883 7.79785 1.79883C7.58952 1.79883 7.42839 1.74349 7.31445 1.63281C7.20378 1.51888 7.14844 1.36426 7.14844 1.16895ZM14.7607 8H13.6084V4.67969C13.6084 4.26302 13.5238 3.95215 13.3545 3.74707C13.1885 3.54199 12.9232 3.43945 12.5586 3.43945C12.0736 3.43945 11.7188 3.58268 11.4941 3.86914C11.2695 4.1556 11.1572 4.63574 11.1572 5.30957V8H10.0098V2.59961H10.9082L11.0693 3.30762H11.1279C11.2907 3.05046 11.5218 2.85189 11.8213 2.71191C12.1208 2.57194 12.4528 2.50195 12.8174 2.50195C14.113 2.50195 14.7607 3.16113 14.7607 4.47949V8ZM18.1787 8.09766C17.5049 8.09766 16.9792 7.85352 16.6016 7.36523C16.224 6.87695 16.0352 6.19173 16.0352 5.30957C16.0352 4.42415 16.2256 3.73568 16.6064 3.24414C16.9906 2.74935 17.5212 2.50195 18.1982 2.50195C18.9079 2.50195 19.4482 2.764 19.8193 3.28809H19.8779C19.8226 2.90072 19.7949 2.59473 19.7949 2.37012V0.402344H20.9473V8H20.0488L19.8486 7.29199H19.7949C19.4271 7.8291 18.8883 8.09766 18.1787 8.09766ZM18.4863 7.16992C18.9583 7.16992 19.3018 7.03809 19.5166 6.77441C19.7314 6.50749 19.8421 6.07617 19.8486 5.48047V5.31934C19.8486 4.639 19.738 4.1556 19.5166 3.86914C19.2952 3.58268 18.9486 3.43945 18.4766 3.43945C18.0729 3.43945 17.762 3.60384 17.5439 3.93262C17.3258 4.25814 17.2168 4.72363 17.2168 5.3291C17.2168 5.92806 17.3226 6.38542 17.5342 6.70117C17.7458 7.01367 18.0632 7.16992 18.4863 7.16992ZM24.9463 8.09766C24.1064 8.09766 23.4489 7.85352 22.9736 7.36523C22.5016 6.8737 22.2656 6.19824 22.2656 5.33887C22.2656 4.45671 22.4854 3.76335 22.9248 3.25879C23.3643 2.75423 23.9681 2.50195 24.7363 2.50195C25.4492 2.50195 26.0124 2.71842 26.4258 3.15137C26.8392 3.58431 27.0459 4.18001 27.0459 4.93848V5.55859H23.4473C23.4635 6.08268 23.6051 6.48633 23.8721 6.76953C24.139 7.04948 24.515 7.18945 25 7.18945C25.319 7.18945 25.6152 7.16016 25.8887 7.10156C26.1654 7.03971 26.4616 6.9388 26.7773 6.79883V7.73145C26.4974 7.86491 26.2142 7.95931 25.9277 8.01465C25.6413 8.06999 25.3141 8.09766 24.9463 8.09766ZM24.7363 3.37109C24.3717 3.37109 24.0788 3.48665 23.8574 3.71777C23.6393 3.94889 23.5091 4.28581 23.4668 4.72852H25.918C25.9115 4.28255 25.804 3.94564 25.5957 3.71777C25.3874 3.48665 25.1009 3.37109 24.7363 3.37109ZM31.0889 2.50195C31.32 2.50195 31.5104 2.51823 31.6602 2.55078L31.5479 3.62012C31.3851 3.58105 31.2158 3.56152 31.04 3.56152C30.5811 3.56152 30.2083 3.71126 29.9219 4.01074C29.6387 4.31022 29.4971 4.69922 29.4971 5.17773V8H28.3496V2.59961H29.248L29.3994 3.55176H29.458C29.637 3.22949 29.8698 2.97396 30.1562 2.78516C30.446 2.59635 30.7568 2.50195 31.0889 2.50195ZM37.2266 2.59961V3.22949L36.3037 3.40039C36.3883 3.51432 36.4583 3.6543 36.5137 3.82031C36.569 3.98633 36.5967 4.16211 36.5967 4.34766C36.5967 4.9043 36.4046 5.34212 36.0205 5.66113C35.6364 5.98014 35.1074 6.13965 34.4336 6.13965C34.2611 6.13965 34.1048 6.12663 33.9648 6.10059C33.7174 6.25358 33.5938 6.43262 33.5938 6.6377C33.5938 6.76139 33.6507 6.85417 33.7646 6.91602C33.8818 6.97786 34.0951 7.00879 34.4043 7.00879H35.3467C35.9424 7.00879 36.3949 7.13574 36.7041 7.38965C37.0133 7.64355 37.168 8.00977 37.168 8.48828C37.168 9.10026 36.9157 9.57227 36.4111 9.9043C35.9066 10.2363 35.1774 10.4023 34.2236 10.4023C33.488 10.4023 32.9264 10.2721 32.5391 10.0117C32.1517 9.7513 31.958 9.38021 31.958 8.89844C31.958 8.56641 32.0622 8.28646 32.2705 8.05859C32.4821 7.83398 32.7767 7.67773 33.1543 7.58984C33.0013 7.52474 32.8743 7.42057 32.7734 7.27734C32.6758 7.13086 32.627 6.97786 32.627 6.81836C32.627 6.61654 32.6839 6.44564 32.7979 6.30566C32.9118 6.16569 33.0811 6.02734 33.3057 5.89062C33.0257 5.77018 32.7979 5.57487 32.6221 5.30469C32.4495 5.03125 32.3633 4.71224 32.3633 4.34766C32.3633 3.76172 32.5472 3.30762 32.915 2.98535C33.2861 2.66309 33.8135 2.50195 34.4971 2.50195C34.6501 2.50195 34.8096 2.51335 34.9756 2.53613C35.1449 2.55566 35.2718 2.57682 35.3564 2.59961H37.2266ZM32.9834 8.83984C32.9834 9.08724 33.0941 9.27767 33.3154 9.41113C33.54 9.5446 33.8542 9.61133 34.2578 9.61133C34.8828 9.61133 35.3483 9.52181 35.6543 9.34277C35.9603 9.16374 36.1133 8.92611 36.1133 8.62988C36.1133 8.39551 36.0286 8.22786 35.8594 8.12695C35.6934 8.0293 35.3825 7.98047 34.9268 7.98047H34.0576C33.7288 7.98047 33.4668 8.05697 33.2715 8.20996C33.0794 8.36621 32.9834 8.57617 32.9834 8.83984ZM33.4766 4.34766C33.4766 4.6862 33.5628 4.94661 33.7354 5.12891C33.9111 5.3112 34.1618 5.40234 34.4873 5.40234C35.1514 5.40234 35.4834 5.04753 35.4834 4.33789C35.4834 3.98633 35.4004 3.71615 35.2344 3.52734C35.0716 3.33529 34.8226 3.23926 34.4873 3.23926C34.1553 3.23926 33.903 3.33366 33.7305 3.52246C33.5612 3.71126 33.4766 3.98633 33.4766 4.34766ZM41.6113 8L41.3818 7.24805H41.3428C41.0824 7.57682 40.8203 7.80143 40.5566 7.92188C40.293 8.03906 39.9544 8.09766 39.541 8.09766C39.0104 8.09766 38.5954 7.95443 38.2959 7.66797C37.9997 7.38151 37.8516 6.97624 37.8516 6.45215C37.8516 5.89551 38.0583 5.47559 38.4717 5.19238C38.8851 4.90918 39.515 4.75456 40.3613 4.72852L41.2939 4.69922V4.41113C41.2939 4.06608 41.2126 3.80892 41.0498 3.63965C40.8903 3.46712 40.6413 3.38086 40.3027 3.38086C40.026 3.38086 39.7607 3.42155 39.5068 3.50293C39.2529 3.58431 39.0088 3.68034 38.7744 3.79102L38.4033 2.9707C38.6963 2.81771 39.0169 2.70215 39.3652 2.62402C39.7135 2.54264 40.0423 2.50195 40.3516 2.50195C41.0384 2.50195 41.556 2.65169 41.9043 2.95117C42.2559 3.25065 42.4316 3.72103 42.4316 4.3623V8H41.6113ZM39.9023 7.21875C40.319 7.21875 40.6527 7.10319 40.9033 6.87207C41.1572 6.6377 41.2842 6.31055 41.2842 5.89062V5.42188L40.5908 5.45117C40.0505 5.4707 39.6566 5.56185 39.4092 5.72461C39.165 5.88411 39.043 6.12988 39.043 6.46191C39.043 6.7028 39.1146 6.88997 39.2578 7.02344C39.401 7.15365 39.6159 7.21875 39.9023 7.21875ZM46.7725 2.50195C47.0036 2.50195 47.194 2.51823 47.3438 2.55078L47.2314 3.62012C47.0687 3.58105 46.8994 3.56152 46.7236 3.56152C46.2646 3.56152 45.8919 3.71126 45.6055 4.01074C45.3223 4.31022 45.1807 4.69922 45.1807 5.17773V8H44.0332V2.59961H44.9316L45.083 3.55176H45.1416C45.3206 3.22949 45.5534 2.97396 45.8398 2.78516C46.1296 2.59635 46.4404 2.50195 46.7725 2.50195ZM50.3613 7.16992C50.6413 7.16992 50.9212 7.12598 51.2012 7.03809V7.90234C51.0742 7.95768 50.9098 8.00326 50.708 8.03906C50.5094 8.07812 50.3027 8.09766 50.0879 8.09766C49.0007 8.09766 48.457 7.52474 48.457 6.37891V3.46875H47.7197V2.96094L48.5107 2.54102L48.9014 1.39844H49.6094V2.59961H51.1475V3.46875H49.6094V6.35938C49.6094 6.63607 49.6777 6.84115 49.8145 6.97461C49.9544 7.10482 50.1367 7.16992 50.3613 7.16992ZM54.6436 8.09766C53.8037 8.09766 53.1462 7.85352 52.6709 7.36523C52.1989 6.8737 51.9629 6.19824 51.9629 5.33887C51.9629 4.45671 52.1826 3.76335 52.6221 3.25879C53.0615 2.75423 53.6654 2.50195 54.4336 2.50195C55.1465 2.50195 55.7096 2.71842 56.123 3.15137C56.5365 3.58431 56.7432 4.18001 56.7432 4.93848V5.55859H53.1445C53.1608 6.08268 53.3024 6.48633 53.5693 6.76953C53.8363 7.04948 54.2122 7.18945 54.6973 7.18945C55.0163 7.18945 55.3125 7.16016 55.5859 7.10156C55.8626 7.03971 56.1589 6.9388 56.4746 6.79883V7.73145C56.1947 7.86491 55.9115 7.95931 55.625 8.01465C55.3385 8.06999 55.0114 8.09766 54.6436 8.09766ZM54.4336 3.37109C54.069 3.37109 53.776 3.48665 53.5547 3.71777C53.3366 3.94889 53.2064 4.28581 53.1641 4.72852H55.6152C55.6087 4.28255 55.5013 3.94564 55.293 3.71777C55.0846 3.48665 54.7982 3.37109 54.4336 3.37109ZM62.7979 8H61.6455V4.67969C61.6455 4.26302 61.5609 3.95215 61.3916 3.74707C61.2256 3.54199 60.9603 3.43945 60.5957 3.43945C60.1107 3.43945 59.7559 3.58268 59.5312 3.86914C59.3066 4.1556 59.1943 4.63574 59.1943 5.30957V8H58.0469V2.59961H58.9453L59.1064 3.30762H59.165C59.3278 3.05046 59.5589 2.85189 59.8584 2.71191C60.1579 2.57194 60.4899 2.50195 60.8545 2.50195C62.1501 2.50195 62.7979 3.16113 62.7979 4.47949V8Z" fill="#2150B2"/>
</svg>
