<svg width="24" height="24" viewBox="0 0 24 24" fill="none" xmlns="http://www.w3.org/2000/svg">
<path d="M12 0.5C5.65 0.5 0.5 5.65 0.5 12C0.5 18.35 5.65 23.5 12 23.5C18.35 23.5 23.5 18.35 23.5 12C23.5 5.65 18.35 0.5 12 0.5ZM14.35 15.65C14.55 15.85 14.55 16.15 14.35 16.35C14.25 16.45 14.15 16.5 14 16.5C13.85 16.5 13.75 16.45 13.65 16.35L9.65 12.35C9.45 12.15 9.45 11.85 9.65 11.65L13.65 7.65C13.85 7.45 14.15 7.45 14.35 7.65C14.55 7.85 14.55 8.15 14.35 8.35L10.7 12L14.35 15.65Z" fill="#A7B0B4"/>
</svg>
