<svg width="91" height="32" viewBox="0 0 91 32" fill="none" xmlns="http://www.w3.org/2000/svg">
<path d="M39.162 11.4267C39.0018 11.7771 38.7757 12.0708 38.4837 12.3075C38.1916 12.5443 37.8431 12.7243 37.438 12.8569C37.0329 12.98 36.5901 13.0463 36.1002 13.0463C35.4125 13.0463 34.7342 12.9232 34.0748 12.6864C33.4153 12.4496 32.8124 12.0802 32.266 11.5877L33.4436 10.1764C33.8581 10.5174 34.282 10.7826 34.7154 10.9815C35.1487 11.1804 35.6292 11.2846 36.1473 11.2846C36.5618 11.2846 36.8822 11.2088 37.1082 11.0573C37.3343 10.9057 37.4474 10.6974 37.4474 10.4322V10.4037C37.4474 10.2711 37.4191 10.1575 37.372 10.0628C37.3249 9.96805 37.2307 9.87333 37.0988 9.78808C36.9669 9.70284 36.7785 9.61759 36.543 9.53235C36.3075 9.4471 35.9966 9.35239 35.6198 9.25767C35.1582 9.14401 34.7436 9.02088 34.3762 8.8788C34.0088 8.73673 33.6885 8.56624 33.4342 8.36733C33.1704 8.16843 32.9725 7.91269 32.8312 7.6096C32.6899 7.30651 32.6146 6.92764 32.6146 6.48247V6.45406C32.6146 6.0373 32.6899 5.66791 32.8501 5.32693C33.0008 4.99542 33.2175 4.7018 33.5001 4.46501C33.7827 4.21875 34.1125 4.03878 34.4987 3.90618C34.885 3.77358 35.3089 3.70728 35.7799 3.70728C36.4394 3.70728 37.0517 3.81146 37.6075 4.01037C38.1634 4.20927 38.6721 4.49342 39.1337 4.86282L38.0974 6.36881C37.6923 6.09414 37.2967 5.87629 36.9104 5.71527C36.5242 5.55425 36.1379 5.47848 35.7517 5.47848C35.3654 5.47848 35.0734 5.55425 34.8755 5.7058C34.6777 5.85734 34.5835 6.04678 34.5835 6.2741V6.30251C34.5835 6.45406 34.6118 6.57719 34.6683 6.68138C34.7248 6.78557 34.8284 6.88975 34.9697 6.975C35.1205 7.06024 35.3183 7.14549 35.5727 7.22126C35.827 7.29704 36.1473 7.39175 36.5336 7.49594C36.9952 7.61907 37.4003 7.75168 37.7583 7.90322C38.1163 8.05477 38.4177 8.23473 38.6627 8.45258C38.9076 8.66096 39.096 8.91669 39.2185 9.20084C39.341 9.48499 39.4069 9.82597 39.4069 10.2238V10.2522C39.4069 10.6689 39.3315 11.0762 39.162 11.4267Z" fill="#17387D"/>
<path d="M48.3565 12.1167C48.1022 12.3156 47.829 12.4861 47.5369 12.6282C47.2449 12.7703 46.9151 12.8839 46.5572 12.9502C46.1992 13.026 45.8035 13.0639 45.3702 13.0639C44.7107 13.0639 44.0889 12.9408 43.5237 12.704C42.9585 12.4577 42.4686 12.1262 42.0541 11.7094C41.6396 11.2927 41.3193 10.7907 41.0837 10.2224C40.8482 9.6541 40.7352 9.03844 40.7352 8.39437V8.36595C40.7352 7.71241 40.8482 7.10622 41.0837 6.53792C41.3193 5.96962 41.6396 5.4771 42.0541 5.0414C42.4686 4.61518 42.9585 4.2742 43.5425 4.02793C44.1172 3.78167 44.7578 3.65854 45.4549 3.65854C45.8789 3.65854 46.2651 3.69643 46.6137 3.76273C46.9623 3.82903 47.2826 3.92375 47.5652 4.04688C47.8478 4.17001 48.1116 4.31208 48.3565 4.49204C48.6015 4.66253 48.8181 4.85197 49.0254 5.06034L47.7536 6.52845C47.405 6.20641 47.0376 5.96015 46.6796 5.77072C46.3122 5.59076 45.8977 5.49604 45.4455 5.49604C45.0687 5.49604 44.7201 5.57181 44.3904 5.71389C44.0701 5.86543 43.7875 6.06434 43.5614 6.32007C43.3259 6.57581 43.1469 6.8789 43.015 7.21988C42.8831 7.56086 42.8171 7.93026 42.8171 8.31859V8.34701C42.8171 8.73535 42.8831 9.10474 43.015 9.45519C43.1469 9.80564 43.3259 10.1087 43.552 10.3645C43.7781 10.6202 44.0513 10.8286 44.381 10.9801C44.7013 11.1317 45.0593 11.2074 45.4455 11.2074C45.9637 11.2074 46.397 11.1127 46.755 10.9233C47.113 10.7339 47.471 10.4687 47.8195 10.1466L49.0819 11.4348C48.8464 11.6905 48.6109 11.9178 48.3565 12.1167Z" fill="#17387D"/>
<path d="M56.3265 12.9133V9.25724H52.6618V12.9038H50.6741V3.81104H52.6618V7.41027H56.3265V3.81104H58.3143V12.9038H56.3265V12.9133Z" fill="#17387D"/>
<path d="M69.3365 10.1844C69.0916 10.7527 68.7618 11.2453 68.3379 11.681C67.914 12.1072 67.4053 12.4482 66.8118 12.6944C66.2182 12.9407 65.5776 13.0638 64.8805 13.0638C64.1834 13.0638 63.5428 12.9407 62.9587 12.6944C62.3746 12.4482 61.8659 12.1167 61.4419 11.6904C61.018 11.2737 60.6883 10.7812 60.4433 10.2129C60.2078 9.64455 60.0854 9.03837 60.0854 8.38482V8.35641C60.0854 7.70286 60.2078 7.09667 60.4433 6.52837C60.6883 5.96007 61.018 5.46755 61.4419 5.03185C61.8659 4.59615 62.3746 4.26465 62.9681 4.01838C63.5616 3.77212 64.2022 3.64899 64.8993 3.64899C65.5965 3.64899 66.2371 3.77212 66.8212 4.01838C67.4053 4.26465 67.914 4.59615 68.3379 5.02238C68.7618 5.43913 69.0916 5.93166 69.3365 6.49996C69.572 7.06826 69.6945 7.67445 69.6945 8.32799V8.35641C69.6945 9.00995 69.5814 9.61614 69.3365 10.1844ZM67.6219 8.36588C67.6219 7.97754 67.556 7.60814 67.4241 7.25769C67.2922 6.90724 67.1038 6.60415 66.8589 6.34841C66.6139 6.09268 66.3219 5.8843 65.9827 5.73275C65.6436 5.58121 65.2762 5.50543 64.8805 5.50543C64.4754 5.50543 64.108 5.58121 63.7783 5.72328C63.4486 5.87483 63.1659 6.07373 62.9304 6.32947C62.6949 6.58521 62.5065 6.8883 62.3746 7.22928C62.2427 7.57026 62.1768 7.93965 62.1768 8.32799V8.35641C62.1768 8.74475 62.2427 9.11414 62.3746 9.46459C62.5065 9.81504 62.6949 10.1181 62.9398 10.3739C63.1848 10.6296 63.4768 10.838 63.8065 10.9895C64.1363 11.1411 64.5037 11.2169 64.9088 11.2169C65.3044 11.2169 65.6718 11.1411 66.011 10.999C66.3501 10.8475 66.6328 10.6486 66.8683 10.3928C67.1038 10.1371 67.2922 9.83399 67.4241 9.49301C67.556 9.15203 67.6219 8.78263 67.6219 8.39429V8.36588Z" fill="#17387D"/>
<path d="M80.3211 10.1844C80.0761 10.7527 79.7464 11.2453 79.3225 11.681C78.8985 12.1072 78.3898 12.4482 77.7963 12.6944C77.2028 12.9407 76.5622 13.0638 75.8651 13.0638C75.1679 13.0638 74.5273 12.9407 73.9432 12.6944C73.3591 12.4482 72.8504 12.1167 72.4265 11.6904C72.0026 11.2737 71.6728 10.7812 71.4279 10.2129C71.1924 9.64455 71.0699 9.03837 71.0699 8.38482V8.35641C71.0699 7.70286 71.1924 7.09667 71.4279 6.52837C71.6728 5.96007 72.0026 5.46755 72.4265 5.03185C72.8504 4.59615 73.3591 4.26465 73.9527 4.01838C74.5462 3.77212 75.1868 3.64899 75.8839 3.64899C76.581 3.64899 77.2216 3.77212 77.8057 4.01838C78.3898 4.26465 78.8985 4.59615 79.3225 5.02238C79.7464 5.43913 80.0761 5.93166 80.3211 6.49996C80.5566 7.06826 80.679 7.67445 80.679 8.32799V8.35641C80.679 9.00995 80.5566 9.61614 80.3211 10.1844ZM78.5971 8.36588C78.5971 7.97754 78.5311 7.60814 78.3992 7.25769C78.2673 6.90724 78.0789 6.60415 77.834 6.34841C77.5891 6.09268 77.297 5.8843 76.9579 5.73275C76.6187 5.58121 76.2513 5.50543 75.8556 5.50543C75.4505 5.50543 75.0831 5.58121 74.7534 5.72328C74.4237 5.87483 74.1411 6.07373 73.9055 6.32947C73.67 6.58521 73.4816 6.8883 73.3497 7.22928C73.2178 7.57026 73.1519 7.93965 73.1519 8.32799V8.35641C73.1519 8.74475 73.2178 9.11414 73.3497 9.46459C73.4816 9.81504 73.67 10.1181 73.915 10.3739C74.1599 10.6296 74.4519 10.838 74.7817 10.9895C75.1114 11.1411 75.4788 11.2169 75.8839 11.2169C76.2796 11.2169 76.647 11.1411 76.9861 10.999C77.3253 10.8475 77.6079 10.6486 77.8434 10.3928C78.0789 10.1371 78.2673 9.83399 78.3992 9.49301C78.5311 9.15203 78.5971 8.78263 78.5971 8.39429V8.36588Z" fill="#17387D"/>
<path d="M82.4502 12.9134V3.82056H84.438V11.1043H88.9505V12.9134H82.4502Z" fill="#17387D"/>
<path d="M33.0197 15.1665H36.8727V20.3949H41.8186V15.1665H45.6717V29.1372H41.8186V23.8331H36.8727V29.1372H33.0197V15.1665Z" fill="#2150B2"/>
<path d="M48.121 15.1665H59.294V18.4627H51.927V20.5749H58.5969V23.6247H51.927V25.8506H59.3882V29.1467H48.121V15.1665Z" fill="#2150B2"/>
<path d="M61.3572 15.1665H67.9234C70.0431 15.1665 71.5127 15.7254 72.4454 16.682C73.2555 17.4776 73.6795 18.5574 73.6795 19.9308V19.9687C73.6795 22.0998 72.549 23.5205 70.825 24.2593L74.1411 29.1278H69.6945L66.8966 24.8939H66.8589H65.2103V29.1278H61.3572V15.1665ZM67.7538 21.8725C69.0633 21.8725 69.817 21.2379 69.817 20.2149V20.177C69.817 19.0783 69.0256 18.5195 67.735 18.5195H65.2103V21.8725H67.7538Z" fill="#2150B2"/>
<path d="M75.1585 22.1945V22.1566C75.1585 18.1501 78.371 14.8918 82.6574 14.8918C86.9438 14.8918 90.1186 18.1027 90.1186 22.1187V22.1566C90.1186 26.1631 86.9061 29.4214 82.6197 29.4214C78.3333 29.4214 75.1585 26.2105 75.1585 22.1945ZM86.1902 22.1945V22.1566C86.1902 20.1391 84.7394 18.3869 82.6197 18.3869C80.5189 18.3869 79.1058 20.1013 79.1058 22.1187V22.1566C79.1058 24.1741 80.5566 25.9263 82.6574 25.9263C84.7865 25.9263 86.1902 24.212 86.1902 22.1945Z" fill="#2150B2"/>
<path d="M27.2824 8.3753L24.7576 9.8434C23.9192 10.3265 22.8923 10.3265 22.0633 9.8434L14.1499 5.24965L15.8174 4.28354C17.1269 3.52581 18.5965 3.09959 20.1038 3.04276L27.273 7.21028C27.7346 7.45655 27.7346 8.11009 27.2824 8.3753Z" fill="#17387D"/>
<path d="M14.1499 26.7503L12.473 27.7259C11.1635 28.4836 9.69391 28.9099 8.18659 28.9667L1.01743 24.8086C0.565235 24.5434 0.565235 23.8994 1.01743 23.6342L3.53276 22.1566C4.3712 21.6735 5.39806 21.6735 6.22708 22.1566L14.1499 26.7503Z" fill="#17387D"/>
<path d="M20.1132 3.0333C18.6059 3.09013 17.1269 3.51635 15.8268 4.27409L14.1593 5.2402L9.35478 8.02486C7.74383 8.96256 7.53658 11.2073 8.94027 12.4292L10.8338 14.0773L4.87994 10.6201L2.02546 8.96256C1.12107 8.44162 1.12107 7.13453 2.02546 6.61359L12.8028 0.362291C13.6412 -0.120764 14.6681 -0.120764 15.4971 0.362291L17.4472 1.48942L19.0393 2.40817L20.1132 3.0333Z" fill="#2150B2"/>
<path d="M26.265 25.3864L15.4877 31.6377C14.6493 32.1208 13.6224 32.1208 12.7934 31.6377L10.2686 30.1696L9.26061 29.5824L8.18665 28.9572C9.69396 28.9004 11.173 28.4742 12.4731 27.7164L14.15 26.7409L18.9357 23.9657C20.5466 23.028 20.7539 20.7832 19.3502 19.5613L17.4566 17.9133L23.4105 21.3704L26.2744 23.028C27.1694 23.5584 27.1694 24.8655 26.265 25.3864Z" fill="#2150B2"/>
<path d="M2.02546 11.6525C1.12107 11.1221 0 11.7756 0 12.827V16V19.173C0 20.2149 1.12107 20.8684 2.02546 20.3475L7.48948 17.1745C8.38445 16.6535 8.38445 15.3465 7.48948 14.8255L2.02546 11.6525Z" fill="#2150B2"/>
<path d="M26.2744 11.6525C27.1694 11.1316 28.2999 11.7851 28.2999 12.827V16V19.173C28.2999 20.2149 27.1788 20.8685 26.2744 20.3475L20.8104 17.1745C19.9154 16.6536 19.9154 15.3465 20.8104 14.8255L26.2744 11.6525Z" fill="#2150B2"/>
</svg>
