<svg width="12" height="12" viewBox="0 0 12 12" fill="none" xmlns="http://www.w3.org/2000/svg">
<path d="M3.75 7.5C4.16421 7.5 4.5 7.16421 4.5 6.75C4.5 6.33579 4.16421 6 3.75 6C3.33579 6 3 6.33579 3 6.75C3 7.16421 3.33579 7.5 3.75 7.5Z" fill="#223944"/>
<path d="M8.25 7.5C8.66421 7.5 9 7.16421 9 6.75C9 6.33579 8.66421 6 8.25 6C7.83579 6 7.5 6.33579 7.5 6.75C7.5 7.16421 7.83579 7.5 8.25 7.5Z" fill="#223944"/>
<path d="M6 0C2.69175 0 0 2.69175 0 6C0 9.30825 2.69175 12 6 12C9.30825 12 12 9.30825 12 6C12 2.69175 9.30825 0 6 0ZM6 10.5C3.51825 10.5 1.5 8.48175 1.5 6C1.5 5.57775 1.56225 5.17125 1.67175 4.7835C3.24075 4.125 5.4945 5.32125 7.9095 3.1365C8.75775 4.479 9.76275 5.06475 10.4438 5.322C10.4768 5.54325 10.5 5.769 10.5 6C10.5 8.48175 8.48175 10.5 6 10.5Z" fill="#223944"/>
</svg>
