<svg width="67" height="66" viewBox="0 0 67 66" fill="none" xmlns="http://www.w3.org/2000/svg">
<path d="M33.007 32.9998H1V64.9998H33.007V32.9998Z" stroke="#2150B2" stroke-width="2" stroke-miterlimit="10" stroke-linecap="round" stroke-linejoin="round"/>
<path d="M65.0142 32.9998H33.0071V64.9998H65.0142V32.9998Z" stroke="#2150B2" stroke-width="2" stroke-miterlimit="10" stroke-linecap="round" stroke-linejoin="round"/>
<path d="M18.2383 30.4089V1H50.2454V30.4089" stroke="#2150B2" stroke-width="2" stroke-miterlimit="10" stroke-linecap="round" stroke-linejoin="round"/>
<path d="M12.6842 45.8478L18.2384 40.2607V57.7051" stroke="#2150B2" stroke-width="2" stroke-miterlimit="10" stroke-linecap="round" stroke-linejoin="round"/>
<path d="M39.8742 24.4266H29.7664L38.083 15.2335C40.699 12.34 39.0299 7.55315 35.1498 7.16766C35.0131 7.15302 34.8765 7.14815 34.7349 7.14327C33.2561 7.10911 31.787 7.68978 30.7719 8.77303C29.8933 9.7099 29.4248 10.9493 29.4248 12.2277" stroke="#2150B2" stroke-width="2" stroke-miterlimit="10" stroke-linecap="round" stroke-linejoin="round"/>
<path d="M45.3159 52.1962C45.3159 55.2411 47.7807 57.7052 50.8262 57.7052C53.8668 57.7052 56.3364 55.2411 56.3364 52.1962C56.3364 49.1563 53.8717 46.6872 50.8262 46.6872C52.6467 46.6872 54.1206 45.2136 54.1206 43.3935C54.1206 41.5735 52.6467 40.0999 50.8262 40.0999C49.0057 40.0999 47.5317 41.5735 47.5317 43.3935" stroke="#2150B2" stroke-width="2" stroke-miterlimit="10" stroke-linecap="round" stroke-linejoin="round"/>
</svg>
