<svg width="12" height="12" viewBox="0 0 12 12" fill="none" xmlns="http://www.w3.org/2000/svg">
<path d="M11.25 1.5H0.75C0.3 1.5 0 1.8 0 2.25V9.75C0 10.2 0.3 10.5 0.75 10.5H11.25C11.7 10.5 12 10.2 12 9.75V2.25C12 1.8 11.7 1.5 11.25 1.5ZM8.325 9H3.675C3.375 7.95 2.55 7.125 1.5 6.825V5.175C2.55 4.875 3.375 4.05 3.675 3H8.4C8.7 4.05 9.525 4.875 10.575 5.175V6.9C9.45 7.125 8.625 7.95 8.325 9Z" fill="#223944"/>
<path d="M6 7.5C6.82843 7.5 7.5 6.82843 7.5 6C7.5 5.17157 6.82843 4.5 6 4.5C5.17157 4.5 4.5 5.17157 4.5 6C4.5 6.82843 5.17157 7.5 6 7.5Z" fill="#223944"/>
</svg>
