<svg width="16" height="16" viewBox="0 0 16 16" fill="none" xmlns="http://www.w3.org/2000/svg">
<path d="M6 6C6.55228 6 7 5.55228 7 5C7 4.44772 6.55228 4 6 4C5.44772 4 5 4.44772 5 5C5 5.55228 5.44772 6 6 6Z" fill="#64747C"/>
<path d="M16 12H10V14H16V12Z" fill="#64747C"/>
<path d="M8 14H2V2H14V8H16V1C16 0.734784 15.8946 0.48043 15.7071 0.292893C15.5196 0.105357 15.2652 0 15 0L1 0C0.734784 0 0.48043 0.105357 0.292893 0.292893C0.105357 0.48043 0 0.734784 0 1L0 15C0 15.2652 0.105357 15.5196 0.292893 15.7071C0.48043 15.8946 0.734784 16 1 16H8V14Z" fill="#64747C"/>
<path d="M11.628 9.257L10 6L7 10L5 8L3 12H9.141C9.3028 11.3757 9.61361 10.8 10.0468 10.3223C10.4799 9.84454 11.0225 9.47899 11.628 9.257Z" fill="#64747C"/>
</svg>
