<svg width="16" height="16" viewBox="0 0 16 16" fill="none" xmlns="http://www.w3.org/2000/svg">
<path d="M15 4H1C0.4 4 0 4.4 0 5V15C0 15.6 0.4 16 1 16H15C15.6 16 16 15.6 16 15V5C16 4.4 15.6 4 15 4ZM11.1 14H4.9C4.5 12.6 3.4 11.5 2 11.1V8.9C3.4 8.5 4.5 7.4 4.9 6H11.2C11.6 7.4 12.7 8.5 14.1 8.9V11.2C12.6 11.5 11.5 12.6 11.1 14Z" fill="#64747C"/>
<path d="M8 12C9.10457 12 10 11.1046 10 10C10 8.89543 9.10457 8 8 8C6.89543 8 6 8.89543 6 10C6 11.1046 6.89543 12 8 12Z" fill="#64747C"/>
<path d="M14 0H2V2H14V0Z" fill="#64747C"/>
</svg>
