<svg width="46" height="66" viewBox="0 0 46 66" fill="none" xmlns="http://www.w3.org/2000/svg">
<path d="M31.7321 13.875H33.0806L39.1969 22.5008H1L7.12016 13.875H13.1514H24.0008" stroke="#2150B2" stroke-width="2" stroke-miterlimit="10" stroke-linecap="round" stroke-linejoin="round"/>
<path d="M1 22.5006V65H39.1969V22.5006" stroke="#2150B2" stroke-width="2" stroke-miterlimit="10" stroke-linecap="round" stroke-linejoin="round"/>
<path d="M4.59717 17.429H18.9277" stroke="#2150B2" stroke-width="2" stroke-miterlimit="10" stroke-linecap="round" stroke-linejoin="round"/>
<path d="M26.605 16.8919V15.5746V4.61178V2.77305C26.605 1.79188 27.397 1 28.3784 1H44.9423V3.56109H30.2485C29.8389 3.56109 29.5105 3.89326 29.5105 4.30273V15.5862V16.888" stroke="#2150B2" stroke-width="2" stroke-miterlimit="10" stroke-linecap="round" stroke-linejoin="round"/>
<path d="M31.0905 16.6252C31.8826 16.8338 32.3733 17.1235 32.3733 17.4442C32.3733 18.0815 30.4415 18.5953 28.0575 18.5953C25.6736 18.5953 23.7417 18.0777 23.7417 17.4442C23.7417 17.1506 24.1513 16.8841 24.8236 16.6832" stroke="#2150B2" stroke-width="2" stroke-miterlimit="10" stroke-linecap="round" stroke-linejoin="round"/>
<path d="M22.328 46.1688C22.4168 46.134 22.5096 46.1263 22.5984 46.1456C22.7723 46.1842 22.9114 46.331 22.9577 46.4971C23.0041 46.6632 22.9461 46.8139 22.8805 46.9645C22.7491 47.2619 22.5598 47.5207 22.3473 47.7641L22.1387 47.4782" stroke="#2150B2" stroke-width="2" stroke-miterlimit="10" stroke-linecap="round" stroke-linejoin="round"/>
<path d="M17.3321 46.1688C17.2432 46.134 17.1505 46.1263 17.0616 46.1456C16.8877 46.1842 16.7486 46.331 16.7023 46.4971C16.6559 46.6632 16.7139 46.8139 16.7795 46.9645C16.9109 47.2619 17.1002 47.5207 17.3127 47.7641L17.5214 47.4782" stroke="#2150B2" stroke-width="2" stroke-miterlimit="10" stroke-linecap="round" stroke-linejoin="round"/>
<path d="M11.9075 53.3808C12.1818 54.0105 12.8193 55.49 14.2836 56.5175C14.8168 56.8922 15.2457 57.0583 15.35 57.0969C16.5555 57.5527 17.904 57.4368 19.0708 56.8922C19.5499 56.6681 20.1063 56.6681 20.5854 56.8922C21.7522 57.433 23.1045 57.5527 24.3061 57.0969C24.4066 57.0583 24.8393 56.8922 25.3725 56.5175C26.8369 55.49 27.4744 54.0066 27.7487 53.3808C30.4727 47.1268 31.8366 45.7092 31.6588 42.2828C31.6318 41.7304 31.5545 41.2784 31.4425 40.6565C30.9595 37.937 28.6528 35.685 25.643 35.2408C24.2327 35.0322 22.865 35.2176 21.7484 35.797C21.7368 35.8047 21.729 35.8086 21.7174 35.8125C21.1147 36.1292 20.4772 36.2992 19.8281 36.3262C19.1829 36.2992 18.5415 36.1254 17.9387 35.8125C17.9271 35.8047 17.9194 35.8009 17.9078 35.797C16.7873 35.2137 15.4234 35.0322 14.0132 35.2408C11.0033 35.685 8.69669 37.937 8.21373 40.6565C8.10168 41.2784 8.02438 41.7304 7.99734 42.2828C7.8196 45.7092 9.18352 47.1268 11.9075 53.3808Z" stroke="#2150B2" stroke-width="2" stroke-miterlimit="10" stroke-linecap="round" stroke-linejoin="round"/>
<path d="M20.79 32.3399C20.79 32.3399 22.3316 27.2872 27.4279 29.5045C27.4279 29.5045 31.2761 31.5132 31.6663 31.5479C31.6702 31.5479 31.6741 31.548 31.6741 31.5518C31.6895 31.6059 29.8311 32.5871 28.0885 32.73C26.0987 32.8961 25.6544 31.8531 23.8771 31.9497C23 31.9961 21.7559 32.3244 20.2877 33.6532C20.4539 33.2167 20.6239 32.7764 20.79 32.3399Z" stroke="#2150B2" stroke-width="2" stroke-miterlimit="10" stroke-linecap="round" stroke-linejoin="round"/>
<path d="M20.2877 33.6567C20.2877 33.6567 19.7275 34.889 20.0173 36.2063" stroke="#2150B2" stroke-width="2" stroke-miterlimit="10" stroke-linecap="round" stroke-linejoin="round"/>
<path d="M23.0503 40.8533C25.1908 41.058 26.7324 43.1478 26.462 45.4462C26.4272 45.7514 26.377 46.0682 26.319 46.3888C26.0679 47.764 25.6544 48.946 25.2062 49.9195C24.5146 51.426 23.0387 52.3144 21.4893 52.1638L20.9755 52.1135" stroke="#2150B2" stroke-width="2" stroke-miterlimit="10" stroke-linecap="round" stroke-linejoin="round"/>
<path d="M16.6519 40.8533C14.5114 41.058 12.9698 43.1478 13.2403 45.4462C13.275 45.7514 13.3253 46.0682 13.3832 46.3888C13.6344 47.764 14.0478 48.946 14.496 49.9195C15.1876 51.426 16.6635 52.3144 18.2128 52.1638L18.7267 52.1135" stroke="#2150B2" stroke-width="2" stroke-miterlimit="10" stroke-linecap="round" stroke-linejoin="round"/>
</svg>
