<svg width="78" height="66" viewBox="0 0 78 66" fill="none" xmlns="http://www.w3.org/2000/svg">
<path d="M53.1167 25.618V28.5986" stroke="#2150B2" stroke-width="2" stroke-miterlimit="10" stroke-linecap="round" stroke-linejoin="round"/>
<path d="M48.0138 24.1421L46.188 27.0335" stroke="#2150B2" stroke-width="2" stroke-miterlimit="10" stroke-linecap="round" stroke-linejoin="round"/>
<path d="M44.4871 20.1667L39.106 22.7266" stroke="#2150B2" stroke-width="2" stroke-miterlimit="10" stroke-linecap="round" stroke-linejoin="round"/>
<path d="M43.6312 14.926L40.6714 14.5695" stroke="#2150B2" stroke-width="2" stroke-miterlimit="10" stroke-linecap="round" stroke-linejoin="round"/>
<path d="M45.7064 10.0378L41.0848 6.27649" stroke="#2150B2" stroke-width="2" stroke-miterlimit="10" stroke-linecap="round" stroke-linejoin="round"/>
<path d="M50.0749 7.01106L49.1263 4.18738" stroke="#2150B2" stroke-width="2" stroke-miterlimit="10" stroke-linecap="round" stroke-linejoin="round"/>
<path d="M55.3813 6.78641L56.7935 1" stroke="#2150B2" stroke-width="2" stroke-miterlimit="10" stroke-linecap="round" stroke-linejoin="round"/>
<path d="M59.9888 9.43211L62.4707 7.03625" stroke="#2150B2" stroke-width="2" stroke-miterlimit="10" stroke-linecap="round" stroke-linejoin="round"/>
<path d="M54.5537 22.9975C50.7238 23.7926 46.9759 21.3325 46.1842 17.5035C45.389 13.6744 47.8496 9.92728 51.6795 9.13579C55.5094 8.3443 59.2573 10.8008 60.049 14.6299C60.8442 18.4589 58.3837 22.206 54.5537 22.9975Z" stroke="#2150B2" stroke-width="2" stroke-miterlimit="10" stroke-linecap="round" stroke-linejoin="round"/>
<path d="M62.4705 14.1274L68.3045 12.9188" stroke="#2150B2" stroke-width="2" stroke-miterlimit="10" stroke-linecap="round" stroke-linejoin="round"/>
<path d="M62.0605 19.425L65.3877 20.6729" stroke="#2150B2" stroke-width="2" stroke-miterlimit="10" stroke-linecap="round" stroke-linejoin="round"/>
<path d="M58.8831 23.6819L62.4812 28.4308" stroke="#2150B2" stroke-width="2" stroke-miterlimit="10" stroke-linecap="round" stroke-linejoin="round"/>
<path d="M51.3444 65H27.5054" stroke="#2150B2" stroke-width="2" stroke-miterlimit="10" stroke-linecap="round" stroke-linejoin="round"/>
<path d="M28.1792 45.2162C29.8124 40.5814 34.2379 37.2515 39.4265 37.2515C43.3385 37.2515 46.8154 39.1446 48.9906 42.061" stroke="#2150B2" stroke-width="2" stroke-miterlimit="10" stroke-linecap="round" stroke-linejoin="round"/>
<path d="M31.0823 61.4274H47.7714V49.1664C47.7714 44.5601 44.0342 40.8237 39.4268 40.8237C34.8195 40.8237 31.0823 44.5601 31.0823 49.1664V61.4274V61.4274Z" stroke="#2150B2" stroke-width="2" stroke-miterlimit="10" stroke-linecap="round" stroke-linejoin="round"/>
<path d="M42.8288 48.1936C43.1319 50.0725 41.8553 51.8445 39.9724 52.1475C38.0931 52.4506 36.3208 51.1742 36.0177 49.2917C35.7146 47.4129 36.9912 45.6409 38.8741 45.3379C40.7534 45.0348 42.5257 46.3148 42.8288 48.1936Z" stroke="#2150B2" stroke-width="2" stroke-miterlimit="10" stroke-linecap="round" stroke-linejoin="round"/>
<path d="M11.5009 48.1863L11.7434 49.6766L5.75602 50.6427L5.54206 49.32L5.14623 46.8707C4.96436 45.7334 3.89098 44.9597 2.75341 45.1451C1.61584 45.3269 0.842014 46.4001 1.02745 47.5374L2.09726 54.1545L28.2792 49.9297" stroke="#2150B2" stroke-width="2" stroke-miterlimit="10" stroke-linecap="round" stroke-linejoin="round"/>
<path d="M65.5763 39.462L65.8188 40.9522L71.8062 39.9861L71.5923 38.6633L71.1964 36.2176C71.0146 35.0803 71.7848 34.0107 72.9224 33.8253C74.06 33.6435 75.1298 34.4136 75.3152 35.5509L76.385 42.168L50.2031 46.3928" stroke="#2150B2" stroke-width="2" stroke-miterlimit="10" stroke-linecap="round" stroke-linejoin="round"/>
<path d="M19.5886 21.233C19.6742 21.1367 20.2376 20.5306 21.1612 20.5306C22.0849 20.5306 22.6483 21.1367 22.7339 21.233" stroke="#2150B2" stroke-width="2" stroke-miterlimit="10" stroke-linecap="round" stroke-linejoin="round"/>
<path d="M22.7302 21.233C22.8158 21.1367 23.3792 20.5306 24.3029 20.5306C25.2265 20.5306 25.7899 21.1367 25.8755 21.233" stroke="#2150B2" stroke-width="2" stroke-miterlimit="10" stroke-linecap="round" stroke-linejoin="round"/>
<path d="M30.7681 25.5147C30.8537 25.4185 31.4171 24.8124 32.3407 24.8124C33.2643 24.8124 33.8277 25.4185 33.9133 25.5147" stroke="#2150B2" stroke-width="2" stroke-miterlimit="10" stroke-linecap="round" stroke-linejoin="round"/>
<path d="M33.9136 25.5147C33.9992 25.4185 34.5626 24.8124 35.4862 24.8124C36.4098 24.8124 36.9732 25.4185 37.0588 25.5147" stroke="#2150B2" stroke-width="2" stroke-miterlimit="10" stroke-linecap="round" stroke-linejoin="round"/>
<path d="M14.8706 28.9694C14.9562 28.8732 15.5196 28.2671 16.4432 28.2671C17.3668 28.2671 17.9303 28.8732 18.0159 28.9694" stroke="#2150B2" stroke-width="2" stroke-miterlimit="10" stroke-linecap="round" stroke-linejoin="round"/>
<path d="M18.0161 28.9694C18.1017 28.8732 18.6651 28.2671 19.5887 28.2671C20.5124 28.2671 21.0758 28.8732 21.1614 28.9694" stroke="#2150B2" stroke-width="2" stroke-miterlimit="10" stroke-linecap="round" stroke-linejoin="round"/>
</svg>
