<svg width="337" height="180" viewBox="0 0 337 180" fill="none" xmlns="http://www.w3.org/2000/svg">
<path d="M277.093 126.689H34.6014C15.4922 126.689 0 111.186 0 92.063C0 72.9402 15.4922 57.437 34.6014 57.437H277.099C296.208 57.437 311.7 72.9402 311.7 92.063C311.694 111.186 296.202 126.689 277.093 126.689Z" fill="#2E54A5"/>
<path d="M78.1546 86.5618L66.9852 84.9365L61.994 74.8156C61.5317 74.0342 60.5259 73.7717 59.7451 74.2343C59.5077 74.378 59.3078 74.5781 59.1641 74.8156L54.1666 84.9365L42.9972 86.5618C42.1351 86.6869 41.5354 87.487 41.6604 88.3497C41.7104 88.6935 41.8728 89.0123 42.1164 89.2561L50.1999 97.139L48.2946 108.273C48.1446 109.129 48.7256 109.948 49.5814 110.098C49.925 110.154 50.2748 110.098 50.5809 109.942L60.5697 104.684L70.5584 109.942C71.3268 110.348 72.2826 110.048 72.6886 109.279C72.851 108.973 72.9072 108.623 72.8448 108.279L70.9395 97.1453L79.0229 89.2624C79.6476 88.656 79.6601 87.6558 79.0479 87.0307C78.8168 86.7744 78.5044 86.6118 78.1546 86.5618Z" fill="#F5C348"/>
<path d="M128.13 86.5618L116.96 84.9365L111.969 74.8156C111.507 74.0342 110.501 73.7717 109.72 74.2343C109.483 74.378 109.283 74.5781 109.139 74.8156L104.142 84.9365L92.9722 86.5618C92.1101 86.6869 91.5104 87.487 91.6354 88.3497C91.6853 88.6935 91.8478 89.0123 92.0914 89.2561L100.175 97.139L98.2695 108.273C98.1196 109.129 98.7006 109.948 99.5564 110.098C99.9 110.154 100.25 110.098 100.556 109.942L110.545 104.684L120.533 109.942C121.302 110.348 122.258 110.048 122.664 109.279C122.826 108.973 122.882 108.623 122.82 108.279L120.914 97.1453L128.998 89.2624C129.623 88.656 129.635 87.6558 129.023 87.0307C128.792 86.7744 128.479 86.6118 128.13 86.5618Z" fill="#F5C348"/>
<path d="M178.111 86.5618L166.941 84.9365L161.95 74.8156C161.488 74.0342 160.482 73.7717 159.701 74.2343C159.464 74.378 159.264 74.5781 159.12 74.8156L154.123 84.9365L142.953 86.5618C142.091 86.6869 141.492 87.487 141.617 88.3497C141.667 88.6935 141.829 89.0123 142.073 89.2561L150.156 97.139L148.251 108.273C148.101 109.129 148.682 109.948 149.538 110.098C149.881 110.154 150.231 110.098 150.537 109.942L160.526 104.684L170.515 109.942C171.283 110.348 172.239 110.048 172.645 109.279C172.807 108.973 172.863 108.623 172.801 108.279L170.896 97.1453L178.979 89.2624C179.604 88.656 179.616 87.6558 179.004 87.0307C178.767 86.7744 178.454 86.6118 178.111 86.5618Z" fill="#F5C348"/>
<path d="M228.086 86.5618L216.916 84.9365L211.925 74.8156C211.463 74.0342 210.457 73.7717 209.676 74.2343C209.439 74.378 209.239 74.5781 209.095 74.8156L204.098 84.9365L192.928 86.5618C192.066 86.6869 191.467 87.487 191.592 88.3497C191.642 88.6935 191.804 89.0123 192.048 89.2561L200.131 97.139L198.226 108.273C198.076 109.129 198.657 109.948 199.513 110.098C199.856 110.154 200.206 110.098 200.512 109.942L210.501 104.684L220.49 109.942C221.258 110.348 222.214 110.048 222.62 109.279C222.782 108.973 222.838 108.623 222.776 108.279L220.871 97.1453L228.954 89.2624C229.579 88.656 229.591 87.6558 228.979 87.0307C228.748 86.7744 228.429 86.6118 228.086 86.5618Z" fill="#F5C348"/>
<path d="M278.061 86.5618L266.891 84.9365L261.9 74.8156C261.438 74.0342 260.432 73.7717 259.651 74.2343C259.414 74.378 259.214 74.5781 259.07 74.8156L254.073 84.9365L242.903 86.5618C242.041 86.6869 241.442 87.487 241.567 88.3497C241.617 88.6935 241.779 89.0123 242.023 89.2561L250.106 97.139L248.201 108.273C248.051 109.129 248.632 109.948 249.488 110.098C249.831 110.154 250.181 110.098 250.487 109.942L260.476 104.684L270.465 109.942C271.233 110.348 272.189 110.048 272.595 109.279C272.757 108.973 272.813 108.623 272.751 108.279L270.846 97.1453L278.929 89.2624C279.554 88.656 279.566 87.6558 278.954 87.0307C278.723 86.7744 278.404 86.6118 278.061 86.5618Z" fill="#F5C348"/>
<path d="M335.326 139.685L320.658 125.007L334.439 119.1C334.864 118.918 335.126 118.487 335.095 118.025C335.063 117.562 334.745 117.168 334.301 117.049L295.065 106.141C294.684 106.035 294.278 106.141 294.003 106.422C293.728 106.703 293.615 107.104 293.722 107.485L304.622 146.749C304.747 147.193 305.141 147.512 305.597 147.543C306.072 147.574 306.49 147.312 306.671 146.887L312.575 133.096L327.242 147.774C328.354 148.887 329.816 149.444 331.284 149.444C332.752 149.444 334.208 148.887 335.326 147.774C336.407 146.693 337 145.255 337 143.73C337 142.205 336.4 140.761 335.326 139.685Z" fill="#15274C"/>
<path d="M152.717 11.5462H50.6934C48.8318 11.5462 47.3263 10.0396 47.3263 8.1767C47.3263 6.31381 48.8318 4.80725 50.6934 4.80725H152.711C154.573 4.80725 156.078 6.31381 156.078 8.1767C156.084 10.0333 154.573 11.5462 152.717 11.5462Z" fill="#BFCBE4"/>
<path d="M106.303 23.1548H50.6934C48.8318 23.1548 47.3263 21.6482 47.3263 19.7853C47.3263 17.9225 48.8318 16.4159 50.6934 16.4159H106.303C108.165 16.4159 109.67 17.9225 109.67 19.7853C109.67 21.6482 108.165 23.1548 106.303 23.1548Z" fill="#BFCBE4"/>
<path d="M130.422 34.7636H50.6934C48.8318 34.7636 47.3263 33.257 47.3263 31.3941C47.3263 29.5312 48.8318 28.0247 50.6934 28.0247H130.416C132.278 28.0247 133.783 29.5312 133.783 31.3941C133.789 33.257 132.278 34.7636 130.422 34.7636Z" fill="#BFCBE4"/>
<path d="M104.46 46.3784H50.6934C48.8318 46.3784 47.3263 44.8719 47.3263 43.009C47.3263 41.1461 48.8318 39.6395 50.6934 39.6395H104.46C106.322 39.6395 107.827 41.1461 107.827 43.009C107.833 44.8656 106.322 46.3784 104.46 46.3784Z" fill="#BFCBE4"/>
<path d="M129.004 144.493H50.6934C48.8318 144.493 47.3263 142.986 47.3263 141.123C47.3263 139.26 48.8318 137.754 50.6934 137.754H129.004C130.866 137.754 132.371 139.26 132.371 141.123C132.371 142.98 130.866 144.493 129.004 144.493Z" fill="#BFCBE4"/>
<path d="M152.049 156.101H50.6934C48.8318 156.101 47.3263 154.595 47.3263 152.732C47.3263 150.869 48.8318 149.362 50.6934 149.362H152.049C153.91 149.362 155.416 150.869 155.416 152.732C155.416 154.595 153.91 156.101 152.049 156.101Z" fill="#BFCBE4"/>
<path d="M114.174 167.716H50.6934C48.8318 167.716 47.3263 166.21 47.3263 164.347C47.3263 162.484 48.8318 160.977 50.6934 160.977H114.174C116.036 160.977 117.541 162.484 117.541 164.347C117.541 166.203 116.036 167.716 114.174 167.716Z" fill="#BFCBE4"/>
<path d="M127.767 179.325H50.6934C48.8318 179.325 47.3263 177.818 47.3263 175.955C47.3263 174.093 48.8318 172.586 50.6934 172.586H127.767C129.629 172.586 131.134 174.093 131.134 175.955C131.134 177.818 129.629 179.325 127.767 179.325Z" fill="#BFCBE4"/>
<path d="M195.433 0C183.552 0 173.919 9.63951 173.919 21.5295C173.919 33.4195 183.552 43.059 195.433 43.059C207.315 43.059 216.948 33.4195 216.948 21.5295C216.948 9.63951 207.309 0 195.433 0ZM184.676 18.8352C184.676 17.3474 185.882 16.1471 187.362 16.1471C188.849 16.1471 190.049 17.3536 190.049 18.8352C190.049 20.3167 188.843 21.5232 187.362 21.5232C185.876 21.5295 184.676 20.323 184.676 18.8352ZM195.433 34.0884C191.473 34.0884 188.262 30.8752 188.262 26.9119H202.605C202.599 30.8752 199.394 34.0884 195.433 34.0884ZM203.498 21.5295C202.011 21.5295 200.812 20.323 200.812 18.8414C200.812 17.3599 202.018 16.1534 203.498 16.1534C204.979 16.1534 206.184 17.3599 206.184 18.8414C206.184 20.323 204.985 21.5295 203.498 21.5295Z" fill="#F5C348"/>
<path d="M272.407 0.987695C269.028 1.00645 265.804 2.38173 263.443 4.80099C258.639 -0.168796 250.712 -0.300074 245.746 4.50718C243.309 6.86392 241.935 10.1083 241.929 13.4965C241.929 24.9364 261.475 41.0023 262.306 41.6774C262.968 42.215 263.912 42.215 264.574 41.6774C265.405 41.0023 284.951 24.9302 284.951 13.4965C284.932 6.57636 279.316 0.981443 272.407 0.987695Z" fill="#FF4545"/>
<path d="M199.032 154.882H195.446C194.459 154.882 193.653 155.682 193.653 156.676V178.2C193.653 179.187 194.453 179.994 195.446 179.994H200.824V156.676C200.824 155.689 200.025 154.882 199.032 154.882Z" fill="#748EC3"/>
<path d="M232.883 153.326C232.371 153.169 231.84 153.088 231.303 153.088H220.546V147.706C220.546 140.848 215.904 138.841 213.449 138.735C212.962 138.716 212.487 138.898 212.131 139.229C211.775 139.567 211.582 140.035 211.582 140.523V148.843L204.41 157.451V179.987H226.33C228.698 180 230.791 178.456 231.478 176.187L236.444 160.04C237.319 157.214 235.719 154.201 232.883 153.326Z" fill="#748EC3"/>
</svg>
