<svg width="23" height="24" viewBox="0 0 23 24" fill="none" xmlns="http://www.w3.org/2000/svg">
<path d="M11.5 23.5C17.85 23.5 23 18.35 23 12C23 5.65 17.85 0.5 11.5 0.499999C5.15 0.499998 1.5605e-06 5.65 1.00536e-06 12C4.50227e-07 18.35 5.15 23.5 11.5 23.5ZM9.15 8.35C8.95 8.15 8.95 7.85 9.15 7.65C9.25 7.55 9.35 7.5 9.5 7.5C9.65 7.5 9.75 7.55 9.85 7.65L13.85 11.65C14.05 11.85 14.05 12.15 13.85 12.35L9.85 16.35C9.65 16.55 9.35 16.55 9.15 16.35C8.95 16.15 8.95 15.85 9.15 15.65L12.8 12L9.15 8.35Z" fill="#2150B2"/>
</svg>
