<?xml version="1.0" encoding="UTF-8" standalone="no"?>
<!-- Created with Inkscape (http://www.inkscape.org/) -->
<svg
   xmlns:svg="http://www.w3.org/2000/svg"
   xmlns="http://www.w3.org/2000/svg"
   xmlns:xlink="http://www.w3.org/1999/xlink"
   version="1.0"
   width="492.81949"
   height="487.81949"
   id="svg2">
  <defs
     id="defs4" />
  <g
     transform="translate(801.74805,-113.43363)"
     id="layer1">
    <path
       d="M -288.57144 390.93362 A 272.85715 272.85715 0 1 1  -834.28574,390.93362 A 272.85715 272.85715 0 1 1  -288.57144 390.93362 z"
       transform="matrix(0.8994074,0,0,0.8902451,-867.97556,-90.593122)"
       style="fill:#ffffff;fill-opacity:1;stroke:#000000;stroke-width:2.23510003;stroke-miterlimit:4;stroke-dasharray:none"
       id="path2160" />
    <path
       d="M -288.57144 390.93362 A 272.85715 272.85715 0 1 1  -834.28574,390.93362 A 272.85715 272.85715 0 1 1  -288.57144 390.93362 z"
       transform="matrix(0.7076039,0,0,0.7076039,-975.65955,-13.47822)"
       style="fill:#ffffff;fill-opacity:1;stroke:#ffffff;stroke-opacity:1"
       id="path3134" />
    <text
       transform="matrix(-0.9659258,0.258819,-0.258819,-0.9659258,-2629.3271,870.84454)"
       style="font-size:12px;font-style:normal;font-weight:normal;line-height:125%;fill:#000000;fill-opacity:1;stroke:none;stroke-width:1px;stroke-linecap:butt;stroke-linejoin:miter;stroke-opacity:1;font-family:Bitstream Vera Sans"
       id="text3136"
       xml:space="preserve"><textPath
         xlink:href="#path3134"
         id="textPath3140"><tspan
   style="font-size:40px;font-style:normal;font-variant:normal;font-weight:normal;font-stretch:normal;text-align:start;line-height:125%;writing-mode:lr-tb;text-anchor:start;font-family:Arial"
   id="tspan3138">ST  BONAVENTURE'S  HIGH SCHOOL           HYDERABAD</tspan></textPath></text>
    <path
       d="M -288.57144 390.93362 A 272.85715 272.85715 0 1 1  -834.28574,390.93362 A 272.85715 272.85715 0 1 1  -288.57144 390.93362 z"
       transform="matrix(0.6488172,0,0,0.6422076,-1007.1641,9.17653)"
       style="fill:#ffffff;fill-opacity:1;stroke:#000000;stroke-width:3.09835434;stroke-miterlimit:4;stroke-dasharray:none"
       id="path3143" />
    <path
       d="M -140,374.36218 L -187.46207,363.72145 L -223.13463,396.78719 L -227.68128,348.3599 L -270.15209,324.65116 L -225.5,305.36218 L -216.07585,257.64364 L -183.93269,294.14968 L -135.63743,288.36674 L -160.42395,330.21769 L -140,374.36218 z "
       transform="matrix(0.2399346,0,0,0.2399346,-1146.7133,287.96423)"
       style="fill:#000000;fill-opacity:1;stroke:#ffffff;stroke-opacity:1"
       id="path3147" />
    <path
       d="M -140,374.36218 L -187.46207,363.72145 L -223.13463,396.78719 L -227.68128,348.3599 L -270.15209,324.65116 L -225.5,305.36218 L -216.07585,257.64364 L -183.93269,294.14968 L -135.63743,288.36674 L -160.42395,330.21769 L -140,374.36218 z "
       transform="matrix(0.2399346,0,0,0.2399346,-1496.3185,297.85188)"
       style="fill:#000000;fill-opacity:1;stroke:#ffffff;stroke-opacity:1"
       id="path3149" />
    <path
       d="M -1490.7627,389.45964 C -1443.692,344.22271 -1430.4302,265.55322 -1411,195.36218 L -1333,194.36218 C -1321.2458,281.18226 -1291.1561,340.6765 -1250.1441,387.59947 C -1327.4252,455.46317 -1429.6808,443.99221 -1490.7627,389.45964 z "
       style="fill:#000000;fill-opacity:1;fill-rule:evenodd;stroke:#000000;stroke-width:1px;stroke-linecap:butt;stroke-linejoin:miter;stroke-opacity:1"
       id="path3151" />
    <path
       d="M -1535,327.36218 L -1209,327.36218"
       style="fill:none;fill-rule:evenodd;stroke:#000000;stroke-width:1px;stroke-linecap:butt;stroke-linejoin:miter;stroke-opacity:1"
       id="path3153" />
    <path
       d="M -1342.202,229.35148 L -1346.5152,242.48626 L -1349.1644,250.76403 L -1362.9892,250.72083 L -1371.6805,250.75925 L -1375.9115,237.59779 L -1378.6337,229.34376 C -1367.8738,208.2809 -1355.0731,208.23654 -1342.202,229.35148 z "
       style="fill:#ffffff;fill-opacity:1;stroke:#ffffff;stroke-width:0.34483844;stroke-opacity:1"
       id="path3155" />
    <path
       d="M -1387.7842,302.56618 L -1392.0973,315.70096 L -1394.7465,323.97873 L -1408.5713,323.93553 L -1417.2626,323.97395 L -1421.4936,310.81249 L -1424.2158,302.55846 C -1413.4559,281.4956 -1400.6552,281.45124 -1387.7842,302.56618 z "
       style="fill:#ffffff;fill-opacity:1;stroke:#ffffff;stroke-width:0.34483844;stroke-opacity:1"
       id="path3158" />
    <path
       d="M -1405.4627,196.71226 L -1405.4627,168.52757 C -1398.3556,173.43667 -1393.6471,170.01563 -1386.54,176.63932 C -1395.495,175.04841 -1398.057,181.83193 -1405.9391,180.08134"
       style="fill:#000000;fill-opacity:1;fill-rule:evenodd;stroke:#000000;stroke-width:0.2998372px;stroke-linecap:butt;stroke-linejoin:miter;stroke-opacity:1"
       id="path3160" />
    <path
       d="M -1380.4627,196.71226 L -1380.4627,168.52757 C -1373.3556,173.43667 -1368.6471,170.01563 -1361.54,176.63932 C -1370.495,175.04841 -1373.057,181.83193 -1380.9391,180.08134"
       style="fill:#000000;fill-opacity:1;fill-rule:evenodd;stroke:#000000;stroke-width:0.2998372px;stroke-linecap:butt;stroke-linejoin:miter;stroke-opacity:1"
       id="path3162" />
    <path
       d="M -1354.4627,196.71226 L -1354.4627,168.52757 C -1347.3556,173.43667 -1342.6471,170.01563 -1335.54,176.63932 C -1344.495,175.04841 -1347.057,181.83193 -1354.9391,180.08134"
       style="fill:#000000;fill-opacity:1;fill-rule:evenodd;stroke:#000000;stroke-width:0.2998372px;stroke-linecap:butt;stroke-linejoin:miter;stroke-opacity:1"
       id="path3164" />
    <path
       d="M -1394.488,304.03565 L -1397.3282,312.68486 L -1399.0727,318.13574 L -1408.1762,318.10729 L -1413.8994,318.13259 L -1416.6855,309.46582 L -1418.4781,304.03058 C -1411.3927,290.16076 -1402.9635,290.13155 -1394.488,304.03565 z "
       style="fill:#ffffff;fill-opacity:1;stroke:#000000;stroke-width:2;stroke-miterlimit:4;stroke-dasharray:none;stroke-opacity:1"
       id="path3166" />
    <path
       d="M -1348.9032,230.7583 L -1351.7434,239.40751 L -1353.488,244.85839 L -1362.5915,244.82994 L -1368.3147,244.85524 L -1371.1008,236.18847 L -1372.8934,230.75323 C -1365.808,216.88341 -1357.3788,216.8542 -1348.9032,230.7583 z "
       style="fill:#ffffff;fill-opacity:1;stroke:#000000;stroke-width:2;stroke-miterlimit:4;stroke-dasharray:none;stroke-opacity:1"
       id="path3168" />
    <path
       d="M -288.57144,390.93362 C -288.57144,541.55077 -410.81144,663.79077 -561.42859,663.79077 C -712.04573,663.79077 -834.28574,541.55077 -834.28574,390.93362 C -834.28574,240.31648 -712.04573,118.07648 -561.42859,118.07648 C -410.81144,118.07648 -288.57144,240.31648 -288.57144,390.93362 z "
       transform="matrix(0.8994074,0,0,0.8902451,-50.38529,9.316625)"
       style="fill:#ffffff;fill-opacity:1;stroke:#000000;stroke-width:2.23510003;stroke-miterlimit:4"
       id="path3290" />
    <path
       d="M -1170.3408,265.5905 L -1170.2733,269.17772 C -1171.7138,269.24868 -1172.9131,269.56131 -1173.8712,270.11561 C -1174.8293,270.6699 -1175.6354,271.57721 -1176.2895,272.83754 C -1176.9436,274.09785 -1177.3263,275.5399 -1177.4375,277.16371 C -1177.5363,278.60563 -1177.4092,279.89337 -1177.0562,281.02694 C -1176.7031,282.16048 -1176.1716,283.02239 -1175.4616,283.61269 C -1174.7516,284.20295 -1173.9549,284.52835 -1173.0716,284.58889 C -1172.1752,284.65028 -1171.3748,284.4441 -1170.6702,283.97035 C -1169.9656,283.49655 -1169.345,282.67768 -1168.8084,281.51373 C -1168.4571,280.76776 -1167.8766,279.10433 -1167.0668,276.52346 C -1166.2569,273.94256 -1165.5367,272.14514 -1164.906,271.1312 C -1164.0981,269.81616 -1163.1419,268.86041 -1162.0373,268.26395 C -1160.9327,267.66748 -1159.7245,267.41419 -1158.4124,267.50409 C -1156.9705,267.60288 -1155.6508,268.10442 -1154.4533,269.00871 C -1153.2558,269.91299 -1152.3861,271.1733 -1151.8443,272.78964 C -1151.3025,274.40597 -1151.0974,276.17543 -1151.2291,278.09801 C -1151.3742,280.21543 -1151.8432,282.05943 -1152.636,283.63002 C -1153.4288,285.20058 -1154.5175,286.37565 -1155.9021,287.15524 C -1157.2868,287.93479 -1158.8193,288.29964 -1160.4994,288.2498 L -1160.5239,284.60679 C -1158.7049,284.53563 -1157.2958,283.96983 -1156.2964,282.90937 C -1155.2972,281.84888 -1154.7223,280.22096 -1154.5718,278.0256 C -1154.4152,275.73928 -1154.72,274.04456 -1155.4862,272.94144 C -1156.2525,271.8383 -1157.2267,271.24624 -1158.4088,271.16525 C -1159.435,271.09493 -1160.3048,271.4073 -1161.018,272.10237 C -1161.7303,272.78443 -1162.5393,274.63776 -1163.4447,277.66238 C -1164.3502,280.68697 -1165.1019,282.75305 -1165.6999,283.86062 C -1166.5802,285.47085 -1167.6354,286.63191 -1168.8653,287.3438 C -1170.0952,288.05564 -1171.4766,288.35905 -1173.0095,288.25405 C -1174.5293,288.14989 -1175.9317,287.61659 -1177.2166,286.65414 C -1178.5014,285.69164 -1179.4615,284.36967 -1180.0968,282.68822 C -1180.732,281.00673 -1180.9798,279.14625 -1180.84,277.10678 C -1180.6629,274.52168 -1180.1378,272.38135 -1179.2646,270.68578 C -1178.3915,268.99019 -1177.1641,267.69736 -1175.5827,266.80729 C -1174.0012,265.91722 -1172.2539,265.51162 -1170.3408,265.5905 L -1170.3408,265.5905 z M -1183.3655,300.01545 L -1158.6196,305.05555 L -1156.7369,295.81174 L -1153.426,296.4861 L -1157.9554,318.72483 L -1161.2664,318.05047 L -1159.3759,308.76839 L -1184.1217,303.72828 L -1183.3655,300.01545 z M -1194.2692,337.71671 L -1168.706,350.61474 L -1171.275,355.70646 L -1192.428,352.6248 C -1194.3951,352.33229 -1195.8617,352.10277 -1196.8278,351.93623 C -1196.0444,352.69607 -1194.9072,353.83862 -1193.4162,355.3639 L -1178.7182,370.4585 L -1181.0145,375.00966 L -1206.5778,362.11163 L -1204.9325,358.85084 L -1183.5368,369.64612 L -1201.1845,351.42251 L -1199.6448,348.37096 L -1174.1526,351.95754 L -1195.9144,340.9775 L -1194.2692,337.71671 z M -1208.1804,364.71767 L -1191.3384,390.35161 L -1193.7196,393.66716 L -1223.812,386.4829 L -1221.2941,382.97698 L -1212.3023,385.32289 L -1205.3182,375.59833 L -1210.5274,367.98562 L -1208.1804,364.71767 z M -1203.4497,378.28685 L -1209.1122,386.1712 L -1200.9283,388.36971 C -1198.4401,389.03454 -1196.4376,389.63911 -1194.9208,390.18343 C -1196.1993,388.81631 -1197.3799,387.33518 -1198.4626,385.74006 L -1203.4497,378.28685 z M -1225.9522,388.81874 L -1205.3181,408.66996 L -1214.1198,417.81878 C -1215.8892,419.6579 -1217.4196,420.87774 -1218.711,421.4783 C -1220.0024,422.07879 -1221.3927,422.21387 -1222.8817,421.88356 C -1224.3707,421.55317 -1225.6829,420.84184 -1226.8183,419.74956 C -1228.2821,418.34126 -1229.0601,416.6803 -1229.1524,414.76667 C -1229.2446,412.85299 -1228.4744,410.77532 -1226.8418,408.53365 C -1227.8841,408.92214 -1228.7547,409.14157 -1229.4536,409.19194 C -1230.9528,409.28537 -1232.5944,409.16057 -1234.3783,408.81752 L -1243.4473,407.00379 L -1240.1433,403.56946 L -1233.2234,404.96892 C -1231.2174,405.36292 -1229.6378,405.61785 -1228.4845,405.7337 C -1227.3311,405.84951 -1226.4267,405.82972 -1225.7713,405.67432 C -1225.1159,405.51889 -1224.5334,405.27971 -1224.024,404.95678 C -1223.6604,404.7103 -1223.1401,404.23519 -1222.463,403.53145 L -1219.4163,400.36455 L -1228.5792,391.54931 L -1225.9522,388.81874 z M -1217.0517,402.63945 L -1222.6983,408.50878 C -1223.8989,409.75675 -1224.7088,410.85675 -1225.1278,411.80878 C -1225.5468,412.76076 -1225.6485,413.69282 -1225.4328,414.60496 C -1225.2172,415.51704 -1224.7763,416.29357 -1224.1101,416.93454 C -1223.1342,417.87336 -1221.9911,418.29097 -1220.6809,418.18739 C -1219.3706,418.08375 -1217.9798,417.2672 -1216.5083,415.73773 L -1210.2252,409.20688 L -1217.0517,402.63945 z M -1252.6992,414.20993 L -1245.2475,423.77976 L -1226.4009,430.02174 L -1230.0378,432.85365 L -1239.7952,429.51015 C -1241.6091,428.87619 -1243.3664,428.19825 -1245.0673,427.47633 C -1244.8253,429.18575 -1244.6113,431.15615 -1244.425,433.38755 L -1243.6297,443.4373 L -1247.1125,446.14921 L -1248.2371,426.10769 L -1255.6888,416.53785 L -1252.6992,414.20993 z M -1257.4402,440.41879 L -1253.7843,444.4288 L -1251.1903,448.44987 L -1254.5549,450.62034 L -1257.1488,446.59926 L -1259.262,441.59402 L -1257.4402,440.41879 z M -1268.7751,436.93875 L -1271.7937,438.87801 C -1272.6098,437.68885 -1273.5051,436.83183 -1274.4797,436.30694 C -1275.4542,435.78204 -1276.6495,435.57174 -1278.0656,435.67605 C -1279.4817,435.78035 -1280.9101,436.21106 -1282.3509,436.96819 C -1283.6303,437.6405 -1284.66,438.42427 -1285.4398,439.31949 C -1286.2197,440.21469 -1286.6746,441.11935 -1286.8047,442.03349 C -1286.9348,442.9476 -1286.7939,443.79656 -1286.382,444.58036 C -1285.9641,445.37566 -1285.3686,445.94898 -1284.5956,446.30032 C -1283.8226,446.65163 -1282.7999,446.75038 -1281.5275,446.59657 C -1280.7082,446.5043 -1278.9874,446.12593 -1276.3654,445.46147 C -1273.7433,444.79697 -1271.8352,444.46723 -1270.6412,444.47227 C -1269.0978,444.47021 -1267.7824,444.78292 -1266.6952,445.4104 C -1265.608,446.03784 -1264.7585,446.93364 -1264.1467,448.09782 C -1263.4744,449.37721 -1263.209,450.76386 -1263.3507,452.25776 C -1263.4924,453.75161 -1264.1091,455.15315 -1265.2009,456.46238 C -1266.2928,457.77156 -1267.6916,458.87438 -1269.3975,459.77084 C -1271.2763,460.75809 -1273.0922,461.32622 -1274.8452,461.47521 C -1276.5982,461.62414 -1278.1698,461.31369 -1279.5598,460.54386 C -1280.9499,459.77396 -1282.0644,458.66073 -1282.9034,457.20416 L -1279.8148,455.27221 C -1278.8,456.78348 -1277.579,457.68635 -1276.152,457.98082 C -1274.7249,458.27522 -1273.0374,457.91063 -1271.0894,456.88703 C -1269.0608,455.82098 -1267.7779,454.67245 -1267.2407,453.44144 C -1266.7035,452.21039 -1266.7105,451.07043 -1267.2617,450.02156 C -1267.7402,449.11096 -1268.4624,448.53438 -1269.4283,448.29181 C -1270.3827,448.04314 -1272.3849,448.32672 -1275.4349,449.14256 C -1278.4849,449.95835 -1280.6382,450.40224 -1281.8948,450.47422 C -1283.7275,450.56944 -1285.2695,450.28024 -1286.5208,449.6066 C -1287.772,448.93293 -1288.755,447.91605 -1289.4698,446.55597 C -1290.1784,445.20738 -1290.4601,443.7337 -1290.3147,442.13493 C -1290.1693,440.53613 -1289.5475,439.02528 -1288.4492,437.60238 C -1287.351,436.17946 -1285.897,434.99254 -1284.0874,434.0416 C -1281.7937,432.83626 -1279.696,432.16052 -1277.7944,432.01439 C -1275.8928,431.86824 -1274.1483,432.2349 -1272.5609,433.11436 C -1270.9735,433.99381 -1269.7116,435.2686 -1268.7751,436.93875 L -1268.7751,436.93875 z M -1325.2432,460.83276 L -1329.149,460.96443 C -1329.2492,457.75424 -1328.5346,455.0779 -1327.0052,452.93541 C -1325.4757,450.7929 -1323.2786,449.30806 -1320.4138,448.48087 C -1317.449,447.62479 -1314.8635,447.53214 -1312.6572,448.20293 C -1310.4509,448.87371 -1308.5325,450.21377 -1306.902,452.22312 C -1305.2715,454.23246 -1304.0769,456.55066 -1303.3184,459.17772 C -1302.4912,462.04244 -1302.317,464.6993 -1302.7957,467.1483 C -1303.2744,469.59725 -1304.3641,471.66698 -1306.0648,473.35749 C -1307.7654,475.04794 -1309.8292,476.24355 -1312.2561,476.94435 C -1315.0082,477.73899 -1317.5248,477.70669 -1319.8058,476.84746 C -1322.0868,475.98816 -1323.963,474.39534 -1325.4344,472.06901 L -1322.0942,470.18971 C -1320.8782,472.00703 -1319.5317,473.19711 -1318.0546,473.75997 C -1316.5774,474.32278 -1314.9194,474.3387 -1313.0804,473.80774 C -1310.9663,473.19726 -1309.3456,472.18039 -1308.2183,470.75715 C -1307.091,469.33385 -1306.4862,467.68534 -1306.4038,465.81162 C -1306.3214,463.93786 -1306.5421,462.09403 -1307.0659,460.28013 C -1307.7413,457.94079 -1308.6719,455.99701 -1309.8576,454.44877 C -1311.0433,452.90051 -1312.4801,451.9025 -1314.1679,451.45473 C -1315.8558,451.00695 -1317.5379,451.02508 -1319.2142,451.50911 C -1321.2533,452.09789 -1322.8098,453.18433 -1323.8839,454.76843 C -1324.958,456.35251 -1325.4111,458.37395 -1325.2432,460.83276 L -1325.2432,460.83276 z M -1333.431,466.85177 C -1332.8387,471.5673 -1333.641,475.41803 -1335.8381,478.40397 C -1338.0351,481.38987 -1341.1361,483.13437 -1345.1411,483.6375 C -1347.7637,483.96692 -1350.2067,483.63732 -1352.4699,482.64871 C -1354.7332,481.66004 -1356.5579,480.11435 -1357.9441,478.01164 C -1359.3302,475.90887 -1360.2018,473.43638 -1360.5589,470.59416 C -1360.9208,467.71314 -1360.6632,465.06271 -1359.7861,462.64287 C -1358.909,460.223 -1357.478,458.29459 -1355.4932,456.85762 C -1353.5084,455.42064 -1351.2822,454.54717 -1348.8146,454.2372 C -1346.1403,453.90126 -1343.6691,454.24699 -1341.401,455.27439 C -1339.1328,456.30178 -1337.3158,457.86484 -1335.9498,459.96356 C -1334.5838,462.06227 -1333.7442,464.35833 -1333.431,466.85177 L -1333.431,466.85177 z M -1337.3141,467.2805 C -1337.7442,463.85688 -1339.0034,461.27561 -1341.0919,459.53668 C -1343.1804,457.79775 -1345.6135,457.10274 -1348.3911,457.45167 C -1351.2205,457.80708 -1353.4242,459.09439 -1355.0024,461.31361 C -1356.5805,463.53281 -1357.1399,466.47049 -1356.6807,470.12667 C -1356.3902,472.4392 -1355.7458,474.40875 -1354.7475,476.03531 C -1353.7492,477.66183 -1352.4379,478.85535 -1350.8135,479.61588 C -1349.1892,480.37635 -1347.4403,480.63894 -1345.567,480.40365 C -1342.9056,480.06931 -1340.7305,478.86761 -1339.0416,476.79856 C -1337.3528,474.72945 -1336.7769,471.55677 -1337.3141,467.2805 L -1337.3141,467.2805 z M -1367.2116,456.47216 L -1368.0442,485.09287 L -1371.9293,484.97985 L -1386.3083,462.07159 L -1386.962,484.54255 L -1390.5932,484.43692 L -1389.7607,455.81621 L -1385.8756,455.92923 L -1371.4971,478.85702 L -1370.8429,456.36653 L -1367.2116,456.47216 z M -1404.2026,453.71081 L -1398.1907,483.82336 L -1402.2313,483.11901 L -1405.9901,461.34935 C -1406.2939,459.60458 -1406.5195,457.9792 -1406.6667,456.47322 C -1407.3711,457.93648 -1408.1461,459.38745 -1408.9917,460.82612 L -1420.1832,479.98969 L -1423.993,479.32559 L -1408.0316,453.04335 L -1404.2026,453.71081 z M -1422.476,450.07819 L -1431.2627,477.32946 L -1450.9669,470.97618 L -1449.93,467.76031 L -1433.832,472.95082 L -1431.1409,464.60442 L -1446.2165,459.74356 L -1445.1855,456.54627 L -1430.11,461.40713 L -1427.1191,452.13129 L -1443.8491,446.737 L -1442.8122,443.52112 L -1422.476,450.07819 z M -1447.7025,441.55891 L -1460.3332,467.25532 L -1463.8213,465.54079 L -1467.4014,438.73169 L -1477.318,458.90671 L -1480.5783,457.30419 L -1467.9477,431.60777 L -1464.4596,433.3223 L -1460.8881,460.14893 L -1450.9628,439.95639 L -1447.7025,441.55891 z M -1479.4562,424.18075 L -1493.6136,445.09313 L -1485.8018,450.38163 L -1487.696,453.17965 L -1506.4896,440.4566 L -1504.5954,437.65858 L -1496.7513,442.96898 L -1482.5939,422.05659 L -1479.4562,424.18075 z M -1502.0989,407.05103 L -1522.4318,427.21063 L -1525.0996,424.51992 L -1516.75,416.24155 L -1527.2286,405.67286 L -1535.5782,413.95123 L -1538.246,411.26051 L -1517.913,391.10091 L -1515.2452,393.79162 L -1524.8292,403.29386 L -1514.3506,413.86255 L -1504.7666,404.36031 L -1502.0989,407.05103 z M -1522.2068,385.57533 L -1544.5031,403.53964 L -1546.8803,400.58912 L -1524.5841,382.62481 L -1522.2068,385.57533 z M -1545.6267,372.31308 L -1548.4562,374.12402 L -1555.0109,363.91883 L -1546.0619,358.19122 C -1543.8079,358.95934 -1541.8322,359.97507 -1540.1347,361.23843 C -1538.4372,362.50183 -1537.0269,364.01087 -1535.9038,365.76557 C -1534.3877,368.13444 -1533.5174,370.61134 -1533.293,373.19626 C -1533.0686,375.7812 -1533.6001,378.18135 -1534.8876,380.39672 C -1536.1751,382.61209 -1538.0033,384.47784 -1540.3721,385.99398 C -1542.719,387.49606 -1545.2238,388.40736 -1547.8864,388.72787 C -1550.549,389.04837 -1552.9634,388.60326 -1555.1296,387.39254 C -1557.2958,386.18181 -1559.1475,384.37556 -1560.6848,381.97381 C -1561.8008,380.23006 -1562.5274,378.47282 -1562.8646,376.70208 C -1563.2017,374.93135 -1563.122,373.32281 -1562.6255,371.87645 C -1562.1289,370.43012 -1561.2024,368.97916 -1559.846,367.52357 L -1557.2139,369.89702 C -1558.2105,371.04508 -1558.8878,372.11241 -1559.2458,373.099 C -1559.6037,374.08561 -1559.6745,375.21303 -1559.458,376.48125 C -1559.2414,377.74948 -1558.7436,378.99226 -1557.9645,380.20959 C -1557.0309,381.6682 -1556.0017,382.78726 -1554.8767,383.56678 C -1553.7516,384.3463 -1552.6184,384.83069 -1551.477,385.01997 C -1550.3355,385.20923 -1549.2158,385.20757 -1548.1178,385.01497 C -1546.2332,384.67452 -1544.419,383.94627 -1542.6753,382.83024 C -1540.5257,381.45449 -1538.9641,379.93322 -1537.9902,378.26642 C -1537.0164,376.59963 -1536.6312,374.83426 -1536.8348,372.97029 C -1537.0384,371.10634 -1537.6491,369.37926 -1538.6669,367.78904 C -1539.5512,366.40722 -1540.6805,365.2285 -1542.0548,364.25288 C -1543.4289,363.27729 -1544.6352,362.64253 -1545.6736,362.34862 L -1550.1646,365.22295 L -1545.6267,372.31308 z M -1545.2878,350.92959 L -1571.5059,362.4384 L -1573.0289,358.96889 L -1562.2627,354.2429 L -1568.2447,340.61525 L -1579.0109,345.34123 L -1580.5339,341.87173 L -1554.3159,330.36292 L -1552.7929,333.83243 L -1565.1508,339.25711 L -1559.1687,352.88477 L -1546.8108,347.46009 L -1545.2878,350.92959 z M -1568.3165,316.89696 L -1569.3696,313.46713 C -1568.0044,313.00207 -1566.9376,312.37114 -1566.1693,311.57435 C -1565.401,310.77757 -1564.876,309.6833 -1564.5944,308.29155 C -1564.3129,306.89981 -1564.3423,305.40814 -1564.6827,303.81651 C -1564.9849,302.40317 -1565.4619,301.20028 -1566.1135,300.20783 C -1566.7652,299.21541 -1567.5135,298.53327 -1568.3587,298.16141 C -1569.2038,297.78959 -1570.0593,297.69626 -1570.9252,297.88141 C -1571.8037,298.06932 -1572.5164,298.48804 -1573.0633,299.13758 C -1573.6101,299.78715 -1573.9811,300.74529 -1574.1762,302.01201 C -1574.3084,302.8259 -1574.4082,304.58489 -1574.4757,307.289 C -1574.5432,309.99312 -1574.7404,311.9194 -1575.0674,313.06786 C -1575.4817,314.55458 -1576.1377,315.73678 -1577.0352,316.61446 C -1577.9327,317.49213 -1579.0244,318.06848 -1580.3105,318.34351 C -1581.7238,318.64577 -1583.1306,318.5272 -1584.5309,317.98781 C -1585.9312,317.44841 -1587.1144,316.47645 -1588.0805,315.07192 C -1589.0467,313.66739 -1589.7312,312.0229 -1590.1343,310.13842 C -1590.5781,308.06297 -1590.6353,306.16113 -1590.3059,304.43291 C -1589.9764,302.70472 -1589.2535,301.27519 -1588.1372,300.14431 C -1587.0209,299.01347 -1585.6483,298.24057 -1584.0194,297.82561 L -1582.9922,301.32091 C -1584.7212,301.89043 -1585.92,302.82254 -1586.5885,304.11726 C -1587.257,305.41201 -1587.3611,307.13531 -1586.901,309.28716 C -1586.4217,311.52816 -1585.6618,313.07333 -1584.6214,313.92269 C -1583.5808,314.77205 -1582.4813,315.07283 -1581.3226,314.82503 C -1580.3167,314.60991 -1579.5666,314.07003 -1579.0725,313.20537 C -1578.5756,312.35345 -1578.3085,310.34899 -1578.2714,307.19196 C -1578.2341,304.03496 -1578.0807,301.84174 -1577.811,300.61231 C -1577.4083,298.82185 -1576.7139,297.41505 -1575.7277,296.39188 C -1574.7414,295.36876 -1573.4971,294.69653 -1571.9946,294.37518 C -1570.5048,294.0566 -1569.0098,294.18294 -1567.5095,294.75418 C -1566.0092,295.32547 -1564.7221,296.33181 -1563.6482,297.77319 C -1562.5743,299.21461 -1561.8236,300.93484 -1561.3961,302.9339 C -1560.8542,305.46776 -1560.7694,307.66994 -1561.1417,309.54044 C -1561.5139,311.41096 -1562.3376,312.99187 -1563.6127,314.28317 C -1564.8877,315.57448 -1566.4557,316.44574 -1568.3165,316.89696 L -1568.3165,316.89696 z M -1576.1922,267.76938 L -1575.4895,263.92502 C -1572.3316,264.51043 -1569.8687,265.77834 -1568.1008,267.72878 C -1566.3329,269.67926 -1565.3498,272.14207 -1565.1513,275.11721 C -1564.9459,278.19631 -1565.4057,280.74233 -1566.5308,282.75526 C -1567.6558,284.7682 -1569.3735,286.35741 -1571.6838,287.52288 C -1573.9942,288.68835 -1576.5135,289.36209 -1579.2419,289.54409 C -1582.217,289.74255 -1584.8501,289.34727 -1587.141,288.35824 C -1589.432,287.36921 -1591.2223,285.86394 -1592.5121,283.84244 C -1593.8018,281.82094 -1594.5308,279.54998 -1594.6989,277.02952 C -1594.8896,274.17131 -1594.3224,271.71927 -1592.9973,269.67339 C -1591.6722,267.62755 -1589.7165,266.13339 -1587.1303,265.19091 L -1586.005,268.85461 C -1588.0395,269.65589 -1589.4889,270.71826 -1590.3533,272.04172 C -1591.2176,273.36523 -1591.5861,274.98188 -1591.4587,276.89168 C -1591.3122,279.08733 -1590.6637,280.88734 -1589.513,282.29172 C -1588.3622,283.69612 -1586.8802,284.63798 -1585.067,285.1173 C -1583.2537,285.59664 -1581.4052,285.77347 -1579.5213,285.6478 C -1577.0918,285.48574 -1574.9945,284.99023 -1573.2294,284.16126 C -1571.4642,283.33231 -1570.1833,282.14089 -1569.3865,280.58701 C -1568.5897,279.03315 -1568.2494,277.38575 -1568.3655,275.64481 C -1568.5068,273.52714 -1569.237,271.77498 -1570.5562,270.38834 C -1571.8754,269.00174 -1573.754,268.12875 -1576.1922,267.76938 L -1576.1922,267.76938 z M -1566.2743,258.47667 L -1594.812,256.14554 L -1594.5035,252.36906 L -1582.7847,253.32631 L -1581.5731,238.49291 L -1593.2919,237.53565 L -1592.9834,233.75917 L -1564.4456,236.09029 L -1564.7541,239.86678 L -1578.2054,238.768 L -1579.4171,253.60141 L -1565.9658,254.70018 L -1566.2743,258.47667 z M -1577.3638,227.62803 C -1581.9833,226.51125 -1585.3,224.39664 -1587.3138,221.28419 C -1589.3276,218.17175 -1589.8603,214.65382 -1588.9118,210.73036 C -1588.2906,208.16117 -1587.1169,205.99347 -1585.3905,204.22727 C -1583.6641,202.46112 -1581.5722,201.3024 -1579.1148,200.75112 C -1576.6573,200.1999 -1574.0364,200.26083 -1571.252,200.93393 C -1568.4297,201.61627 -1566.0424,202.7962 -1564.0903,204.47374 C -1562.1382,206.15133 -1560.8419,208.1727 -1560.2013,210.53785 C -1559.5608,212.90306 -1559.5327,215.29431 -1560.1171,217.71164 C -1560.7504,220.33149 -1561.9493,222.51991 -1563.7136,224.2769 C -1565.478,226.03391 -1567.5834,227.17931 -1570.03,227.7131 C -1572.4765,228.24691 -1574.9211,228.21855 -1577.3638,227.62803 L -1577.3638,227.62803 z M -1576.3889,223.84492 C -1573.035,224.65575 -1570.175,224.3927 -1567.8089,223.05577 C -1565.4429,221.71887 -1563.9309,219.68987 -1563.2731,216.96876 C -1562.603,214.19707 -1563.026,211.68019 -1564.5422,209.41812 C -1566.0583,207.15609 -1568.6072,205.59213 -1572.1889,204.72621 C -1574.4544,204.17856 -1576.5245,204.08334 -1578.3992,204.44054 C -1580.2739,204.79781 -1581.8546,205.60121 -1583.1413,206.85075 C -1584.428,208.10034 -1585.2931,209.6427 -1585.7368,211.47783 C -1586.3671,214.08503 -1586.014,216.54482 -1584.6775,218.8572 C -1583.341,221.16961 -1580.5781,222.83218 -1576.3889,223.84492 L -1576.3889,223.84492 z M -1569.0305,195.29235 C -1573.409,193.44414 -1576.3406,190.82162 -1577.8253,187.42477 C -1579.31,184.02796 -1579.2674,180.47017 -1577.6977,176.75142 C -1576.6698,174.31628 -1575.1614,172.36661 -1573.1724,170.90242 C -1571.1834,169.43829 -1568.9318,168.63265 -1566.4176,168.4855 C -1563.9034,168.33842 -1561.3267,168.82186 -1558.6876,169.93582 C -1556.0125,171.06504 -1553.8472,172.61504 -1552.1916,174.58584 C -1550.5361,176.5567 -1549.5833,178.7609 -1549.3331,181.19846 C -1549.083,183.63606 -1549.4415,186.00046 -1550.4086,188.29166 C -1551.4568,190.77483 -1552.9934,192.74089 -1555.0183,194.18985 C -1557.0433,195.63883 -1559.3061,196.42914 -1561.8067,196.56079 C -1564.3073,196.69245 -1566.7153,196.26963 -1569.0305,195.29235 L -1569.0305,195.29235 z M -1567.4574,191.71636 C -1564.2785,193.05823 -1561.4136,193.26055 -1558.8626,192.32332 C -1556.3117,191.38612 -1554.4919,189.62795 -1553.4032,187.04882 C -1552.2943,184.42173 -1552.3053,181.86957 -1553.4361,179.39233 C -1554.567,176.91514 -1556.8298,174.96003 -1560.2247,173.527 C -1562.372,172.62064 -1564.3995,172.19233 -1566.3073,172.24206 C -1568.2151,172.29185 -1569.9048,172.82941 -1571.3764,173.85473 C -1572.848,174.8801 -1573.9509,176.26248 -1574.6852,178.00186 C -1575.7283,180.47304 -1575.7771,182.95756 -1574.8316,185.45544 C -1573.8861,187.95335 -1571.4281,190.04032 -1567.4574,191.71636 L -1567.4574,191.71636 z M -1543.047,171.43612 L -1567.6343,156.76288 L -1565.6925,153.50918 L -1544.0067,166.45086 L -1536.7802,154.34171 L -1533.8787,156.07327 L -1543.047,171.43612 z M -1435.1603,79.985962 L -1442.7715,52.383303 L -1439.1188,51.376084 L -1435.9933,62.710873 L -1421.6459,58.754683 L -1424.7714,47.419894 L -1421.1187,46.412675 L -1413.5075,74.015334 L -1417.1602,75.022553 L -1420.7478,62.012022 L -1435.0951,65.968213 L -1431.5075,78.978743 L -1435.1603,79.985962 z M -1399.2518,71.84268 L -1400.7557,59.80737 L -1413.7521,44.799089 L -1409.1783,44.227564 L -1402.5069,52.093884 C -1401.2731,53.566869 -1400.1103,55.048713 -1399.0186,56.53942 C -1398.3515,54.947042 -1397.527,53.1447 -1396.5449,51.132388 L -1392.0846,42.091612 L -1387.7046,41.544305 L -1396.9959,59.337557 L -1395.492,71.372868 L -1399.2518,71.84268 z M -1380.6764,69.896113 L -1380.1467,41.268202 L -1370.2851,41.450685 C -1368.0589,41.491907 -1366.3625,41.66004 -1365.1959,41.955084 C -1363.5626,42.363004 -1362.1757,43.072377 -1361.0353,44.083205 C -1359.5488,45.386997 -1358.4496,47.038474 -1357.7378,49.03764 C -1357.026,51.036848 -1356.6937,53.312264 -1356.7408,55.863894 C -1356.7811,58.038012 -1357.0706,59.960066 -1357.6094,61.630061 C -1358.1482,63.300073 -1358.8249,64.677762 -1359.6393,65.763134 C -1360.4538,66.848514 -1361.3389,67.69817 -1362.2944,68.312105 C -1363.2499,68.926043 -1364.3979,69.383397 -1365.7383,69.68417 C -1367.0788,69.984942 -1368.6147,70.119309 -1370.3462,70.087269 L -1380.6764,69.896113 z M -1376.8255,66.587888 L -1370.7133,66.700991 C -1368.8256,66.735925 -1367.3415,66.587577 -1366.2609,66.255945 C -1365.1804,65.924321 -1364.3153,65.445454 -1363.6655,64.819342 C -1362.7506,63.937687 -1362.0286,62.743161 -1361.4992,61.235761 C -1360.97,59.728378 -1360.6854,57.89414 -1360.6453,55.733039 C -1360.59,52.738777 -1361.0388,50.428647 -1361.992,48.802642 C -1362.9451,47.176679 -1364.1197,46.077288 -1365.5155,45.504465 C -1366.5238,45.095142 -1368.154,44.86963 -1370.4062,44.827929 L -1376.4208,44.716632 L -1376.8255,66.587888 z M -1351.6966,70.957203 L -1347.083,42.698537 L -1326.6504,46.034462 L -1327.1948,49.369216 L -1343.8879,46.643828 L -1345.3009,55.298767 L -1329.6681,57.851065 L -1330.2094,61.166543 L -1345.8422,58.614245 L -1347.4126,68.232986 L -1330.0642,71.065376 L -1330.6086,74.40013 L -1351.6966,70.957203 z M -1325.3857,75.634345 L -1316.7377,48.338758 L -1304.6353,52.173161 C -1302.2024,52.943996 -1300.4306,53.775122 -1299.3198,54.666542 C -1298.2091,55.558001 -1297.4718,56.744304 -1297.1078,58.225455 C -1296.7439,59.706639 -1296.7999,61.198192 -1297.2758,62.700118 C -1297.8893,64.636514 -1299.0333,66.070184 -1300.7077,67.001132 C -1302.3823,67.932096 -1304.5861,68.162657 -1307.3192,67.692815 C -1306.5089,68.454912 -1305.9263,69.13804 -1305.5714,69.742201 C -1304.8231,71.044679 -1304.2073,72.571502 -1303.724,74.322676 L -1301.3299,83.255959 L -1305.8729,81.816583 L -1307.6858,74.993339 C -1308.2218,73.020579 -1308.6935,71.491605 -1309.1009,70.406411 C -1309.5083,69.321226 -1309.9269,68.519316 -1310.3568,68.00068 C -1310.7866,67.482058 -1311.2592,67.065987 -1311.7745,66.752467 C -1312.1566,66.535806 -1312.8131,66.279995 -1313.744,65.985032 L -1317.9333,64.657739 L -1321.7736,76.778767 L -1325.3857,75.634345 z M -1316.9423,61.529732 L -1309.1781,63.989649 C -1307.5273,64.512711 -1306.1823,64.751039 -1305.1431,64.704633 C -1304.1041,64.658247 -1303.2235,64.336252 -1302.5014,63.738648 C -1301.7794,63.141066 -1301.2788,62.401618 -1300.9996,61.520302 C -1300.5906,60.229393 -1300.7229,59.019646 -1301.3966,57.891057 C -1302.0703,56.762501 -1303.4187,55.877699 -1305.442,55.236646 L -1314.0812,52.499472 L -1316.9423,61.529732 z M -1300.8647,83.483178 L -1278.4714,62.523908 L -1274.7989,64.306043 L -1276.7565,95.182166 L -1280.6398,93.297708 L -1279.8586,84.037813 L -1290.63,78.810787 L -1297.245,85.239731 L -1300.8647,83.483178 z M -1288.2987,76.511986 L -1279.5656,80.749884 L -1278.7921,72.311195 C -1278.5605,69.746122 -1278.3056,67.669935 -1278.0274,66.082629 C -1279.157,67.575204 -1280.4155,68.990674 -1281.8031,70.329043 L -1288.2987,76.511986 z M -1274.3046,96.828092 L -1258.3678,73.040368 L -1249.4433,79.019393 C -1247.626,80.236954 -1246.3296,81.454217 -1245.5541,82.671184 C -1244.7786,83.888176 -1244.4151,85.205335 -1244.4634,86.622666 C -1244.5118,88.040013 -1244.902,89.294967 -1245.6339,90.38753 C -1246.3152,91.404381 -1247.2325,92.176924 -1248.3856,92.705163 C -1249.5389,93.233407 -1250.8574,93.400138 -1252.3412,93.205357 C -1251.1851,94.591132 -1250.561,96.051533 -1250.4688,97.586562 C -1250.3766,99.121587 -1250.7943,100.58142 -1251.7219,101.96607 C -1252.4684,103.08027 -1253.3976,103.95841 -1254.5096,104.60051 C -1255.6215,105.2426 -1256.6976,105.59135 -1257.7378,105.64677 C -1258.778,105.70218 -1259.9088,105.51272 -1261.1302,105.07839 C -1262.3517,104.64405 -1263.7197,103.91957 -1265.2341,102.90495 L -1274.3046,96.828092 z M -1261.9164,85.14472 L -1256.7726,88.590813 C -1255.3772,89.52572 -1254.315,90.104146 -1253.586,90.326092 C -1252.6261,90.624412 -1251.7585,90.63361 -1250.9832,90.353685 C -1250.2079,90.073771 -1249.5413,89.517337 -1248.9832,88.684383 C -1248.4542,87.894711 -1248.1778,87.072859 -1248.1542,86.218823 C -1248.1306,85.364804 -1248.3961,84.591374 -1248.9506,83.89853 C -1249.5052,83.205708 -1250.6371,82.286755 -1252.3462,81.141669 L -1257.1005,77.956479 L -1261.9164,85.14472 z M -1269.276,96.129911 L -1263.3534,100.09781 C -1262.3366,100.77905 -1261.5973,101.21951 -1261.1355,101.41919 C -1260.3237,101.77494 -1259.573,101.96444 -1258.8833,101.98769 C -1258.1936,102.01092 -1257.498,101.83825 -1256.7965,101.4697 C -1256.0951,101.10112 -1255.4908,100.53823 -1254.9834,99.781008 C -1254.3892,98.893967 -1254.1,97.971027 -1254.1158,97.012183 C -1254.1317,96.053335 -1254.4538,95.171436 -1255.0821,94.366483 C -1255.7105,93.561532 -1256.7819,92.651745 -1258.2963,91.63712 L -1263.7971,87.951867 L -1269.276,96.129911 z M -1254.5525,110.05732 L -1227.2922,95.999404 L -1224.2449,98.71551 L -1234.5486,127.88745 L -1237.7708,125.0154 L -1234.4939,116.31954 L -1243.4315,108.35316 L -1251.549,112.73444 L -1254.5525,110.05732 z M -1240.5617,106.77726 L -1233.3154,113.23613 L -1230.2699,105.32824 C -1229.3475,102.92356 -1228.536,100.99559 -1227.8355,99.54432 C -1229.3293,100.67228 -1230.9262,101.69087 -1232.6261,102.6001 L -1240.5617,106.77726 z M -1232.4864,130.21463 L -1210.5814,111.77538 L -1204.2295,119.32113 C -1202.7957,121.02453 -1201.806,122.41254 -1201.2605,123.48515 C -1200.4928,124.98346 -1200.1144,126.49453 -1200.1251,128.01837 C -1200.1287,129.99565 -1200.6489,131.91005 -1201.6858,133.76159 C -1202.7228,135.61312 -1204.2175,137.36065 -1206.1699,139.00417 C -1207.8335,140.4045 -1209.4713,141.45128 -1211.0833,142.1445 C -1212.6954,142.83769 -1214.178,143.23475 -1215.5312,143.33568 C -1216.8845,143.43658 -1218.1066,143.32927 -1219.1977,143.01378 C -1220.2888,142.69825 -1221.3885,142.13479 -1222.4971,141.32339 C -1223.6056,140.51197 -1224.7175,139.44384 -1225.8327,138.11898 L -1232.4864,130.21463 z M -1227.4613,130.93741 L -1223.5245,135.61428 C -1222.3086,137.05867 -1221.2203,138.07857 -1220.2595,138.67399 C -1219.2988,139.26939 -1218.3689,139.60571 -1217.4699,139.68295 C -1216.204,139.79169 -1214.8294,139.54938 -1213.3461,138.95602 C -1211.8628,138.36264 -1210.2943,137.36997 -1208.6407,135.97802 C -1206.3496,134.0494 -1204.9055,132.19126 -1204.3083,130.4036 C -1203.7112,128.61593 -1203.6562,127.00809 -1204.1434,125.58008 C -1204.4987,124.55154 -1205.4016,123.17561 -1206.8522,121.45228 L -1210.7262,116.85013 L -1227.4613,130.93741 z "
       transform="matrix(-0.9659258,0.258819,-0.258819,-0.9659258,-1811.7368,970.75429)"
       style="font-size:12px;font-style:normal;font-weight:normal;line-height:125%;fill:#000000;fill-opacity:1;stroke:none;stroke-width:1px;stroke-linecap:butt;stroke-linejoin:miter;stroke-opacity:1;font-family:Bitstream Vera Sans"
       id="text3292" />
    <path
       d="M -288.57144,390.93362 C -288.57144,541.55077 -410.81144,663.79077 -561.42859,663.79077 C -712.04573,663.79077 -834.28574,541.55077 -834.28574,390.93362 C -834.28574,240.31648 -712.04573,118.07648 -561.42859,118.07648 C -410.81144,118.07648 -288.57144,240.31648 -288.57144,390.93362 z "
       transform="matrix(0.6488172,0,0,0.6422076,-189.57383,109.08628)"
       style="fill:#ffffff;fill-opacity:1;stroke:#000000;stroke-width:3.09835434;stroke-miterlimit:4"
       id="path3298" />
    <path
       d="M 135.62622,374.93804 L 354.22873,374.93804"
       transform="translate(-801.74805,113.43363)"
       style="fill:none;fill-rule:evenodd;stroke:#000000;stroke-width:1;stroke-linecap:butt;stroke-linejoin:miter;stroke-miterlimit:4;stroke-dasharray:12, 12;stroke-dashoffset:0;stroke-opacity:1"
       id="path4343" />
    <path
       d="M -140,374.36218 L -187.46207,363.72145 L -223.13463,396.78719 L -227.68128,348.3599 L -270.15209,324.65116 L -225.5,305.36218 L -216.07585,257.64364 L -183.93269,294.14968 L -135.63743,288.36674 L -160.42395,330.21769 L -140,374.36218 z "
       transform="matrix(0.2399346,0,0,0.2399346,-679.06658,402.74282)"
       style="fill:#000000;fill-opacity:1;stroke:#ffffff;stroke-opacity:1"
       id="path3300" />
    <path
       d="M -140,374.36218 L -187.46207,363.72145 L -223.13463,396.78719 L -227.68128,348.3599 L -270.15209,324.65116 L -225.5,305.36218 L -216.07585,257.64364 L -183.93269,294.14968 L -135.63743,288.36674 L -160.42395,330.21769 L -140,374.36218 z "
       transform="matrix(0.2399346,0,0,0.2399346,-335.06658,392.74282)"
       style="fill:#000000;fill-opacity:1;stroke:#ffffff;stroke-opacity:1"
       id="path3302" />
    <path
       d="M -140,374.36218 L -187.46207,363.72145 L -223.13463,396.78719 L -227.68128,348.3599 L -270.15209,324.65116 L -225.5,305.36218 L -216.07585,257.64364 L -183.93269,294.14968 L -135.63743,288.36674 L -160.42395,330.21769 L -140,374.36218 z "
       transform="matrix(0.3228372,0,0,0.3228372,-527.02837,128.78251)"
       style="fill:#ffffff;fill-opacity:1;stroke:#000000;stroke-width:6.19507313;stroke-miterlimit:4;stroke-opacity:1"
       id="path3304" />
    <path
       d="M 119.19944,366.93525 L 376.1311,366.93525"
       transform="translate(-801.74805,113.43363)"
       style="fill:none;fill-rule:evenodd;stroke:#000000;stroke-width:1px;stroke-linecap:butt;stroke-linejoin:miter;stroke-opacity:1"
       id="path4341" />
    <path
       d="M 157.10739,382.94083 L 336.53835,382.94083"
       transform="translate(-801.74805,113.43363)"
       style="fill:none;fill-rule:evenodd;stroke:#000000;stroke-width:1;stroke-linecap:butt;stroke-linejoin:miter;stroke-miterlimit:4;stroke-dasharray:12, 12;stroke-dashoffset:0;stroke-opacity:1"
       id="path4345" />
    <path
       d="M 172.69177,391.36482 L 324.32357,391.36482"
       transform="translate(-801.74805,113.43363)"
       style="fill:none;fill-rule:evenodd;stroke:#000000;stroke-width:1;stroke-linecap:butt;stroke-linejoin:miter;stroke-miterlimit:4;stroke-dasharray:12, 12;stroke-dashoffset:0;stroke-opacity:1"
       id="path4347" />
    <path
       d="M -661.47245,465.35549 C -585.62039,519.84078 -509.76831,519.84078 -433.91626,465.35549 L -435.22101,466.15675 C -511.34015,474.0527 -585.3533,476.60135 -661.47245,465.35549 z "
       style="fill:#ffffff;fill-opacity:1;fill-rule:evenodd;stroke:#000000;stroke-width:2;stroke-linecap:butt;stroke-linejoin:miter;stroke-miterlimit:4;stroke-opacity:1"
       id="path4314" />
    <path
       d="M -660.6712,465.35549 C -585.08621,461.75618 -511.18604,462.56657 -435.60106,465.35549"
       style="fill:#ffffff;fill-opacity:1;fill-rule:evenodd;stroke:#000000;stroke-width:2;stroke-linecap:butt;stroke-linejoin:miter;stroke-miterlimit:4;stroke-opacity:1"
       id="path4316" />
    <path
       d="M -557.4811,472.9069 L -557.4811,312.78281 L -618.13196,312.84304 L -618.13196,307.79459 L -557.29738,307.79459 L -557.50323,289.36574 L -569.4999,289.36574 L -569.4999,279.75069 L -557.52535,279.75069 L -557.52535,269.33439 L -545.46228,269.33439 L -545.46228,279.75069 L -533.28188,279.75069 L -533.28188,289.73318 L -545.46228,289.52734 L -545.46228,307.76452 L -486.86209,307.76452 L -486.86209,312.55786 L -545.44017,312.76371 L -545.44017,472.91746 L -557.4811,472.9069 z "
       style="fill:#ffffff;fill-opacity:1;fill-rule:evenodd;stroke:#000000;stroke-width:2;stroke-linecap:butt;stroke-linejoin:miter;stroke-miterlimit:4;stroke-opacity:1"
       id="path4324" />
    <path
       d="M -618.66792,310.21413 C -604.21052,344.54926 -602.72935,385.05 -618.66792,423.35221 L -486.11866,423.35221 C -471.67406,387.13599 -472.51247,349.37921 -487.74861,310.09887 L -618.66792,310.21413 z "
       style="fill:#ffffff;fill-opacity:1;fill-rule:evenodd;stroke:#000000;stroke-width:2;stroke-linecap:butt;stroke-linejoin:miter;stroke-miterlimit:4;stroke-opacity:1"
       id="path4322" />
    <path
       d="M -660.80474,464.95489 L -618.73888,309.37802"
       style="fill:none;fill-rule:evenodd;stroke:#000000;stroke-width:2;stroke-linecap:butt;stroke-linejoin:miter;stroke-miterlimit:4;stroke-opacity:1"
       id="path4327" />
    <path
       d="M 188.27615,399.36761 L 308.31799,399.36761"
       transform="translate(-801.74805,113.43363)"
       style="fill:none;fill-rule:evenodd;stroke:#000000;stroke-width:1;stroke-linecap:butt;stroke-linejoin:miter;stroke-miterlimit:4;stroke-dasharray:12, 12;stroke-dashoffset:0;stroke-opacity:1"
       id="path4349" />
    <path
       d="M 205.96653,407.79159 L 289.78522,407.79159"
       transform="translate(-801.74805,113.43363)"
       style="fill:none;fill-rule:evenodd;stroke:#000000;stroke-width:1;stroke-linecap:butt;stroke-linejoin:miter;stroke-miterlimit:4;stroke-dasharray:12, 12;stroke-dashoffset:0;stroke-opacity:1"
       id="path4351" />
    <path
       d="M 201.80932,90.366099 L 197.69915,109.8894 L 179.61441,117.49322"
       transform="translate(-801.74805,113.43363)"
       style="fill:none;fill-rule:evenodd;stroke:#000000;stroke-width:1px;stroke-linecap:butt;stroke-linejoin:miter;stroke-opacity:1"
       id="path4353" />
    <path
       d="M 200.78178,150.16906 L 214.75636,137.22203 L 233.25212,141.74322"
       transform="translate(-801.74805,113.43363)"
       style="fill:none;fill-rule:evenodd;stroke:#000000;stroke-width:1px;stroke-linecap:butt;stroke-linejoin:miter;stroke-opacity:1"
       id="path4355" />
    <path
       d="M 212.08475,99.408472 L 216.40042,105.16271 L 225.4428,104.54618"
       transform="translate(-801.74805,113.43363)"
       style="fill:none;fill-rule:evenodd;stroke:#000000;stroke-width:1px;stroke-linecap:butt;stroke-linejoin:miter;stroke-opacity:1"
       id="path4357" />
    <path
       d="M 230.58051,116.46567 L 226.67585,122.21991 L 229.34746,127.97415"
       transform="translate(-801.74805,113.43363)"
       style="fill:none;fill-rule:evenodd;stroke:#000000;stroke-width:1px;stroke-linecap:butt;stroke-linejoin:miter;stroke-opacity:1"
       id="path4359" />
    <path
       d="M 190.09534,126.33008 L 197.28814,129.61822 L 197.90466,137.83856"
       transform="translate(-801.74805,113.43363)"
       style="fill:none;fill-rule:evenodd;stroke:#000000;stroke-width:1px;stroke-linecap:butt;stroke-linejoin:miter;stroke-opacity:1"
       id="path4361" />
    <path
       d="M 218.04449,100.43601 L 225.4428,82.351268"
       transform="translate(-801.74805,113.43363)"
       style="fill:none;fill-rule:evenodd;stroke:#000000;stroke-width:1px;stroke-linecap:butt;stroke-linejoin:miter;stroke-opacity:1"
       id="path4363" />
    <path
       d="M 230.78602,122.63093 L 257.29661,130.85127"
       transform="translate(-801.74805,113.43363)"
       style="fill:none;fill-rule:evenodd;stroke:#000000;stroke-width:1px;stroke-linecap:butt;stroke-linejoin:miter;stroke-opacity:1"
       id="path4365" />
    <path
       d="M 193.38347,132.28983 L 174.27119,150.37457"
       transform="translate(-801.74805,113.43363)"
       style="fill:none;fill-rule:evenodd;stroke:#000000;stroke-width:1px;stroke-linecap:butt;stroke-linejoin:miter;stroke-opacity:1"
       id="path4367" />
    <path
       d="M 193.79449,107.21779 L 178.38136,94.476268"
       transform="translate(-801.74805,113.43363)"
       style="fill:none;fill-rule:evenodd;stroke:#000000;stroke-width:1px;stroke-linecap:butt;stroke-linejoin:miter;stroke-opacity:1"
       id="path4369" />
    <path
       d="M 215.16737,141.94873 L 218.66102,160.03347"
       transform="translate(-801.74805,113.43363)"
       style="fill:none;fill-rule:evenodd;stroke:#000000;stroke-width:1px;stroke-linecap:butt;stroke-linejoin:miter;stroke-opacity:1"
       id="path4371" />
    <path
       d="M -579.09332,345.54264 L -579.09332,382.67268 C -570.25545,381.37085 -561.10035,380.70349 -550.62696,382.67268 C -547.53279,383.6437 -544.43862,384.15402 -541.34445,382.67268 C -530.1023,379.96852 -521.6449,381.3574 -510.40275,382.67268 L -510.40275,345.23322 C -520.09782,344.12448 -529.79288,343.11151 -539.48795,345.23322 C -542.89154,346.15169 -546.29512,347.48998 -549.69871,345.23322 C -559.49692,344.11209 -569.29512,342.67072 -579.09332,345.54264 z "
       style="fill:#ffffff;fill-opacity:1;fill-rule:evenodd;stroke:#000000;stroke-width:1;stroke-linecap:butt;stroke-linejoin:miter;stroke-miterlimit:4;stroke-opacity:1"
       id="path4373" />
    <path
       d="M -574.45207,353.27807 C -566.08213,352.64355 -559.23372,353.53056 -552.48346,354.51573"
       style="fill:#ffffff;fill-opacity:1;fill-rule:evenodd;stroke:#000000;stroke-width:1;stroke-linecap:butt;stroke-linejoin:miter;stroke-miterlimit:4;stroke-opacity:1"
       id="path4375" />
    <path
       d="M -574.76149,362.25116 C -566.96242,361.81447 -559.45894,361.96894 -552.48346,363.17941"
       style="fill:#ffffff;fill-opacity:1;fill-rule:evenodd;stroke:#000000;stroke-width:1;stroke-linecap:butt;stroke-linejoin:miter;stroke-miterlimit:4;stroke-opacity:1"
       id="path4377" />
    <path
       d="M -575.0709,373.08075 C -567.6449,372.42488 -560.21889,373.02579 -552.79288,374.00901"
       style="fill:#ffffff;fill-opacity:1;fill-rule:evenodd;stroke:#000000;stroke-width:1;stroke-linecap:butt;stroke-linejoin:miter;stroke-miterlimit:4;stroke-opacity:1"
       id="path4379" />
    <path
       d="M -537.76048,354.36844 C -530.42662,352.68187 -523.09276,354.00915 -515.7589,354.65451"
       style="fill:#ffffff;fill-opacity:1;fill-rule:evenodd;stroke:#000000;stroke-width:1;stroke-linecap:butt;stroke-linejoin:miter;stroke-miterlimit:4;stroke-opacity:1"
       id="path4381" />
    <path
       d="M -537.6814,362.72768 C -530.24896,360.90644 -522.81652,362.19786 -515.38408,362.69124"
       style="fill:#ffffff;fill-opacity:1;fill-rule:evenodd;stroke:#000000;stroke-width:1;stroke-linecap:butt;stroke-linejoin:miter;stroke-miterlimit:4;stroke-opacity:1"
       id="path4383" />
    <path
       d="M -537.522,373.56052 C -530.08956,371.10784 -522.65712,372.90944 -515.22468,373.52408"
       style="fill:#ffffff;fill-opacity:1;fill-rule:evenodd;stroke:#000000;stroke-width:1;stroke-linecap:butt;stroke-linejoin:miter;stroke-miterlimit:4;stroke-opacity:1"
       id="path4385" />
    <path
       d="M -577.8605,344.96172 L -577.8605,381.51794 C -569.30005,380.23623 -560.43233,379.57918 -550.28771,381.51794 C -547.29066,382.47395 -544.29362,382.97639 -541.29658,381.51794 C -530.40732,378.85557 -522.2154,380.22298 -511.32615,381.51794 L -511.32615,344.65709 C -520.71688,343.56548 -530.10762,342.56816 -539.49835,344.65709 C -542.7951,345.56136 -546.09185,346.87897 -549.38859,344.65709 C -558.87923,343.55328 -568.36986,342.13418 -577.8605,344.96172 z "
       style="fill:#ffffff;fill-opacity:1;fill-rule:evenodd;stroke:#000000;stroke-width:1;stroke-linecap:butt;stroke-linejoin:miter;stroke-miterlimit:4;stroke-opacity:1"
       id="path4398" />
    <path
       d="M -573.36494,352.5776 C -565.25773,351.95289 -558.62429,352.8262 -552.08593,353.79614"
       style="fill:#ffffff;fill-opacity:1;fill-rule:evenodd;stroke:#000000;stroke-width:1;stroke-linecap:butt;stroke-linejoin:miter;stroke-miterlimit:4;stroke-opacity:1"
       id="path4400" />
    <path
       d="M -573.66464,361.41202 C -566.11039,360.98208 -558.84245,361.13416 -552.08593,362.32593"
       style="fill:#ffffff;fill-opacity:1;fill-rule:evenodd;stroke:#000000;stroke-width:1;stroke-linecap:butt;stroke-linejoin:miter;stroke-miterlimit:4;stroke-opacity:1"
       id="path4402" />
    <path
       d="M -573.96435,372.07425 C -566.77144,371.42851 -559.57854,372.02013 -552.38564,372.98815"
       style="fill:#ffffff;fill-opacity:1;fill-rule:evenodd;stroke:#000000;stroke-width:1;stroke-linecap:butt;stroke-linejoin:miter;stroke-miterlimit:4;stroke-opacity:1"
       id="path4404" />
    <path
       d="M -537.82511,353.65112 C -530.72146,351.99062 -523.61781,353.29738 -516.51416,353.93277"
       style="fill:#ffffff;fill-opacity:1;fill-rule:evenodd;stroke:#000000;stroke-width:1;stroke-linecap:butt;stroke-linejoin:miter;stroke-miterlimit:4;stroke-opacity:1"
       id="path4406" />
    <path
       d="M -537.74851,361.88118 C -530.54938,360.08808 -523.35024,361.35954 -516.15111,361.8453"
       style="fill:#ffffff;fill-opacity:1;fill-rule:evenodd;stroke:#000000;stroke-width:1;stroke-linecap:butt;stroke-linejoin:miter;stroke-miterlimit:4;stroke-opacity:1"
       id="path4408" />
    <path
       d="M -537.59412,372.5466 C -530.39498,370.13182 -523.19585,371.90558 -515.99671,372.51072"
       style="fill:#ffffff;fill-opacity:1;fill-rule:evenodd;stroke:#000000;stroke-width:1;stroke-linecap:butt;stroke-linejoin:miter;stroke-miterlimit:4;stroke-opacity:1"
       id="path4410" />
    <path
       d="M -577.09116,344.84035 L -577.09116,380.38116 C -568.76849,379.13505 -560.14708,378.49625 -550.28425,380.38116 C -547.37045,381.31062 -544.45666,381.7991 -541.54286,380.38116 C -530.95607,377.79275 -522.9917,379.12217 -512.40491,380.38116 L -512.40491,344.54418 C -521.5348,343.48289 -530.66469,342.51327 -539.79458,344.54418 C -542.99976,345.42334 -546.20493,346.70434 -549.41011,344.54418 C -558.63713,343.47103 -567.86414,342.09135 -577.09116,344.84035 z "
       style="fill:#ffffff;fill-opacity:1;fill-rule:evenodd;stroke:#000000;stroke-width:1;stroke-linecap:butt;stroke-linejoin:miter;stroke-miterlimit:4;stroke-opacity:1"
       id="path4446" />
    <path
       d="M -572.72047,352.24469 C -564.83845,351.63733 -558.38927,352.48638 -552.03252,353.42938"
       style="fill:#ffffff;fill-opacity:1;fill-rule:evenodd;stroke:#000000;stroke-width:1;stroke-linecap:butt;stroke-linejoin:miter;stroke-miterlimit:4;stroke-opacity:1"
       id="path4448" />
    <path
       d="M -573.01185,360.83372 C -565.66743,360.41572 -558.60137,360.56358 -552.03252,361.72224"
       style="fill:#ffffff;fill-opacity:1;fill-rule:evenodd;stroke:#000000;stroke-width:1;stroke-linecap:butt;stroke-linejoin:miter;stroke-miterlimit:4;stroke-opacity:1"
       id="path4450" />
    <path
       d="M -573.30323,371.19979 C -566.31012,370.57199 -559.31701,371.14717 -552.3239,372.08831"
       style="fill:#ffffff;fill-opacity:1;fill-rule:evenodd;stroke:#000000;stroke-width:1;stroke-linecap:butt;stroke-linejoin:miter;stroke-miterlimit:4;stroke-opacity:1"
       id="path4452" />
    <path
       d="M -538.16782,353.28839 C -531.26149,351.67401 -524.35515,352.94448 -517.44882,353.56222"
       style="fill:#ffffff;fill-opacity:1;fill-rule:evenodd;stroke:#000000;stroke-width:1;stroke-linecap:butt;stroke-linejoin:miter;stroke-miterlimit:4;stroke-opacity:1"
       id="path4454" />
    <path
       d="M -538.09335,361.28984 C -531.09418,359.54655 -524.09502,360.7827 -517.09585,361.25496"
       style="fill:#ffffff;fill-opacity:1;fill-rule:evenodd;stroke:#000000;stroke-width:1;stroke-linecap:butt;stroke-linejoin:miter;stroke-miterlimit:4;stroke-opacity:1"
       id="path4456" />
    <path
       d="M -537.94324,371.65902 C -530.94408,369.31131 -523.94491,371.03581 -516.94574,371.62414"
       style="fill:#ffffff;fill-opacity:1;fill-rule:evenodd;stroke:#000000;stroke-width:1;stroke-linecap:butt;stroke-linejoin:miter;stroke-miterlimit:4;stroke-opacity:1"
       id="path4458" />
  </g>
</svg>
