<svg width="234" height="228" viewBox="0 0 234 228" fill="none" xmlns="http://www.w3.org/2000/svg">
<g clip-path="url(#clip0)">
<path d="M39.6844 86.8789C53.2777 86.8789 64.2972 75.7999 64.2972 62.1334C64.2972 48.4669 53.2777 37.3879 39.6844 37.3879C26.0912 37.3879 15.0717 48.4669 15.0717 62.1334C15.0717 75.7999 26.0912 86.8789 39.6844 86.8789Z" fill="#F5C348"/>
<path d="M110.097 49.4909C123.69 49.4909 134.71 38.412 134.71 24.7455C134.71 11.0789 123.69 0 110.097 0C96.5038 0 85.4843 11.0789 85.4843 24.7455C85.4843 38.412 96.5038 49.4909 110.097 49.4909Z" fill="#F5C348"/>
<path d="M180.51 86.8789C194.103 86.8789 205.122 75.7999 205.122 62.1334C205.122 48.4669 194.103 37.3879 180.51 37.3879C166.916 37.3879 155.897 48.4669 155.897 62.1334C155.897 75.7999 166.916 86.8789 180.51 86.8789Z" fill="#F5C348"/>
<path d="M40.2417 48.3014C32.6542 48.3014 26.4838 54.5051 26.4838 62.1334C26.4838 69.7618 32.6542 75.9654 40.2417 75.9654C47.8291 75.9654 53.9995 69.7618 53.9995 62.1334C53.9995 54.5051 47.8291 48.3014 40.2417 48.3014ZM40.2417 75.0733C33.1426 75.0733 27.3712 69.2707 27.3712 62.1334C27.3712 61.753 27.3918 61.3796 27.4262 61.0061C29.0841 58.8691 31.3059 58.8552 34.0919 58.8691C37.2081 58.8621 41.0534 58.876 44.995 55.5079C48.0974 60.1485 51.8739 61.1168 53.0846 61.3104C53.1052 61.5801 53.1121 61.8568 53.1121 62.1334C53.1121 69.2707 47.3407 75.0733 40.2417 75.0733Z" fill="white"/>
<path d="M34.2501 66.5942C35.1087 66.5942 35.8048 65.8944 35.8048 65.0312C35.8048 64.168 35.1087 63.4682 34.2501 63.4682C33.3915 63.4682 32.6955 64.168 32.6955 65.0312C32.6955 65.8944 33.3915 66.5942 34.2501 66.5942Z" fill="white"/>
<path d="M46.2332 66.5942C47.0918 66.5942 47.7878 65.8944 47.7878 65.0312C47.7878 64.168 47.0918 63.4682 46.2332 63.4682C45.3746 63.4682 44.6786 64.168 44.6786 65.0312C44.6786 65.8944 45.3746 66.5942 46.2332 66.5942Z" fill="white"/>
<path d="M123.408 23.6735H116.749V19.6553C116.749 19.51 116.68 19.3786 116.563 19.2887L110.537 14.9593V12.0684H114.974C115.222 12.0684 115.421 11.8679 115.421 11.6189V8.05022C115.421 7.80124 115.222 7.60068 114.974 7.60068H110.09C109.842 7.60068 109.643 7.80124 109.643 8.05022V14.9593L103.617 19.2887C103.5 19.3717 103.431 19.51 103.431 19.6553V23.6735H96.7725C96.5249 23.6735 96.3254 23.874 96.3254 24.123V34.829C96.3254 35.078 96.5249 35.2785 96.7725 35.2785H107.868V28.5838C107.868 28.3349 108.068 28.1343 108.315 28.1343H111.865C112.113 28.1343 112.312 28.3349 112.312 28.5838V35.2716H123.408C123.655 35.2716 123.855 35.0711 123.855 34.8221V24.1161C123.855 23.8671 123.655 23.6735 123.408 23.6735ZM103.878 30.8108C103.878 31.0598 103.679 31.2603 103.431 31.2603H100.322C100.074 31.2603 99.8749 31.0598 99.8749 30.8108V28.5769C99.8749 28.3279 100.074 28.1274 100.322 28.1274H103.431C103.679 28.1274 103.878 28.3279 103.878 28.5769V30.8108ZM112.312 23.6735C112.312 23.9225 112.113 24.123 111.865 24.123H108.315C108.068 24.123 107.868 23.9225 107.868 23.6735V21.4396C107.868 21.1906 108.068 20.9901 108.315 20.9901H111.865C112.113 20.9901 112.312 21.1906 112.312 21.4396V23.6735ZM120.305 30.8108C120.305 31.0598 120.106 31.2603 119.858 31.2603H116.749C116.501 31.2603 116.302 31.0598 116.302 30.8108V28.5769C116.302 28.3279 116.501 28.1274 116.749 28.1274H119.858C120.106 28.1274 120.305 28.3279 120.305 28.5769V30.8108Z" fill="white"/>
<path d="M180.51 62.1334L161.785 114.979" stroke="#F5C348" stroke-width="3" stroke-miterlimit="10"/>
<path d="M197.817 75.0456H195.065C194.783 75.0456 194.515 74.9142 194.343 74.6929L184.527 62.1334H182.222V60.2869H184.974C185.256 60.2869 185.524 60.4183 185.696 60.6396L195.512 73.1991H197.817C198.071 73.1991 198.278 73.4065 198.278 73.6624V74.5823C198.271 74.8381 198.065 75.0456 197.817 75.0456Z" fill="white"/>
<path d="M182.546 53.0458L177.043 47.513C176.864 47.3332 176.575 47.3332 176.396 47.513L170.893 53.0458C170.803 53.1357 170.755 53.2463 170.755 53.3708V75.0387H171.67V73.1921H181.762V75.0387H182.676V53.3708C182.683 53.2533 182.635 53.1357 182.546 53.0458ZM176.719 53.8342C178.24 53.8342 179.471 55.0722 179.471 56.6006C179.471 58.129 178.24 59.367 176.719 59.367C175.199 59.367 173.968 58.129 173.968 56.6006C173.968 55.0722 175.199 53.8342 176.719 53.8342ZM181.762 72.2792H171.67V69.5128H181.762V72.2792ZM181.762 68.586H171.67V65.8196H181.762V68.586ZM181.762 64.8998H171.67V62.1334H181.762V64.8998Z" fill="white"/>
<path d="M187.265 67.1268V75.0456H188.186V68.3025L187.265 67.1268Z" fill="white"/>
<path d="M110.097 49.4841V114.979" stroke="#F5C348" stroke-width="3" stroke-miterlimit="10"/>
<path d="M39.6844 62.1334L71.4031 114.979" stroke="#F5C348" stroke-width="3" stroke-miterlimit="10"/>
<path d="M224.308 155.278H32.5785C27.4125 155.278 23.2232 151.066 23.2232 145.872V124.377C23.2232 119.184 27.4125 114.972 32.5785 114.972H224.308C229.474 114.972 233.663 119.184 233.663 124.377V145.872C233.656 151.066 229.467 155.278 224.308 155.278Z" fill="white" stroke="#2E54A5" stroke-miterlimit="10"/>
<path d="M224.308 155.278H174.202V114.979H224.308C229.474 114.979 233.663 119.19 233.663 124.384V145.879C233.656 151.066 229.467 155.278 224.308 155.278Z" fill="#2E54A5"/>
<path d="M201.676 142.857C196.73 142.857 192.713 138.811 192.713 133.845C192.713 128.88 196.737 124.834 201.676 124.834C206.622 124.834 210.639 128.88 210.639 133.845C210.639 138.811 206.622 142.857 201.676 142.857ZM201.676 127.4C198.147 127.4 195.272 130.291 195.272 133.839C195.272 137.386 198.147 140.277 201.676 140.277C205.205 140.277 208.08 137.386 208.08 133.839C208.08 130.291 205.212 127.4 201.676 127.4Z" fill="white"/>
<path d="M212.827 143.23L209.759 140.146C209.229 140.824 208.624 141.439 207.95 141.965L211.018 145.049C211.265 145.298 211.595 145.43 211.926 145.43C212.256 145.43 212.579 145.305 212.834 145.049C213.329 144.551 213.329 143.735 212.827 143.23Z" fill="white"/>
<path d="M40.9295 121.341H39.6844V148.915H40.9295V121.341Z" fill="#2E54A5"/>
<path d="M43.846 122.596V121.344H36.7676V122.596H43.846Z" fill="#2E54A5"/>
<path d="M43.8437 148.915V147.664H36.7653V148.915H43.8437Z" fill="#2E54A5"/>
<path d="M229.384 215.461L215.675 201.678L228.552 196.131C228.951 195.958 229.199 195.557 229.164 195.121C229.137 194.686 228.834 194.319 228.421 194.201L191.743 183.959C191.385 183.855 191.007 183.959 190.752 184.222C190.498 184.484 190.395 184.865 190.491 185.218L200.679 222.094C200.795 222.516 201.16 222.813 201.593 222.841C202.034 222.868 202.426 222.619 202.598 222.225L208.115 209.271L221.824 223.055C222.863 224.099 224.232 224.625 225.601 224.625C226.97 224.625 228.339 224.099 229.377 223.055C230.389 222.038 230.946 220.69 230.946 219.258C230.946 217.826 230.395 216.478 229.384 215.461Z" fill="#15274C"/>
<path d="M184.802 185.446H167.178C166.305 185.446 165.596 184.733 165.596 183.855C165.596 182.977 166.305 182.264 167.178 182.264H184.802C185.676 182.264 186.384 182.977 186.384 183.855C186.384 184.733 185.676 185.446 184.802 185.446Z" fill="#15274C"/>
<path d="M183.949 179.581L171.484 167.049C170.865 166.427 170.865 165.424 171.484 164.802C172.104 164.179 173.101 164.179 173.72 164.802L186.185 177.333C186.804 177.956 186.804 178.959 186.185 179.581C185.566 180.204 184.568 180.204 183.949 179.581Z" fill="#15274C"/>
<path d="M188.991 177.651V159.933C188.991 159.054 189.7 158.342 190.573 158.342C191.447 158.342 192.156 159.054 192.156 159.933V177.651C192.156 178.53 191.447 179.242 190.573 179.242C189.7 179.242 188.991 178.53 188.991 177.651Z" fill="#15274C"/>
<path d="M33.1357 228H13.6822C6.12223 228 0 221.845 0 214.244V190.28C0 182.686 6.12223 176.524 13.6822 176.524H33.1357C40.6888 176.524 46.8179 182.679 46.8179 190.28V214.244C46.8179 221.845 40.6888 228 33.1357 228Z" fill="#EDF0F7"/>
<path d="M46.8179 200.91H0V183.931C0 176.337 6.12223 170.175 13.6822 170.175H33.1357C40.6888 170.175 46.8179 176.331 46.8179 183.931V200.91Z" fill="#BFCBE4"/>
<path d="M38.2605 207.833H5.73702C5.14543 207.833 4.66391 207.349 4.66391 206.754C4.66391 206.159 5.14543 205.675 5.73702 205.675H38.2605C38.8521 205.675 39.3336 206.159 39.3336 206.754C39.3336 207.349 38.8521 207.833 38.2605 207.833Z" fill="#BFCBE4"/>
<path d="M23.464 211.554H5.73702C5.14543 211.554 4.66391 211.07 4.66391 210.475C4.66391 209.88 5.14543 209.396 5.73702 209.396H23.464C24.0556 209.396 24.5371 209.88 24.5371 210.475C24.5371 211.07 24.0556 211.554 23.464 211.554Z" fill="#BFCBE4"/>
<path d="M31.1546 215.268H5.73702C5.14543 215.268 4.66391 214.784 4.66391 214.189C4.66391 213.594 5.14543 213.11 5.73702 213.11H31.1546C31.7462 213.11 32.2277 213.594 32.2277 214.189C32.2277 214.784 31.7462 215.268 31.1546 215.268Z" fill="#BFCBE4"/>
<path d="M22.8793 218.988H5.73702C5.14543 218.988 4.66391 218.504 4.66391 217.91C4.66391 217.315 5.14543 216.831 5.73702 216.831H22.8793C23.4709 216.831 23.9524 217.315 23.9524 217.91C23.9524 218.504 23.4709 218.988 22.8793 218.988Z" fill="#BFCBE4"/>
<path d="M87.1833 228H67.7298C60.1767 228 54.0476 221.845 54.0476 214.244V190.28C54.0476 182.686 60.1698 176.524 67.7298 176.524H87.1833C94.7364 176.524 100.865 182.679 100.865 190.28V214.244C100.865 221.845 94.7364 228 87.1833 228Z" fill="#EDF0F7"/>
<path d="M100.865 200.91H54.0476V183.931C54.0476 176.337 60.1698 170.175 67.7298 170.175H87.1833C94.7364 170.175 100.865 176.331 100.865 183.931V200.91Z" fill="#BFCBE4"/>
<path d="M92.3081 207.833H59.7846C59.193 207.833 58.7115 207.349 58.7115 206.754C58.7115 206.159 59.193 205.675 59.7846 205.675H92.3081C92.8997 205.675 93.3812 206.159 93.3812 206.754C93.3812 207.349 92.8997 207.833 92.3081 207.833Z" fill="#BFCBE4"/>
<path d="M77.5116 211.554H59.7846C59.193 211.554 58.7115 211.07 58.7115 210.475C58.7115 209.88 59.193 209.396 59.7846 209.396H77.5116C78.1032 209.396 78.5847 209.88 78.5847 210.475C78.5847 211.07 78.1032 211.554 77.5116 211.554Z" fill="#BFCBE4"/>
<path d="M85.1953 215.268H59.7846C59.193 215.268 58.7115 214.784 58.7115 214.189C58.7115 213.594 59.193 213.11 59.7846 213.11H85.2022C85.7938 213.11 86.2753 213.594 86.2753 214.189C86.2753 214.784 85.7938 215.268 85.1953 215.268Z" fill="#BFCBE4"/>
<path d="M76.9269 218.988H59.7846C59.193 218.988 58.7115 218.504 58.7115 217.91C58.7115 217.315 59.193 216.831 59.7846 216.831H76.9269C77.5185 216.831 78 217.315 78 217.91C78 218.504 77.5185 218.988 76.9269 218.988Z" fill="#BFCBE4"/>
<path d="M141.231 228H121.777C114.224 228 108.095 221.845 108.095 214.244V190.28C108.095 182.686 114.217 176.524 121.777 176.524H141.231C148.784 176.524 154.913 182.679 154.913 190.28V214.244C154.913 221.845 148.784 228 141.231 228Z" fill="#EDF0F7"/>
<path d="M154.913 200.91H108.095V183.931C108.095 176.337 114.217 170.175 121.777 170.175H141.231C148.784 170.175 154.913 176.331 154.913 183.931V200.91Z" fill="#BFCBE4"/>
<path d="M146.356 207.833H113.832C113.241 207.833 112.759 207.349 112.759 206.754C112.759 206.159 113.241 205.675 113.832 205.675H146.356C146.947 205.675 147.429 206.159 147.429 206.754C147.429 207.349 146.947 207.833 146.356 207.833Z" fill="#BFCBE4"/>
<path d="M131.559 211.554H113.832C113.241 211.554 112.759 211.07 112.759 210.475C112.759 209.88 113.241 209.396 113.832 209.396H131.559C132.151 209.396 132.632 209.88 132.632 210.475C132.632 211.07 132.151 211.554 131.559 211.554Z" fill="#BFCBE4"/>
<path d="M139.243 215.268H113.825C113.234 215.268 112.752 214.784 112.752 214.189C112.752 213.594 113.234 213.11 113.825 213.11H139.243C139.835 213.11 140.316 213.594 140.316 214.189C140.316 214.784 139.841 215.268 139.243 215.268Z" fill="#BFCBE4"/>
<path d="M130.975 218.988H113.832C113.241 218.988 112.759 218.504 112.759 217.91C112.759 217.315 113.241 216.831 113.832 216.831H130.975C131.566 216.831 132.048 217.315 132.048 217.91C132.048 218.504 131.566 218.988 130.975 218.988Z" fill="#BFCBE4"/>
<path d="M12.9736 91.9137C5.8402 91.9137 0 97.7854 0 104.957C0 112.129 5.8402 118.001 12.9736 118.001C20.1071 118.001 25.9473 112.129 25.9473 104.957C25.9404 97.7854 20.1071 91.9137 12.9736 91.9137ZM19.4604 106.589H14.5971V111.479H11.3502V106.589H6.48681V103.332H11.3502V98.4424H14.5902V103.332H19.4536V106.589H19.4604Z" fill="#BFCBE4"/>
</g>
<defs>
<clipPath id="clip0">
<rect width="234" height="228" fill="white"/>
</clipPath>
</defs>
</svg>
