<svg width="234" height="236" viewBox="0 0 234 236" fill="none" xmlns="http://www.w3.org/2000/svg">
<g clip-path="url(#clip0)">
<path d="M192.639 72.7787H176.987C175.816 72.7787 174.871 71.825 174.871 70.656C174.871 69.4809 175.822 68.5334 176.987 68.5334H192.639C193.81 68.5334 194.755 69.487 194.755 70.656C194.761 71.825 193.81 72.7787 192.639 72.7787Z" fill="#BFCBE4"/>
<path d="M217.287 72.7787H201.636C200.465 72.7787 199.52 71.825 199.52 70.656C199.52 69.4809 200.471 68.5334 201.636 68.5334H217.287C218.459 68.5334 219.403 69.487 219.403 70.656C219.409 71.825 218.459 72.7787 217.287 72.7787Z" fill="#BFCBE4"/>
<path d="M207.744 66.4292H177.367C176.196 66.4292 175.252 65.4756 175.252 64.3066C175.252 63.1314 176.202 62.184 177.367 62.184H207.751C208.922 62.184 209.866 63.1376 209.866 64.3066C209.866 65.4756 208.916 66.4292 207.744 66.4292Z" fill="#BFCBE4"/>
<path d="M111.125 3.74672L75.1297 14.5814L39.1165 0.129016C38.7301 -0.0247977 38.307 -0.0432554 37.9145 0.0736433L1.30634 11.0929C0.527442 11.3267 0 12.0404 0 12.8525V100.988C0 102.003 0.821827 102.821 1.82765 102.821C2.0055 102.821 2.18336 102.797 2.35509 102.741L38.3499 91.9068L68.874 104.157C69.8124 104.532 70.8795 104.077 71.2537 103.129C71.6278 102.188 71.1739 101.117 70.2294 100.742L40.2634 88.7198V4.54656L73.2101 17.7684V40.3975C73.2101 41.4127 74.0319 42.231 75.0377 42.231C76.0497 42.231 76.8654 41.4066 76.8654 40.3975V17.8915L109.812 7.97354V45.9041C109.812 46.9193 110.634 47.7376 111.64 47.7376C112.646 47.7376 113.467 46.9131 113.467 45.9041V5.50636C113.467 4.49118 112.646 3.67289 111.64 3.67289C111.474 3.67289 111.296 3.6975 111.125 3.74672ZM36.6081 88.6029L3.66142 98.5208V14.2184L36.6081 4.30045V88.6029Z" fill="#BFCBE4"/>
<path d="M18.7364 21.3124C14.1796 21.3124 9.46329 24.7087 9.46329 30.3875C9.46329 35.8017 17.8901 43.6832 18.2519 44.0154C18.5279 44.2677 18.945 44.2677 19.221 44.0154C19.5767 43.6832 28.0035 35.8017 28.0035 30.3875C28.0035 24.7087 23.2933 21.3124 18.7364 21.3124ZM18.7364 33.4761C17.1603 33.4761 15.8846 32.1963 15.8846 30.6151C15.8846 29.0339 17.1603 27.7542 18.7364 27.7542C20.3126 27.7542 21.5883 29.0339 21.5883 30.6151C21.5883 32.1963 20.3065 33.4761 18.7364 33.4761Z" fill="#BFCBE4"/>
<path d="M160.072 236H75.4364C64.3478 236 55.3568 226.98 55.3568 215.857V52.9059C55.3568 41.782 64.3478 32.7624 75.4364 32.7624H160.072C171.161 32.7624 180.152 41.782 180.152 52.9059V215.857C180.158 226.98 171.167 236 160.072 236Z" fill="#2E54A5"/>
<path d="M166.855 215.026H68.6533C65.2004 215.026 62.4037 212.22 62.4037 208.756V56.2159C62.4037 52.752 65.2004 49.9465 68.6533 49.9465H166.855C170.308 49.9465 173.105 52.752 173.105 56.2159V208.756C173.105 212.22 170.308 215.026 166.855 215.026Z" fill="white"/>
<path d="M173.105 71.745H62.4037V55.8837C62.4037 52.6044 65.0532 49.9465 68.3221 49.9465H167.187C170.456 49.9465 173.105 52.6044 173.105 55.8837V71.745Z" fill="#748EC3"/>
<path d="M157.325 65.9923C154.074 65.9923 151.431 63.3406 151.431 60.0797C151.431 56.8189 154.074 54.1671 157.325 54.1671C160.575 54.1671 163.219 56.8189 163.219 60.0797C163.219 63.3406 160.575 65.9923 157.325 65.9923ZM157.325 55.8529C155 55.8529 153.111 57.7479 153.111 60.0797C153.111 62.4115 155 64.3065 157.325 64.3065C159.649 64.3065 161.538 62.4115 161.538 60.0797C161.532 57.7479 159.643 55.8529 157.325 55.8529Z" fill="white"/>
<path d="M164.654 66.2384L162.636 64.2142C162.292 64.6634 161.888 65.0633 161.446 65.4078L163.464 67.432C163.629 67.5981 163.844 67.6781 164.059 67.6781C164.273 67.6781 164.488 67.5981 164.654 67.432C164.985 67.1059 164.985 66.5707 164.654 66.2384Z" fill="white"/>
<path d="M148.91 200.044H86.5985C79.8644 200.044 74.3999 194.569 74.3999 187.807V117.163C74.3999 110.408 79.8583 104.926 86.5985 104.926H148.91C155.644 104.926 161.109 110.402 161.109 117.163V187.807C161.109 194.562 155.644 200.044 148.91 200.044Z" fill="#EDF0F7"/>
<path d="M161.109 149.975H74.3999V105.418C74.3999 98.6625 79.8583 93.1805 86.5985 93.1805H148.91C155.644 93.1805 161.109 98.6563 161.109 105.418V149.975Z" fill="#BFCBE4"/>
<path d="M146.291 162.772H83.9981C83.4707 162.772 83.0414 162.341 83.0414 161.812V159.745C83.0414 159.216 83.4707 158.785 83.9981 158.785H146.291C146.819 158.785 147.248 159.216 147.248 159.745V161.812C147.248 162.341 146.819 162.772 146.291 162.772Z" fill="#BFCBE4"/>
<path d="M118.889 169.638H83.9981C83.4707 169.638 83.0414 169.208 83.0414 168.679V166.611C83.0414 166.082 83.4707 165.652 83.9981 165.652H118.889C119.416 165.652 119.846 166.082 119.846 166.611V168.679C119.846 169.214 119.416 169.638 118.889 169.638Z" fill="#BFCBE4"/>
<path d="M133.13 176.511H83.9981C83.4707 176.511 83.0414 176.08 83.0414 175.551V173.484C83.0414 172.955 83.4707 172.524 83.9981 172.524H133.13C133.657 172.524 134.087 172.955 134.087 173.484V175.551C134.087 176.086 133.657 176.511 133.13 176.511Z" fill="#BFCBE4"/>
<path d="M117.803 183.383H83.9981C83.4707 183.383 83.0414 182.953 83.0414 182.423V180.356C83.0414 179.827 83.4707 179.396 83.9981 179.396H117.803C118.331 179.396 118.76 179.827 118.76 180.356V182.423C118.76 182.953 118.331 183.383 117.803 183.383Z" fill="#BFCBE4"/>
<path d="M190.56 60.0797H180.158V55.8345H190.56C191.731 55.8345 192.676 56.7881 192.676 57.9571C192.676 59.1261 191.731 60.0797 190.56 60.0797Z" fill="#BFCBE4"/>
<path d="M207.744 60.0797H199.459C198.287 60.0797 197.343 59.1261 197.343 57.9571C197.343 56.782 198.293 55.8345 199.459 55.8345H207.744C208.916 55.8345 209.86 56.7881 209.86 57.9571C209.867 59.1261 208.916 60.0797 207.744 60.0797Z" fill="#BFCBE4"/>
<path d="M231.884 66.4292H216.643C215.472 66.4292 214.528 65.4756 214.528 64.3066C214.528 63.1314 215.478 62.184 216.643 62.184H231.884C233.056 62.184 234 63.1376 234 64.3066C234 65.4756 233.056 66.4292 231.884 66.4292Z" fill="#BFCBE4"/>
<path d="M224.935 60.0797H216.65C215.478 60.0797 214.534 59.1261 214.534 57.9571C214.534 56.782 215.484 55.8345 216.65 55.8345H224.935C226.107 55.8345 227.051 56.7881 227.051 57.9571C227.051 59.1261 226.101 60.0797 224.935 60.0797Z" fill="#BFCBE4"/>
<path d="M219 17.061H185V19.9343H219V17.061Z" fill="#BFCBE4"/>
<path d="M219 22.0385H185V24.9117H219V22.0385Z" fill="#BFCBE4"/>
<path d="M219 27.022H185V29.8953H219V27.022Z" fill="#BFCBE4"/>
<path d="M219 32.0056H185V34.8789H219V32.0056Z" fill="#BFCBE4"/>
<path d="M219 36.9892H185V39.8624H219V36.9892Z" fill="#BFCBE4"/>
<path d="M219 41.9728H185V44.846H219V41.9728Z" fill="#BFCBE4"/>
<path d="M26.3843 154.682C28.0983 154.682 29.4877 153.288 29.4877 151.568C29.4877 149.849 28.0983 148.455 26.3843 148.455C24.6704 148.455 23.281 149.849 23.281 151.568C23.281 153.288 24.6704 154.682 26.3843 154.682Z" fill="#F5C348"/>
<path d="M15.5227 177.083C17.0639 177.083 18.3133 175.83 18.3133 174.284C18.3133 172.738 17.0639 171.484 15.5227 171.484C13.9816 171.484 12.7322 172.738 12.7322 174.284C12.7322 175.83 13.9816 177.083 15.5227 177.083Z" fill="#F5C348"/>
<path d="M35.633 161.037L28.2426 156.712L28.0157 156.607L22.9008 154.897C22.3243 154.706 21.6987 154.731 21.1406 154.971L12.9284 158.484C12.3213 158.73 11.9962 159.388 12.168 160.022C12.3703 160.68 13.0634 161.049 13.7196 160.846C13.7625 160.834 13.8055 160.816 13.8423 160.803L20.8155 157.819L17.1786 168.752C16.872 169.558 17.2768 170.457 18.0802 170.758C18.2581 170.826 18.442 170.857 18.6322 170.857C19.3007 170.857 19.8956 170.426 20.1041 169.792L21.2571 166.328L22.3979 166.728L19.6564 174.979C19.3497 175.785 19.7545 176.683 20.5579 176.985C20.7358 177.052 20.9198 177.083 21.1099 177.083C21.7784 177.083 22.3733 176.652 22.5819 176.019L28.0771 159.493L34.4493 163.221C35.0442 163.566 35.7985 163.369 36.1481 162.772C36.1665 162.741 36.1849 162.704 36.1972 162.674C36.4548 162.065 36.2095 161.357 35.633 161.037Z" fill="#F5C348"/>
<path d="M39.4048 132.951H36.7124C36.4364 132.951 36.1788 132.822 36.0071 132.606L26.3966 120.332H24.1396V118.529H26.832C27.108 118.529 27.3656 118.658 27.5373 118.874L37.1478 131.142H39.4048C39.6501 131.142 39.8525 131.345 39.8525 131.591V132.489C39.8586 132.748 39.6562 132.951 39.4048 132.951Z" fill="#F5C348"/>
<path d="M24.4524 111.454L19.0615 106.046C18.8836 105.867 18.6015 105.867 18.4237 106.046L13.0327 111.454C12.9468 111.54 12.9039 111.651 12.9039 111.774V132.951H13.7993V131.148H23.6797V132.951H24.5751V111.774C24.5874 111.657 24.5383 111.54 24.4524 111.454ZM18.7487 112.223C20.239 112.223 21.4411 113.435 21.4411 114.924C21.4411 116.413 20.2329 117.625 18.7487 117.625C17.2584 117.625 16.0563 116.413 16.0563 114.924C16.0563 113.435 17.2584 112.223 18.7487 112.223ZM23.6858 130.25H13.8055V127.549H23.6858V130.25ZM23.6858 126.644H13.8055V123.943H23.6858V126.644ZM23.6858 123.039H13.8055V120.338H23.6858V123.039Z" fill="#F5C348"/>
<path d="M29.0767 125.217V132.951H29.9783V126.361L29.0767 125.217Z" fill="#F5C348"/>
<path d="M17.5215 206.541C17.5215 207.667 16.6138 208.578 15.4914 208.584C15.424 208.584 15.3565 208.578 15.289 208.572C14.228 208.436 13.4369 207.526 13.4553 206.455V206.135C13.4553 205.908 13.2713 205.729 13.0505 205.729H9.79997V195.941C9.79997 195.042 10.5298 194.31 11.4252 194.31H21.1829V197.165C19.6128 197.165 18.3372 198.445 18.3372 200.02C18.3372 201.595 19.6128 202.875 21.1829 202.875V205.729H17.9324C17.7055 205.729 17.5276 205.914 17.5276 206.135V206.541H17.5215Z" fill="#F5C348"/>
<path d="M21.9931 210.215C23.1154 210.215 24.0231 211.125 24.0293 212.251C24.0293 212.319 24.0231 212.386 24.017 212.454C23.8821 213.519 22.9744 214.312 21.9072 214.294H21.5883C21.3614 214.294 21.1835 214.478 21.1835 214.7V217.961H11.4197C10.5243 217.961 9.79446 217.228 9.79446 216.33V206.542H12.6402C12.6402 208.117 13.9159 209.396 15.4859 209.396C17.056 209.396 18.3317 208.117 18.3317 206.542H21.1774V209.802C21.1774 210.03 21.3614 210.208 21.5822 210.208H21.9931V210.215Z" fill="#F5C348"/>
<path d="M25.6484 205.729C25.6484 204.603 26.5561 203.693 27.6784 203.687C27.7459 203.687 27.8133 203.693 27.8808 203.699C28.9418 203.834 29.733 204.745 29.7146 205.815V206.135C29.7146 206.363 29.8986 206.542 30.1194 206.542H33.3699V216.33C33.3699 217.228 32.64 217.961 31.7446 217.961H21.9931V215.106C23.5631 215.106 24.8388 213.826 24.8388 212.251C24.8388 210.676 23.5631 209.396 21.9931 209.396V206.542H25.2436C25.4705 206.542 25.6484 206.357 25.6484 206.135V205.729Z" fill="#F5C348"/>
<path d="M21.1774 202.056C20.055 202.056 19.1473 201.146 19.1412 200.02C19.1412 199.952 19.1473 199.884 19.1535 199.817C19.2884 198.752 20.1961 197.959 21.2632 197.977H21.5822C21.8091 197.977 21.9869 197.793 21.9869 197.571V194.31H31.7446C32.64 194.31 33.3699 195.042 33.3699 195.941V205.729H30.5241C30.5241 204.154 29.2485 202.875 27.6784 202.875C26.1083 202.875 24.8327 204.154 24.8327 205.729H21.9869V202.468C21.9869 202.241 21.803 202.062 21.5822 202.062H21.1774V202.056Z" fill="#F5C348"/>
<path d="M160.496 102.274C165.502 102.274 169.56 98.2027 169.56 93.1805C169.56 88.1583 165.502 84.087 160.496 84.087C155.489 84.087 151.431 88.1583 151.431 93.1805C151.431 98.2027 155.489 102.274 160.496 102.274Z" fill="#FF9696"/>
<path d="M200.182 104.36H139.723V157.278H200.182V104.36Z" fill="white"/>
<path d="M200.845 99.2346H139.355C136.718 99.2346 134.964 100.994 134.964 103.64V156.509C134.964 159.154 136.718 160.914 139.355 160.914H200.845C203.482 160.914 205.236 159.154 205.236 156.509V103.64C205.236 101 203.482 99.2346 200.845 99.2346ZM161.317 112.456C163.955 112.456 165.709 114.216 165.709 116.862C165.709 119.507 163.955 121.267 161.317 121.267C158.68 121.267 156.926 119.507 156.926 116.862C156.926 114.216 158.68 112.456 161.317 112.456ZM143.746 147.705L152.529 130.084L165.702 138.894L178.876 121.273L196.441 147.711H143.746V147.705Z" fill="#F5C348"/>
<path d="M210.891 158.447H207.505V102.274H210.891C212.835 102.274 214.411 103.855 214.411 105.806V154.915C214.411 156.866 212.835 158.447 210.891 158.447Z" fill="#F5C348"/>
<path d="M117.754 231.865C121.348 231.865 124.262 228.943 124.262 225.338C124.262 221.732 121.348 218.81 117.754 218.81C114.161 218.81 111.247 221.732 111.247 225.338C111.247 228.943 114.161 231.865 117.754 231.865Z" stroke="#EDF0F7" stroke-width="2" stroke-miterlimit="10"/>
</g>
<defs>
<clipPath id="clip0">
<rect width="234" height="236" fill="white"/>
</clipPath>
</defs>
</svg>
