<svg width="12" height="12" viewBox="0 0 12 12" fill="none" xmlns="http://www.w3.org/2000/svg">
<g clip-path="url(#clip0)">
<path d="M11.358 4.07926L8.12025 3.60826L6.675 0.675012C6.60632 0.556861 6.50783 0.458806 6.38938 0.390649C6.27093 0.322492 6.13666 0.286621 6 0.286621C5.86334 0.286621 5.72907 0.322492 5.61062 0.390649C5.49216 0.458806 5.39368 0.556861 5.325 0.675012L3.87975 3.60901L0.641998 4.07926C0.50335 4.09915 0.37304 4.15746 0.26583 4.2476C0.158619 4.33773 0.0787915 4.45609 0.0353893 4.58927C-0.00801289 4.72244 -0.0132554 4.8651 0.0202557 5.0011C0.0537667 5.1371 0.124692 5.261 0.224998 5.35876L2.56725 7.64251L2.0145 10.8675C1.99087 11.0054 2.00629 11.1472 2.05903 11.2768C2.11177 11.4065 2.19973 11.5187 2.31294 11.601C2.42616 11.6832 2.56013 11.7321 2.69971 11.7422C2.83928 11.7523 2.97889 11.7231 3.10275 11.658L6 10.1348L8.89575 11.6565C9.01961 11.7216 9.15922 11.7508 9.29879 11.7407C9.43836 11.7306 9.57233 11.6817 9.68555 11.5995C9.79877 11.5172 9.88672 11.405 9.93946 11.2753C9.9922 11.1457 10.0076 11.0039 9.984 10.866L9.43125 7.64101L11.775 5.35876C11.8751 5.26107 11.9458 5.13735 11.9793 5.00157C12.0127 4.86579 12.0076 4.72336 11.9643 4.59036C11.9211 4.45737 11.8416 4.3391 11.7347 4.24892C11.6278 4.15874 11.4979 4.10023 11.3595 4.08001L11.358 4.07926Z" fill="#F5C348"/>
</g>
<defs>
<clipPath id="clip0">
<rect width="12" height="12" fill="white"/>
</clipPath>
</defs>
</svg>
