<svg width="73" height="66" viewBox="0 0 73 66" fill="none" xmlns="http://www.w3.org/2000/svg">
<path d="M23.3618 32.3774V34.2489" stroke="#2150B2" stroke-width="2" stroke-miterlimit="10" stroke-linecap="round" stroke-linejoin="round"/>
<path d="M20.1518 31.4478L19.0037 33.2666" stroke="#2150B2" stroke-width="2" stroke-miterlimit="10" stroke-linecap="round" stroke-linejoin="round"/>
<path d="M17.9363 28.95L14.5525 30.5586" stroke="#2150B2" stroke-width="2" stroke-miterlimit="10" stroke-linecap="round" stroke-linejoin="round"/>
<path d="M17.3986 25.6555L15.5389 25.4292" stroke="#2150B2" stroke-width="2" stroke-miterlimit="10" stroke-linecap="round" stroke-linejoin="round"/>
<path d="M18.7004 22.5799L15.7976 20.2153" stroke="#2150B2" stroke-width="2" stroke-miterlimit="10" stroke-linecap="round" stroke-linejoin="round"/>
<path d="M21.4495 20.6802L20.8512 18.9058" stroke="#2150B2" stroke-width="2" stroke-miterlimit="10" stroke-linecap="round" stroke-linejoin="round"/>
<path d="M24.7849 20.5386L25.6743 16.9009" stroke="#2150B2" stroke-width="2" stroke-miterlimit="10" stroke-linecap="round" stroke-linejoin="round"/>
<path d="M27.6836 22.1999L29.2441 20.6963" stroke="#2150B2" stroke-width="2" stroke-miterlimit="10" stroke-linecap="round" stroke-linejoin="round"/>
<path d="M29.2441 25.1544L32.911 24.3945" stroke="#2150B2" stroke-width="2" stroke-miterlimit="10" stroke-linecap="round" stroke-linejoin="round"/>
<path d="M28.9855 28.481L31.0756 29.2691" stroke="#2150B2" stroke-width="2" stroke-miterlimit="10" stroke-linecap="round" stroke-linejoin="round"/>
<path d="M27.8055 26.6258C27.9449 24.172 26.0682 22.0698 23.6138 21.9304C21.1595 21.7911 19.0568 23.6673 18.9174 26.1212C18.778 28.575 20.6547 30.6772 23.1091 30.8165C25.5634 30.9559 27.6661 29.0796 27.8055 26.6258Z" stroke="#2150B2" stroke-width="2" stroke-miterlimit="10" stroke-linecap="round" stroke-linejoin="round"/>
<path d="M26.9883 31.1609L29.2482 34.1438" stroke="#2150B2" stroke-width="2" stroke-miterlimit="10" stroke-linecap="round" stroke-linejoin="round"/>
<path d="M62.9249 44.8752V56.2816H22.254" stroke="#2150B2" stroke-width="2" stroke-miterlimit="10" stroke-linecap="round" stroke-linejoin="round"/>
<path d="M4.55872 48.0076V12.1516H62.9251V23.9541V31.1608" stroke="#2150B2" stroke-width="2" stroke-miterlimit="10" stroke-linecap="round" stroke-linejoin="round"/>
<path d="M34.2046 56.2815L53.8649 65L57.7339 56.2815" stroke="#2150B2" stroke-width="2" stroke-miterlimit="10" stroke-linecap="round" stroke-linejoin="round"/>
<path d="M13.465 12.1517L18.4134 1L43.5557 12.1517" stroke="#2150B2" stroke-width="2" stroke-miterlimit="10" stroke-linecap="round" stroke-linejoin="round"/>
<path d="M62.9249 20.7368L71.7626 24.6615L67.6793 33.8691" stroke="#2150B2" stroke-width="2" stroke-miterlimit="10" stroke-linecap="round" stroke-linejoin="round"/>
<path d="M67.3479 36.8965L45.9613 24.7302L42.4845 30.8416L63.867 43.0038" stroke="#2150B2" stroke-width="2" stroke-miterlimit="10" stroke-linecap="round" stroke-linejoin="round"/>
<path d="M42.4844 30.8417L37.8149 24.1401L45.9612 24.7303" stroke="#2150B2" stroke-width="2" stroke-miterlimit="10" stroke-linecap="round" stroke-linejoin="round"/>
<path d="M63.8671 43.004L65.0718 43.6871C66.7577 44.649 68.9044 44.0589 69.8666 42.3694C70.8288 40.6839 70.2386 38.5376 68.5487 37.5757L67.3439 36.8926L63.8671 43.004Z" stroke="#2150B2" stroke-width="2" stroke-miterlimit="10" stroke-linecap="round" stroke-linejoin="round"/>
<path d="M60.1233 40.8778L63.6042 34.7664" stroke="#2150B2" stroke-width="2" stroke-miterlimit="10" stroke-linecap="round" stroke-linejoin="round"/>
<path d="M6.80241 58.4478L30.4732 51.7423L28.5569 44.9761L4.88611 51.6857" stroke="#2150B2" stroke-width="2" stroke-miterlimit="10" stroke-linecap="round" stroke-linejoin="round"/>
<path d="M28.5568 44.9761L36.606 46.3503L30.4731 51.7423" stroke="#2150B2" stroke-width="2" stroke-miterlimit="10" stroke-linecap="round" stroke-linejoin="round"/>
<path d="M4.88608 51.6858L3.55599 52.0617C1.6882 52.5912 0.604721 54.5353 1.13433 56.4027C1.66394 58.2701 3.60854 59.3533 5.47633 58.8238L6.80642 58.4479L4.88608 51.6858Z" stroke="#2150B2" stroke-width="2" stroke-miterlimit="10" stroke-linecap="round" stroke-linejoin="round"/>
<path d="M9.02991 50.5134L10.9462 57.2756" stroke="#2150B2" stroke-width="2" stroke-miterlimit="10" stroke-linecap="round" stroke-linejoin="round"/>
<path d="M38.668 46.0676C40.5034 46.0676 40.5034 49.4346 42.3389 49.4346C44.1743 49.4346 44.1743 46.0676 46.0097 46.0676C47.8452 46.0676 47.8452 49.4346 49.6806 49.4346C51.5161 49.4346 51.5161 46.0676 53.3556 46.0676C55.191 46.0676 55.191 49.4346 57.0305 49.4346" stroke="#2150B2" stroke-width="2" stroke-miterlimit="10" stroke-linecap="round" stroke-linejoin="round"/>
</svg>
